<svg width="1003" height="527" viewBox="0 0 1003 527" fill="none" xmlns="http://www.w3.org/2000/svg">
<rect y="12" width="1003" height="496" rx="36" fill="#1B76FF"/>
<g filter="url(#filter0_d)">
<rect x="242.388" y="81.2622" width="261.943" height="360.332" rx="33.1983" transform="rotate(-3 242.388 81.2622)" fill="white"/>
</g>
<g filter="url(#filter1_d)">
<rect x="299.441" y="394.62" width="12.9089" height="19.8501" rx="6.45445" transform="rotate(-3 299.441 394.62)" fill="#1B76FF"/>
</g>
<g filter="url(#filter2_d)">
<rect x="322.597" y="378.188" width="12.9089" height="35.0468" rx="6.45445" transform="rotate(-3 322.597 378.188)" fill="#1B76FF"/>
</g>
<g filter="url(#filter3_d)">
<rect x="345.668" y="360.16" width="12.9089" height="51.8429" rx="6.45445" transform="rotate(-3 345.668 360.16)" fill="#1B76FF"/>
</g>
<g filter="url(#filter4_d)">
<rect x="368.806" y="343.416" width="12.9089" height="67.3534" rx="6.45445" transform="rotate(-3 368.806 343.416)" fill="#1B76FF"/>
</g>
<g filter="url(#filter5_d)">
<rect x="392.072" y="329.101" width="12.9089" height="80.4314" rx="6.45445" transform="rotate(-3 392.072 329.101)" fill="#1B76FF"/>
</g>
<g filter="url(#filter6_d)">
<rect x="415.528" y="318.442" width="12.9089" height="89.8475" rx="6.45445" transform="rotate(-3 415.528 318.442)" fill="#1B76FF"/>
</g>
<g filter="url(#filter7_d)">
<rect x="439.137" y="310.647" width="12.9089" height="96.3967" rx="6.45445" transform="rotate(-3 439.137 310.647)" fill="#1B76FF"/>
</g>
<g filter="url(#filter8_d)">
<rect x="462.604" y="300.165" width="12.9089" height="105.637" rx="6.45445" transform="rotate(-3 462.604 300.165)" fill="#782CE4"/>
</g>
<rect x="291.178" y="213.836" width="178.375" height="12.9868" rx="6.49341" transform="rotate(-3 291.178 213.836)" fill="#BEBFCC"/>
<rect x="292.366" y="236.532" width="119.684" height="12.9868" rx="6.49341" transform="rotate(-3 292.366 236.532)" fill="#E7E8F1"/>
<rect x="293.557" y="259.228" width="178.375" height="12.9868" rx="6.49341" transform="rotate(-3 293.557 259.228)" fill="#E7E8F1"/>
<rect x="294.963" y="286.073" width="158.41" height="12.9868" rx="6.49341" transform="rotate(-3 294.963 286.073)" fill="#E7E8F1"/>
<rect x="373.093" y="114.349" width="93.544" height="12.9868" rx="6.49341" transform="rotate(-3 373.093 114.349)" fill="#BEBFCC"/>
<rect x="374.281" y="137.044" width="69.4522" height="12.9868" rx="6.49341" transform="rotate(-3 374.281 137.044)" fill="#E7E8F1"/>
<rect x="375.472" y="159.74" width="86.7122" height="12.9868" rx="6.49341" transform="rotate(-3 375.472 159.74)" fill="#E7E8F1"/>
<g filter="url(#filter9_d)">
<path d="M308.753 113.529C315.875 111.018 323.622 110.889 330.824 113.164C338.026 115.438 344.293 119.992 348.681 126.139C353.069 132.286 355.34 139.693 355.152 147.244C354.963 154.794 352.325 162.078 347.636 167.999" stroke="#782CE4" stroke-width="13.2793" stroke-linecap="round"/>
</g>
<g filter="url(#filter10_d)">
<path d="M347.65 167.981C344.571 171.872 340.697 175.061 336.286 177.334C331.875 179.606 327.029 180.91 322.073 181.158" stroke="#FFCD1D" stroke-width="13.2793" stroke-linecap="round"/>
</g>
<g filter="url(#filter11_d)">
<path d="M322.158 181.153C313.795 181.592 305.553 179.001 298.944 173.857C292.335 168.713 287.801 161.36 286.173 153.144C284.545 144.929 285.932 136.402 290.079 129.126C294.227 121.85 300.858 116.313 308.756 113.528" stroke="#1B76FF" stroke-width="13.2793" stroke-linecap="round"/>
</g>
<g filter="url(#filter12_d)">
<rect x="505.383" y="54.9897" width="261.943" height="360.332" rx="33.1983" transform="rotate(13 505.383 54.9897)" fill="white"/>
</g>
<path opacity="0.3" d="M674.735 318.141C663.152 368.315 613.087 399.598 562.914 388.015C512.74 376.431 481.456 326.367 493.04 276.193C504.623 226.02 554.688 194.736 604.861 206.32C655.035 217.903 686.319 267.967 674.735 318.141ZM517.078 281.743C508.559 318.641 531.565 355.458 568.463 363.977C605.361 372.495 642.179 349.489 650.697 312.591C659.216 275.693 636.21 238.876 599.312 230.357C562.414 221.839 525.596 244.845 517.078 281.743Z" fill="#E7E8F1"/>
<g filter="url(#filter13_d)">
<path d="M552.31 371.56C549.629 377.874 542.283 380.889 536.38 377.394C525.718 371.08 516.385 362.682 508.961 352.657C499.063 339.293 492.921 323.526 491.169 306.988C489.417 290.451 492.12 273.746 498.998 258.606C505.876 243.465 516.678 230.439 530.285 220.879C543.891 211.318 559.808 205.571 576.383 204.232C592.959 202.894 609.591 206.013 624.556 213.267C639.52 220.52 652.272 231.644 661.49 245.485C668.405 255.868 673.142 267.496 675.468 279.667C676.755 286.404 671.429 292.294 664.58 292.675V292.675C657.731 293.057 651.981 287.763 650.37 281.095C648.495 273.343 645.272 265.946 640.815 259.254C634.053 249.101 624.699 240.94 613.721 235.619C602.743 230.298 590.542 228.01 578.383 228.992C566.223 229.974 554.547 234.19 544.565 241.203C534.584 248.217 526.66 257.772 521.614 268.879C516.569 279.986 514.586 292.241 515.871 304.372C517.156 316.503 521.662 328.07 528.922 337.874C533.707 344.335 539.573 349.875 546.232 354.266C551.958 358.042 554.99 365.246 552.31 371.56V371.56Z" fill="#1B76FF"/>
</g>
<g filter="url(#filter14_d)">
<rect x="533.225" y="97.9663" width="185.055" height="12.9868" rx="6.49341" transform="rotate(13 533.225 97.9663)" fill="#1B76FF"/>
</g>
<rect x="527.812" y="121.41" width="137.395" height="12.9868" rx="6.49341" transform="rotate(13 527.812 121.41)" fill="#E7E8F1"/>
<rect x="522.397" y="144.854" width="171.54" height="12.9868" rx="6.49341" transform="rotate(13 522.397 144.854)" fill="#E7E8F1"/>
<defs>
<filter id="filter0_d" x="184.474" y="13.0465" width="396.269" height="489.374" filterUnits="userSpaceOnUse" color-interpolation-filters="sRGB">
<feFlood flood-opacity="0" result="BackgroundImageFix"/>
<feColorMatrix in="SourceAlpha" type="matrix" values="0 0 0 0 0 0 0 0 0 0 0 0 0 0 0 0 0 0 127 0"/>
<feOffset dy="3.40667"/>
<feGaussianBlur stdDeviation="28.9567"/>
<feColorMatrix type="matrix" values="0 0 0 0 0.121042 0 0 0 0 0.143938 0 0 0 0 0.35 0 0 0 0.27 0"/>
<feBlend mode="normal" in2="BackgroundImageFix" result="effect1_dropShadow"/>
<feBlend mode="normal" in="SourceGraphic" in2="effect1_dropShadow" result="shape"/>
</filter>
<filter id="filter1_d" x="292.802" y="390.624" width="27.2094" height="33.7778" filterUnits="userSpaceOnUse" color-interpolation-filters="sRGB">
<feFlood flood-opacity="0" result="BackgroundImageFix"/>
<feColorMatrix in="SourceAlpha" type="matrix" values="0 0 0 0 0 0 0 0 0 0 0 0 0 0 0 0 0 0 127 0"/>
<feOffset dy="3.31983"/>
<feGaussianBlur stdDeviation="3.31983"/>
<feColorMatrix type="matrix" values="0 0 0 0 0.104167 0 0 0 0 0.4625 0 0 0 0 1 0 0 0 0.15 0"/>
<feBlend mode="normal" in2="BackgroundImageFix" result="effect1_dropShadow"/>
<feBlend mode="normal" in="SourceGraphic" in2="effect1_dropShadow" result="shape"/>
</filter>
<filter id="filter2_d" x="315.957" y="374.193" width="28.0048" height="48.9537" filterUnits="userSpaceOnUse" color-interpolation-filters="sRGB">
<feFlood flood-opacity="0" result="BackgroundImageFix"/>
<feColorMatrix in="SourceAlpha" type="matrix" values="0 0 0 0 0 0 0 0 0 0 0 0 0 0 0 0 0 0 127 0"/>
<feOffset dy="3.31983"/>
<feGaussianBlur stdDeviation="3.31983"/>
<feColorMatrix type="matrix" values="0 0 0 0 0.104167 0 0 0 0 0.4625 0 0 0 0 1 0 0 0 0.15 0"/>
<feBlend mode="normal" in2="BackgroundImageFix" result="effect1_dropShadow"/>
<feBlend mode="normal" in="SourceGraphic" in2="effect1_dropShadow" result="shape"/>
</filter>
<filter id="filter3_d" x="339.028" y="356.165" width="28.8838" height="65.7268" filterUnits="userSpaceOnUse" color-interpolation-filters="sRGB">
<feFlood flood-opacity="0" result="BackgroundImageFix"/>
<feColorMatrix in="SourceAlpha" type="matrix" values="0 0 0 0 0 0 0 0 0 0 0 0 0 0 0 0 0 0 127 0"/>
<feOffset dy="3.31983"/>
<feGaussianBlur stdDeviation="3.31983"/>
<feColorMatrix type="matrix" values="0 0 0 0 0.104167 0 0 0 0 0.4625 0 0 0 0 1 0 0 0 0.15 0"/>
<feBlend mode="normal" in2="BackgroundImageFix" result="effect1_dropShadow"/>
<feBlend mode="normal" in="SourceGraphic" in2="effect1_dropShadow" result="shape"/>
</filter>
<filter id="filter4_d" x="362.166" y="339.42" width="29.6956" height="81.216" filterUnits="userSpaceOnUse" color-interpolation-filters="sRGB">
<feFlood flood-opacity="0" result="BackgroundImageFix"/>
<feColorMatrix in="SourceAlpha" type="matrix" values="0 0 0 0 0 0 0 0 0 0 0 0 0 0 0 0 0 0 127 0"/>
<feOffset dy="3.31983"/>
<feGaussianBlur stdDeviation="3.31983"/>
<feColorMatrix type="matrix" values="0 0 0 0 0.104167 0 0 0 0 0.4625 0 0 0 0 1 0 0 0 0.15 0"/>
<feBlend mode="normal" in2="BackgroundImageFix" result="effect1_dropShadow"/>
<feBlend mode="normal" in="SourceGraphic" in2="effect1_dropShadow" result="shape"/>
</filter>
<filter id="filter5_d" x="385.433" y="325.105" width="30.38" height="94.2761" filterUnits="userSpaceOnUse" color-interpolation-filters="sRGB">
<feFlood flood-opacity="0" result="BackgroundImageFix"/>
<feColorMatrix in="SourceAlpha" type="matrix" values="0 0 0 0 0 0 0 0 0 0 0 0 0 0 0 0 0 0 127 0"/>
<feOffset dy="3.31983"/>
<feGaussianBlur stdDeviation="3.31983"/>
<feColorMatrix type="matrix" values="0 0 0 0 0.104167 0 0 0 0 0.4625 0 0 0 0 1 0 0 0 0.15 0"/>
<feBlend mode="normal" in2="BackgroundImageFix" result="effect1_dropShadow"/>
<feBlend mode="normal" in="SourceGraphic" in2="effect1_dropShadow" result="shape"/>
</filter>
<filter id="filter6_d" x="408.889" y="314.447" width="30.8728" height="103.679" filterUnits="userSpaceOnUse" color-interpolation-filters="sRGB">
<feFlood flood-opacity="0" result="BackgroundImageFix"/>
<feColorMatrix in="SourceAlpha" type="matrix" values="0 0 0 0 0 0 0 0 0 0 0 0 0 0 0 0 0 0 127 0"/>
<feOffset dy="3.31983"/>
<feGaussianBlur stdDeviation="3.31983"/>
<feColorMatrix type="matrix" values="0 0 0 0 0.104167 0 0 0 0 0.4625 0 0 0 0 1 0 0 0 0.15 0"/>
<feBlend mode="normal" in2="BackgroundImageFix" result="effect1_dropShadow"/>
<feBlend mode="normal" in="SourceGraphic" in2="effect1_dropShadow" result="shape"/>
</filter>
<filter id="filter7_d" x="432.497" y="306.651" width="31.2156" height="110.22" filterUnits="userSpaceOnUse" color-interpolation-filters="sRGB">
<feFlood flood-opacity="0" result="BackgroundImageFix"/>
<feColorMatrix in="SourceAlpha" type="matrix" values="0 0 0 0 0 0 0 0 0 0 0 0 0 0 0 0 0 0 127 0"/>
<feOffset dy="3.31983"/>
<feGaussianBlur stdDeviation="3.31983"/>
<feColorMatrix type="matrix" values="0 0 0 0 0.104167 0 0 0 0 0.4625 0 0 0 0 1 0 0 0 0.15 0"/>
<feBlend mode="normal" in2="BackgroundImageFix" result="effect1_dropShadow"/>
<feBlend mode="normal" in="SourceGraphic" in2="effect1_dropShadow" result="shape"/>
</filter>
<filter id="filter8_d" x="455.964" y="296.169" width="31.6991" height="119.447" filterUnits="userSpaceOnUse" color-interpolation-filters="sRGB">
<feFlood flood-opacity="0" result="BackgroundImageFix"/>
<feColorMatrix in="SourceAlpha" type="matrix" values="0 0 0 0 0 0 0 0 0 0 0 0 0 0 0 0 0 0 127 0"/>
<feOffset dy="3.31983"/>
<feGaussianBlur stdDeviation="3.31983"/>
<feColorMatrix type="matrix" values="0 0 0 0 0.470588 0 0 0 0 0.172549 0 0 0 0 0.894118 0 0 0 0.23 0"/>
<feBlend mode="normal" in2="BackgroundImageFix" result="effect1_dropShadow"/>
<feBlend mode="normal" in="SourceGraphic" in2="effect1_dropShadow" result="shape"/>
</filter>
<filter id="filter9_d" x="297.398" y="102.794" width="70.2" height="82.6667" filterUnits="userSpaceOnUse" color-interpolation-filters="sRGB">
<feFlood flood-opacity="0" result="BackgroundImageFix"/>
<feColorMatrix in="SourceAlpha" type="matrix" values="0 0 0 0 0 0 0 0 0 0 0 0 0 0 0 0 0 0 127 0"/>
<feOffset dy="4.3004"/>
<feGaussianBlur stdDeviation="2.1502"/>
<feColorMatrix type="matrix" values="0 0 0 0 0.470588 0 0 0 0 0.172549 0 0 0 0 0.894118 0 0 0 0.16 0"/>
<feBlend mode="normal" in2="BackgroundImageFix" result="effect1_dropShadow"/>
<feBlend mode="normal" in="SourceGraphic" in2="effect1_dropShadow" result="shape"/>
</filter>
<filter id="filter10_d" x="306.951" y="155.627" width="55.8211" height="42.1845" filterUnits="userSpaceOnUse" color-interpolation-filters="sRGB">
<feFlood flood-opacity="0" result="BackgroundImageFix"/>
<feColorMatrix in="SourceAlpha" type="matrix" values="0 0 0 0 0 0 0 0 0 0 0 0 0 0 0 0 0 0 127 0"/>
<feOffset dy="2.1502"/>
<feGaussianBlur stdDeviation="3.76285"/>
<feColorMatrix type="matrix" values="0 0 0 0 1 0 0 0 0 0.80475 0 0 0 0 0.1125 0 0 0 0.12 0"/>
<feBlend mode="normal" in2="BackgroundImageFix" result="effect1_dropShadow"/>
<feBlend mode="normal" in="SourceGraphic" in2="effect1_dropShadow" result="shape"/>
</filter>
<filter id="filter11_d" x="272.529" y="104.958" width="60.9074" height="92.5215" filterUnits="userSpaceOnUse" color-interpolation-filters="sRGB">
<feFlood flood-opacity="0" result="BackgroundImageFix"/>
<feColorMatrix in="SourceAlpha" type="matrix" values="0 0 0 0 0 0 0 0 0 0 0 0 0 0 0 0 0 0 127 0"/>
<feOffset dy="3.2253"/>
<feGaussianBlur stdDeviation="2.1502"/>
<feColorMatrix type="matrix" values="0 0 0 0 0.104167 0 0 0 0 0.4625 0 0 0 0 1 0 0 0 0.18 0"/>
<feBlend mode="normal" in2="BackgroundImageFix" result="effect1_dropShadow"/>
<feBlend mode="normal" in="SourceGraphic" in2="effect1_dropShadow" result="shape"/>
</filter>
<filter id="filter12_d" x="366.413" y="0.483053" width="452.113" height="525.848" filterUnits="userSpaceOnUse" color-interpolation-filters="sRGB">
<feFlood flood-opacity="0" result="BackgroundImageFix"/>
<feColorMatrix in="SourceAlpha" type="matrix" values="0 0 0 0 0 0 0 0 0 0 0 0 0 0 0 0 0 0 127 0"/>
<feOffset dy="3.40667"/>
<feGaussianBlur stdDeviation="28.9567"/>
<feColorMatrix type="matrix" values="0 0 0 0 0.121042 0 0 0 0 0.143938 0 0 0 0 0.35 0 0 0 0.27 0"/>
<feBlend mode="normal" in2="BackgroundImageFix" result="effect1_dropShadow"/>
<feBlend mode="normal" in="SourceGraphic" in2="effect1_dropShadow" result="shape"/>
</filter>
<filter id="filter13_d" x="466.124" y="185.346" width="229.544" height="231.91" filterUnits="userSpaceOnUse" color-interpolation-filters="sRGB">
<feFlood flood-opacity="0" result="BackgroundImageFix"/>
<feColorMatrix in="SourceAlpha" type="matrix" values="0 0 0 0 0 0 0 0 0 0 0 0 0 0 0 0 0 0 127 0"/>
<feOffset dy="6.81334"/>
<feGaussianBlur stdDeviation="3.40667"/>
<feColorMatrix type="matrix" values="0 0 0 0 0.104167 0 0 0 0 0.4625 0 0 0 0 1 0 0 0 0.22 0"/>
<feBlend mode="normal" in2="BackgroundImageFix" result="effect1_dropShadow"/>
<feBlend mode="normal" in="SourceGraphic" in2="effect1_dropShadow" result="shape"/>
</filter>
<filter id="filter14_d" x="523.663" y="94.6465" width="196.513" height="67.5616" filterUnits="userSpaceOnUse" color-interpolation-filters="sRGB">
<feFlood flood-opacity="0" result="BackgroundImageFix"/>
<feColorMatrix in="SourceAlpha" type="matrix" values="0 0 0 0 0 0 0 0 0 0 0 0 0 0 0 0 0 0 127 0"/>
<feOffset dy="3.31983"/>
<feGaussianBlur stdDeviation="3.31983"/>
<feColorMatrix type="matrix" values="0 0 0 0 0.104167 0 0 0 0 0.4625 0 0 0 0 1 0 0 0 0.13 0"/>
<feBlend mode="normal" in2="BackgroundImageFix" result="effect1_dropShadow"/>
<feBlend mode="normal" in="SourceGraphic" in2="effect1_dropShadow" result="shape"/>
</filter>
</defs>
</svg>
