<svg width="94" height="98" viewBox="0 0 94 98" fill="none" xmlns="http://www.w3.org/2000/svg">
<rect opacity="0.06" width="94" height="94" rx="26" fill="#F4263E"/>
<g filter="url(#filter0_d)">
<path d="M20.9423 30.6488C20.9152 30.6353 20.8882 30.6623 20.9085 30.6826L41.3766 58.6953C41.3766 58.702 41.3902 58.7088 41.3969 58.7088H53.1568C53.1636 58.7088 53.1771 58.702 53.1771 58.6953L73.6453 30.6826C73.6589 30.6623 73.6386 30.6285 73.6115 30.642" fill="#F4263E"/>
<path d="M52.7706 68.52L43.697 77.6004C42.8444 78.453 41.3896 77.8508 41.3896 76.6464V58.702H53.1699V67.5659C53.1631 67.9246 53.021 68.2696 52.7706 68.52Z" fill="#D8162C"/>
<path d="M75.5463 28.0708C75.5463 31.975 62.8933 35.1417 47.2698 35.1417C31.6598 35.1417 19 31.975 19 28.0708C19 24.1666 31.6598 21 47.2765 21C62.8933 21 75.5463 24.1666 75.5463 28.0708Z" fill="#D8162C"/>
</g>
<defs>
<filter id="filter0_d" x="5" y="13" width="84.5463" height="85" filterUnits="userSpaceOnUse" color-interpolation-filters="sRGB">
<feFlood flood-opacity="0" result="BackgroundImageFix"/>
<feColorMatrix in="SourceAlpha" type="matrix" values="0 0 0 0 0 0 0 0 0 0 0 0 0 0 0 0 0 0 127 0"/>
<feOffset dy="6"/>
<feGaussianBlur stdDeviation="7"/>
<feColorMatrix type="matrix" values="0 0 0 0 0.956863 0 0 0 0 0.14902 0 0 0 0 0.243137 0 0 0 0.35 0"/>
<feBlend mode="normal" in2="BackgroundImageFix" result="effect1_dropShadow"/>
<feBlend mode="normal" in="SourceGraphic" in2="effect1_dropShadow" result="shape"/>
</filter>
</defs>
</svg>
