<svg width="160" height="168" viewBox="0 0 160 168" fill="none" xmlns="http://www.w3.org/2000/svg">
<rect opacity="0.07" width="160" height="160" rx="48" fill="#FFCD1D"/>
<g filter="url(#filter0_d)">
<rect x="38" y="23" width="84.7151" height="115" rx="11.6499" fill="white"/>
</g>
<g filter="url(#filter1_d)">
<path d="M48.7173 115.639C51.1028 115.639 53.0366 113.705 53.0366 111.319C53.0366 108.934 51.1028 107 48.7173 107C46.3318 107 44.3979 108.934 44.3979 111.319C44.3979 113.705 46.3318 115.639 48.7173 115.639Z" fill="#F4263E"/>
</g>
<rect x="60.1777" y="37.8613" width="37.1708" height="5.82495" rx="2.91248" fill="#E7E8F1"/>
<rect x="44.3979" y="120.105" width="60.4656" height="5.82495" rx="2.91248" fill="#E7E8F1"/>
<g filter="url(#filter2_d)">
<rect x="44.3979" y="52.7363" width="71.9186" height="49.8381" rx="8.73743" fill="#FFCD1D"/>
</g>
<g filter="url(#filter3_d)">
<path d="M90.4589 73.9517C90.2243 73.4335 89.859 72.9851 89.3987 72.6509C88.9384 72.3166 88.3991 72.1078 87.8337 72.045C87.2766 72.0401 86.7285 72.1862 86.2477 72.4677C85.7669 72.7491 85.3712 73.1556 85.1028 73.6438L85.0872 73.6687L79.9862 82.3964C79.9259 82.4996 79.8426 82.5876 79.7428 82.6534C79.643 82.7192 79.5294 82.7611 79.4108 82.7759C79.2923 82.7895 79.1723 82.7762 79.0597 82.7369C78.9471 82.6976 78.8449 82.6333 78.7607 82.5488L73.4979 77.2145C73.4732 77.1883 73.4461 77.1644 73.4171 77.143C73.0892 76.8884 72.7093 76.7091 72.3044 76.6177C71.8995 76.5263 71.4795 76.525 71.074 76.6141C70.6686 76.7031 70.2877 76.8802 69.9584 77.1329C69.629 77.3856 69.3593 77.7076 69.1683 78.0761L69.1496 78.1072L61.5572 91.0775C61.4882 91.1957 61.4516 91.33 61.4512 91.4668C61.4507 91.6036 61.4864 91.7381 61.5545 91.8567C61.6227 91.9754 61.7209 92.0739 61.8393 92.1425C61.9578 92.211 62.0922 92.247 62.229 92.247H98.4868C98.6197 92.2473 98.7506 92.2134 98.8666 92.1486C98.9827 92.0837 99.0801 91.99 99.1495 91.8766C99.2188 91.7632 99.2578 91.6338 99.2627 91.5009C99.2676 91.368 99.2382 91.2361 99.1773 91.1179L90.4589 73.9517Z" fill="white"/>
</g>
<g filter="url(#filter4_d)">
<path d="M67.1265 72.3937C69.7032 72.3937 71.7921 70.3048 71.7921 67.7281C71.7921 65.1514 69.7032 63.0625 67.1265 63.0625C64.5498 63.0625 62.4609 65.1514 62.4609 67.7281C62.4609 70.3048 64.5498 72.3937 67.1265 72.3937Z" fill="#FF961B"/>
</g>
<g filter="url(#filter5_d)">
<circle cx="50.1036" cy="40.7738" r="5.70539" fill="#1B76FF"/>
</g>
<g filter="url(#filter6_dd)">
<circle cx="121.445" cy="38.4446" r="16.8293" fill="white"/>
<path d="M121.445 18C110.154 18 101 27.1544 101 38.4453C101 49.7362 110.154 58.8906 121.445 58.8906C132.736 58.8906 141.891 49.7362 141.891 38.4453C141.891 27.1544 132.736 18 121.445 18ZM128.665 44.2875C128.665 50.2371 123.779 51.0396 122.915 51.1469V54.546H120.354V51.1469C119.557 51.037 114.192 50.4492 114.192 43.0583H119.023C119.023 47.4233 121.274 47.2419 121.617 47.2419C121.992 47.2419 123.835 47.1729 123.835 44.3208C123.835 38.6242 114.995 41.1517 114.995 32.6133C114.995 26.7608 119.845 25.8484 120.712 25.7385V22.0891H123.288V25.8101C124.108 25.966 128.698 27.0138 128.698 33.7275H123.868C123.868 30.2186 122.378 29.6666 121.752 29.6666C121.41 29.6666 119.822 29.756 119.822 32.6363C119.825 37.6633 128.665 36.0966 128.665 44.2875Z" fill="#FFCD1D"/>
</g>
<defs>
<filter id="filter0_d" x="17.6127" y="11.3501" width="125.49" height="155.775" filterUnits="userSpaceOnUse" color-interpolation-filters="sRGB">
<feFlood flood-opacity="0" result="BackgroundImageFix"/>
<feColorMatrix in="SourceAlpha" type="matrix" values="0 0 0 0 0 0 0 0 0 0 0 0 0 0 0 0 0 0 127 0"/>
<feOffset dy="8.73743"/>
<feGaussianBlur stdDeviation="10.1937"/>
<feColorMatrix type="matrix" values="0 0 0 0 0.104167 0 0 0 0 0.4625 0 0 0 0 1 0 0 0 0.15 0"/>
<feBlend mode="normal" in2="BackgroundImageFix" result="effect1_dropShadow"/>
<feBlend mode="normal" in="SourceGraphic" in2="effect1_dropShadow" result="shape"/>
</filter>
<filter id="filter1_d" x="40.0292" y="104.088" width="17.3761" height="17.3761" filterUnits="userSpaceOnUse" color-interpolation-filters="sRGB">
<feFlood flood-opacity="0" result="BackgroundImageFix"/>
<feColorMatrix in="SourceAlpha" type="matrix" values="0 0 0 0 0 0 0 0 0 0 0 0 0 0 0 0 0 0 127 0"/>
<feOffset dy="1.45624"/>
<feGaussianBlur stdDeviation="2.18436"/>
<feColorMatrix type="matrix" values="0 0 0 0 0.956863 0 0 0 0 0.14902 0 0 0 0 0.243137 0 0 0 0.19 0"/>
<feBlend mode="normal" in2="BackgroundImageFix" result="effect1_dropShadow"/>
<feBlend mode="normal" in="SourceGraphic" in2="effect1_dropShadow" result="shape"/>
</filter>
<filter id="filter2_d" x="38.573" y="49.8239" width="83.5685" height="61.488" filterUnits="userSpaceOnUse" color-interpolation-filters="sRGB">
<feFlood flood-opacity="0" result="BackgroundImageFix"/>
<feColorMatrix in="SourceAlpha" type="matrix" values="0 0 0 0 0 0 0 0 0 0 0 0 0 0 0 0 0 0 127 0"/>
<feOffset dy="2.91248"/>
<feGaussianBlur stdDeviation="2.91248"/>
<feColorMatrix type="matrix" values="0 0 0 0 1 0 0 0 0 0.80475 0 0 0 0 0.1125 0 0 0 0.15 0"/>
<feBlend mode="normal" in2="BackgroundImageFix" result="effect1_dropShadow"/>
<feBlend mode="normal" in="SourceGraphic" in2="effect1_dropShadow" result="shape"/>
</filter>
<filter id="filter3_d" x="55.6262" y="69.1324" width="49.462" height="31.852" filterUnits="userSpaceOnUse" color-interpolation-filters="sRGB">
<feFlood flood-opacity="0" result="BackgroundImageFix"/>
<feColorMatrix in="SourceAlpha" type="matrix" values="0 0 0 0 0 0 0 0 0 0 0 0 0 0 0 0 0 0 127 0"/>
<feOffset dy="2.91248"/>
<feGaussianBlur stdDeviation="2.91248"/>
<feColorMatrix type="matrix" values="0 0 0 0 1 0 0 0 0 0.587917 0 0 0 0 0.104167 0 0 0 0.42 0"/>
<feBlend mode="normal" in2="BackgroundImageFix" result="effect1_dropShadow"/>
<feBlend mode="normal" in="SourceGraphic" in2="effect1_dropShadow" result="shape"/>
</filter>
<filter id="filter4_d" x="58.0922" y="60.15" width="18.0686" height="18.0686" filterUnits="userSpaceOnUse" color-interpolation-filters="sRGB">
<feFlood flood-opacity="0" result="BackgroundImageFix"/>
<feColorMatrix in="SourceAlpha" type="matrix" values="0 0 0 0 0 0 0 0 0 0 0 0 0 0 0 0 0 0 127 0"/>
<feOffset dy="1.45624"/>
<feGaussianBlur stdDeviation="2.18436"/>
<feColorMatrix type="matrix" values="0 0 0 0 0.520833 0 0 0 0 0.212413 0 0 0 0 0.115017 0 0 0 0.18 0"/>
<feBlend mode="normal" in2="BackgroundImageFix" result="effect1_dropShadow"/>
<feBlend mode="normal" in="SourceGraphic" in2="effect1_dropShadow" result="shape"/>
</filter>
<filter id="filter5_d" x="40.0295" y="32.1559" width="20.1482" height="20.1482" filterUnits="userSpaceOnUse" color-interpolation-filters="sRGB">
<feFlood flood-opacity="0" result="BackgroundImageFix"/>
<feColorMatrix in="SourceAlpha" type="matrix" values="0 0 0 0 0 0 0 0 0 0 0 0 0 0 0 0 0 0 127 0"/>
<feOffset dy="1.45624"/>
<feGaussianBlur stdDeviation="2.18436"/>
<feColorMatrix type="matrix" values="0 0 0 0 0.104167 0 0 0 0 0.4625 0 0 0 0 1 0 0 0 0.38 0"/>
<feBlend mode="normal" in2="BackgroundImageFix" result="effect1_dropShadow"/>
<feBlend mode="normal" in="SourceGraphic" in2="effect1_dropShadow" result="shape"/>
</filter>
<filter id="filter6_dd" x="94" y="13" width="54.8906" height="57.4306" filterUnits="userSpaceOnUse" color-interpolation-filters="sRGB">
<feFlood flood-opacity="0" result="BackgroundImageFix"/>
<feColorMatrix in="SourceAlpha" type="matrix" values="0 0 0 0 0 0 0 0 0 0 0 0 0 0 0 0 0 0 127 0"/>
<feOffset dy="5.18"/>
<feGaussianBlur stdDeviation="3.18"/>
<feColorMatrix type="matrix" values="0 0 0 0 1 0 0 0 0 0.80475 0 0 0 0 0.1125 0 0 0 0.45 0"/>
<feBlend mode="normal" in2="BackgroundImageFix" result="effect1_dropShadow"/>
<feColorMatrix in="SourceAlpha" type="matrix" values="0 0 0 0 0 0 0 0 0 0 0 0 0 0 0 0 0 0 127 0"/>
<feOffset dy="2"/>
<feGaussianBlur stdDeviation="3.5"/>
<feColorMatrix type="matrix" values="0 0 0 0 0.121042 0 0 0 0 0.143938 0 0 0 0 0.35 0 0 0 0.08 0"/>
<feBlend mode="normal" in2="effect1_dropShadow" result="effect2_dropShadow"/>
<feBlend mode="normal" in="SourceGraphic" in2="effect2_dropShadow" result="shape"/>
</filter>
</defs>
</svg>
