<svg width="224" height="175" viewBox="0 0 224 175" fill="none" xmlns="http://www.w3.org/2000/svg">
<g filter="url(#filter0_d)">
<path d="M213.081 116.845V103.273H199.51" stroke="#1B76FF" stroke-width="4" stroke-linecap="round" stroke-linejoin="round"/>
<path d="M213.081 103.273L197.119 119.236C196.839 119.516 196.507 119.738 196.141 119.89C195.774 120.042 195.382 120.12 194.986 120.12C194.59 120.12 194.197 120.042 193.831 119.89C193.465 119.738 193.133 119.516 192.853 119.236L186.564 112.946C186.283 112.666 185.951 112.444 185.585 112.292C185.219 112.141 184.826 112.062 184.43 112.062C184.034 112.062 183.642 112.141 183.276 112.292C182.91 112.444 182.577 112.666 182.297 112.946L167.843 127.401" stroke="#1B76FF" stroke-width="4" stroke-linecap="round" stroke-linejoin="round"/>
</g>
<rect opacity="0.08" x="33.7598" y="15" width="156" height="156" rx="42" fill="#F4263E"/>
<g filter="url(#filter1_d)">
<path d="M8 123.607C47.838 123.607 27.0136 77.4308 84.0544 98.2553C141.095 119.08 133.291 57.009 160.938 75.5151C188.585 94.0212 193.791 54.527 215.521 50" stroke="#782CE4" stroke-width="5" stroke-linecap="round"/>
</g>
<g filter="url(#filter2_d)">
<path d="M62.6953 74.8315H160.824V136.77C160.824 140.229 158.019 143.034 154.56 143.034H68.9588C65.4996 143.034 62.6953 140.229 62.6953 136.77V74.8315Z" fill="#F4263E"/>
</g>
<path d="M160.824 74.8315L113.746 42.1102C112.551 41.2803 110.968 41.2803 109.773 42.1102L62.6953 74.8315H160.824Z" fill="#F4263E"/>
<path d="M62.6953 74.8315L110.965 108.381C111.443 108.713 112.076 108.713 112.554 108.381L160.824 74.8315H62.6953Z" fill="#C6182C"/>
<g filter="url(#filter3_d)">
<path d="M74.6064 34.0782C74.6064 30.7024 77.3432 27.9658 80.7191 27.9658H142.367C145.742 27.9658 148.479 30.7024 148.479 34.0782V83.3927L111.238 109.292L74.6064 83.0651V34.0782Z" fill="white"/>
</g>
<g filter="url(#filter4_d)">
<path d="M82.1551 52.0761C81.4892 49.8173 81.5756 47.4033 82.4014 45.1979C83.2271 42.9925 84.7474 41.1153 86.733 39.8493C88.7187 38.5832 91.0621 37.997 93.4099 38.1789C95.7578 38.3609 97.9829 39.3011 99.7498 40.8579" stroke="#1B76FF" stroke-width="3.84653" stroke-linecap="round"/>
</g>
<g filter="url(#filter5_d)">
<path d="M99.7445 40.8532C100.906 41.8753 101.836 43.1337 102.471 44.5443C103.107 45.9548 103.434 47.4849 103.43 49.032" stroke="#FFCD1D" stroke-width="3.84653" stroke-linecap="round"/>
</g>
<g filter="url(#filter6_d)">
<path d="M103.43 49.0056C103.43 51.6169 102.489 54.1408 100.779 56.1147C99.0699 58.0887 96.7062 59.3805 94.1216 59.7534C91.5371 60.1263 88.9047 59.5553 86.7068 58.1451C84.509 56.7349 82.8929 54.5799 82.1548 52.0751" stroke="#782CE4" stroke-width="3.84653" stroke-linecap="round"/>
</g>
<g filter="url(#filter7_d)">
<path d="M81.7129 83.7583C94.5764 83.7583 95.2397 71.8096 104.887 70.9561C114.535 70.1026 117.751 78.1054 127.983 78.1054C138.216 78.1054 134.843 68.6284 141.139 68.6284" stroke="#FFCD1D" stroke-width="2.29693" stroke-linecap="round"/>
</g>
<g filter="url(#filter8_d)">
<path d="M81.7119 83.7584C94.5632 83.7584 92.6631 76.162 105.668 79.9602C118.672 83.7584 116.896 72.511 124.49 71.3731C132.084 70.2351 134.363 78.0637 141.373 77.251" stroke="#1B76FF" stroke-width="2.29693" stroke-linecap="round"/>
</g>
<g filter="url(#filter9_d)">
<rect x="112.21" y="35.2051" width="6.03287" height="6.03287" rx="1.71722" fill="#782CE4"/>
</g>
<g filter="url(#filter10_d)">
<rect x="112.21" y="44.8579" width="6.03287" height="6.03287" rx="1.71722" fill="#FFCD1D"/>
</g>
<g filter="url(#filter11_d)">
<rect x="112.21" y="54.5103" width="6.03287" height="6.03287" rx="1.71722" fill="#1B76FF"/>
</g>
<rect opacity="0.5" x="120.883" y="37.0903" width="21.4921" height="2.26233" rx="1.03033" fill="#BEBFCC"/>
<rect opacity="0.5" x="120.883" y="46.7427" width="16.4463" height="2.26233" rx="1.03033" fill="#BEBFCC"/>
<rect opacity="0.5" x="120.883" y="56.3955" width="19.6673" height="2.26233" rx="1.03033" fill="#BEBFCC"/>
<path d="M150.561 133.987L112.713 104.38C111.952 103.785 110.882 103.79 110.126 104.392L72.9629 133.987" stroke="#C6182C" stroke-width="4.39604" stroke-linecap="round"/>
<path d="M116.898 110.452L111.44 106.146L106.183 110.328L116.898 110.452Z" fill="#F4263E"/>
<g filter="url(#filter12_d)">
<rect x="18.0996" y="42.5308" width="50.2187" height="49.1997" rx="12.2882" fill="white"/>
</g>
<g filter="url(#filter13_d)">
<rect x="27.6445" y="58.6577" width="7.3089" height="25.3227" rx="3.65445" fill="#F4263E"/>
</g>
<g filter="url(#filter14_d)">
<rect x="39.5547" y="64.4702" width="7.3089" height="19.5107" rx="3.65445" fill="#FF961B"/>
</g>
<g filter="url(#filter15_d)">
<rect x="51.4648" y="50.8906" width="7.3089" height="33.09" rx="3.65445" fill="#782CE4"/>
</g>
<defs>
<filter id="filter0_d" x="159.843" y="100.273" width="61.2386" height="40.1273" filterUnits="userSpaceOnUse" color-interpolation-filters="sRGB">
<feFlood flood-opacity="0" result="BackgroundImageFix"/>
<feColorMatrix in="SourceAlpha" type="matrix" values="0 0 0 0 0 0 0 0 0 0 0 0 0 0 0 0 0 0 127 0"/>
<feOffset dy="5"/>
<feGaussianBlur stdDeviation="3"/>
<feColorMatrix type="matrix" values="0 0 0 0 0.104167 0 0 0 0 0.4625 0 0 0 0 1 0 0 0 0.22 0"/>
<feBlend mode="normal" in2="BackgroundImageFix" result="effect1_dropShadow"/>
<feBlend mode="normal" in="SourceGraphic" in2="effect1_dropShadow" result="shape"/>
</filter>
<filter id="filter1_d" x="0.5" y="44.4995" width="222.522" height="88.6072" filterUnits="userSpaceOnUse" color-interpolation-filters="sRGB">
<feFlood flood-opacity="0" result="BackgroundImageFix"/>
<feColorMatrix in="SourceAlpha" type="matrix" values="0 0 0 0 0 0 0 0 0 0 0 0 0 0 0 0 0 0 127 0"/>
<feOffset dy="2"/>
<feGaussianBlur stdDeviation="2.5"/>
<feColorMatrix type="matrix" values="0 0 0 0 0.470588 0 0 0 0 0.172549 0 0 0 0 0.894118 0 0 0 0.21 0"/>
<feBlend mode="normal" in2="BackgroundImageFix" result="effect1_dropShadow"/>
<feBlend mode="normal" in="SourceGraphic" in2="effect1_dropShadow" result="shape"/>
</filter>
<filter id="filter2_d" x="46.2102" y="73.7325" width="131.099" height="101.173" filterUnits="userSpaceOnUse" color-interpolation-filters="sRGB">
<feFlood flood-opacity="0" result="BackgroundImageFix"/>
<feColorMatrix in="SourceAlpha" type="matrix" values="0 0 0 0 0 0 0 0 0 0 0 0 0 0 0 0 0 0 127 0"/>
<feOffset dy="15.3861"/>
<feGaussianBlur stdDeviation="8.24257"/>
<feColorMatrix type="matrix" values="0 0 0 0 0.956863 0 0 0 0 0.14902 0 0 0 0 0.243137 0 0 0 0.21 0"/>
<feBlend mode="normal" in2="BackgroundImageFix" result="effect1_dropShadow"/>
<feBlend mode="normal" in="SourceGraphic" in2="effect1_dropShadow" result="shape"/>
</filter>
<filter id="filter3_d" x="53.7253" y="0.490586" width="115.635" height="123.088" filterUnits="userSpaceOnUse" color-interpolation-filters="sRGB">
<feFlood flood-opacity="0" result="BackgroundImageFix"/>
<feColorMatrix in="SourceAlpha" type="matrix" values="0 0 0 0 0 0 0 0 0 0 0 0 0 0 0 0 0 0 127 0"/>
<feOffset dy="-6.59406"/>
<feGaussianBlur stdDeviation="10.4406"/>
<feColorMatrix type="matrix" values="0 0 0 0 0.121042 0 0 0 0 0.143938 0 0 0 0 0.35 0 0 0 0.1 0"/>
<feBlend mode="normal" in2="BackgroundImageFix" result="effect1_dropShadow"/>
<feBlend mode="normal" in="SourceGraphic" in2="effect1_dropShadow" result="shape"/>
</filter>
<filter id="filter4_d" x="78.6901" y="36.2231" width="24.0825" height="19.9747" filterUnits="userSpaceOnUse" color-interpolation-filters="sRGB">
<feFlood flood-opacity="0" result="BackgroundImageFix"/>
<feColorMatrix in="SourceAlpha" type="matrix" values="0 0 0 0 0 0 0 0 0 0 0 0 0 0 0 0 0 0 127 0"/>
<feOffset dy="1.09901"/>
<feGaussianBlur stdDeviation="0.549505"/>
<feColorMatrix type="matrix" values="0 0 0 0 0.104167 0 0 0 0 0.4625 0 0 0 0 1 0 0 0 0.15 0"/>
<feBlend mode="normal" in2="BackgroundImageFix" result="effect1_dropShadow"/>
<feBlend mode="normal" in="SourceGraphic" in2="effect1_dropShadow" result="shape"/>
</filter>
<filter id="filter5_d" x="95.898" y="37.5564" width="11.3787" height="15.8719" filterUnits="userSpaceOnUse" color-interpolation-filters="sRGB">
<feFlood flood-opacity="0" result="BackgroundImageFix"/>
<feColorMatrix in="SourceAlpha" type="matrix" values="0 0 0 0 0 0 0 0 0 0 0 0 0 0 0 0 0 0 127 0"/>
<feOffset dy="0.549505"/>
<feGaussianBlur stdDeviation="0.961633"/>
<feColorMatrix type="matrix" values="0 0 0 0 1 0 0 0 0 0.80475 0 0 0 0 0.1125 0 0 0 0.12 0"/>
<feBlend mode="normal" in2="BackgroundImageFix" result="effect1_dropShadow"/>
<feBlend mode="normal" in="SourceGraphic" in2="effect1_dropShadow" result="shape"/>
</filter>
<filter id="filter6_d" x="79.1324" y="46.8078" width="27.3204" height="16.9037" filterUnits="userSpaceOnUse" color-interpolation-filters="sRGB">
<feFlood flood-opacity="0" result="BackgroundImageFix"/>
<feColorMatrix in="SourceAlpha" type="matrix" values="0 0 0 0 0 0 0 0 0 0 0 0 0 0 0 0 0 0 127 0"/>
<feOffset dy="0.824257"/>
<feGaussianBlur stdDeviation="0.549505"/>
<feColorMatrix type="matrix" values="0 0 0 0 0.470588 0 0 0 0 0.172549 0 0 0 0 0.894118 0 0 0 0.15 0"/>
<feBlend mode="normal" in2="BackgroundImageFix" result="effect1_dropShadow"/>
<feBlend mode="normal" in="SourceGraphic" in2="effect1_dropShadow" result="shape"/>
</filter>
<filter id="filter7_d" x="79.0665" y="66.8808" width="64.7191" height="20.4227" filterUnits="userSpaceOnUse" color-interpolation-filters="sRGB">
<feFlood flood-opacity="0" result="BackgroundImageFix"/>
<feColorMatrix in="SourceAlpha" type="matrix" values="0 0 0 0 0 0 0 0 0 0 0 0 0 0 0 0 0 0 127 0"/>
<feOffset dy="0.898773"/>
<feGaussianBlur stdDeviation="0.748978"/>
<feColorMatrix type="matrix" values="0 0 0 0 1 0 0 0 0 0.80475 0 0 0 0 0.1125 0 0 0 0.28 0"/>
<feBlend mode="normal" in2="BackgroundImageFix" result="effect1_dropShadow"/>
<feBlend mode="normal" in="SourceGraphic" in2="effect1_dropShadow" result="shape"/>
</filter>
<filter id="filter8_d" x="79.0655" y="69.2126" width="64.9541" height="17.7914" filterUnits="userSpaceOnUse" color-interpolation-filters="sRGB">
<feFlood flood-opacity="0" result="BackgroundImageFix"/>
<feColorMatrix in="SourceAlpha" type="matrix" values="0 0 0 0 0 0 0 0 0 0 0 0 0 0 0 0 0 0 127 0"/>
<feOffset dy="0.599182"/>
<feGaussianBlur stdDeviation="0.748978"/>
<feColorMatrix type="matrix" values="0 0 0 0 0.104167 0 0 0 0 0.4625 0 0 0 0 1 0 0 0 0.2 0"/>
<feBlend mode="normal" in2="BackgroundImageFix" result="effect1_dropShadow"/>
<feBlend mode="normal" in="SourceGraphic" in2="effect1_dropShadow" result="shape"/>
</filter>
<filter id="filter9_d" x="110.836" y="34.8616" width="8.78042" height="8.78042" filterUnits="userSpaceOnUse" color-interpolation-filters="sRGB">
<feFlood flood-opacity="0" result="BackgroundImageFix"/>
<feColorMatrix in="SourceAlpha" type="matrix" values="0 0 0 0 0 0 0 0 0 0 0 0 0 0 0 0 0 0 127 0"/>
<feOffset dy="1.03033"/>
<feGaussianBlur stdDeviation="0.686887"/>
<feColorMatrix type="matrix" values="0 0 0 0 0.470588 0 0 0 0 0.172549 0 0 0 0 0.894118 0 0 0 0.25 0"/>
<feBlend mode="normal" in2="BackgroundImageFix" result="effect1_dropShadow"/>
<feBlend mode="normal" in="SourceGraphic" in2="effect1_dropShadow" result="shape"/>
</filter>
<filter id="filter10_d" x="110.836" y="44.5145" width="8.78042" height="8.78042" filterUnits="userSpaceOnUse" color-interpolation-filters="sRGB">
<feFlood flood-opacity="0" result="BackgroundImageFix"/>
<feColorMatrix in="SourceAlpha" type="matrix" values="0 0 0 0 0 0 0 0 0 0 0 0 0 0 0 0 0 0 127 0"/>
<feOffset dy="1.03033"/>
<feGaussianBlur stdDeviation="0.686887"/>
<feColorMatrix type="matrix" values="0 0 0 0 1 0 0 0 0 0.80475 0 0 0 0 0.1125 0 0 0 0.25 0"/>
<feBlend mode="normal" in2="BackgroundImageFix" result="effect1_dropShadow"/>
<feBlend mode="normal" in="SourceGraphic" in2="effect1_dropShadow" result="shape"/>
</filter>
<filter id="filter11_d" x="110.836" y="54.1668" width="8.78042" height="8.78042" filterUnits="userSpaceOnUse" color-interpolation-filters="sRGB">
<feFlood flood-opacity="0" result="BackgroundImageFix"/>
<feColorMatrix in="SourceAlpha" type="matrix" values="0 0 0 0 0 0 0 0 0 0 0 0 0 0 0 0 0 0 127 0"/>
<feOffset dy="1.03033"/>
<feGaussianBlur stdDeviation="0.686887"/>
<feColorMatrix type="matrix" values="0 0 0 0 0.104167 0 0 0 0 0.4625 0 0 0 0 1 0 0 0 0.18 0"/>
<feBlend mode="normal" in2="BackgroundImageFix" result="effect1_dropShadow"/>
<feBlend mode="normal" in="SourceGraphic" in2="effect1_dropShadow" result="shape"/>
</filter>
<filter id="filter12_d" x="9.90745" y="36.6792" width="66.603" height="65.5841" filterUnits="userSpaceOnUse" color-interpolation-filters="sRGB">
<feFlood flood-opacity="0" result="BackgroundImageFix"/>
<feColorMatrix in="SourceAlpha" type="matrix" values="0 0 0 0 0 0 0 0 0 0 0 0 0 0 0 0 0 0 127 0"/>
<feOffset dy="2.34062"/>
<feGaussianBlur stdDeviation="4.09608"/>
<feColorMatrix type="matrix" values="0 0 0 0 0.121042 0 0 0 0 0.143938 0 0 0 0 0.35 0 0 0 0.08 0"/>
<feBlend mode="normal" in2="BackgroundImageFix" result="effect1_dropShadow"/>
<feBlend mode="normal" in="SourceGraphic" in2="effect1_dropShadow" result="shape"/>
</filter>
<filter id="filter13_d" x="25.3039" y="58.6577" width="11.9901" height="30.0039" filterUnits="userSpaceOnUse" color-interpolation-filters="sRGB">
<feFlood flood-opacity="0" result="BackgroundImageFix"/>
<feColorMatrix in="SourceAlpha" type="matrix" values="0 0 0 0 0 0 0 0 0 0 0 0 0 0 0 0 0 0 127 0"/>
<feOffset dy="2.34062"/>
<feGaussianBlur stdDeviation="1.17031"/>
<feColorMatrix type="matrix" values="0 0 0 0 0.956863 0 0 0 0 0.14902 0 0 0 0 0.243137 0 0 0 0.12 0"/>
<feBlend mode="normal" in2="BackgroundImageFix" result="effect1_dropShadow"/>
<feBlend mode="normal" in="SourceGraphic" in2="effect1_dropShadow" result="shape"/>
</filter>
<filter id="filter14_d" x="37.2141" y="63.8851" width="11.9901" height="24.1919" filterUnits="userSpaceOnUse" color-interpolation-filters="sRGB">
<feFlood flood-opacity="0" result="BackgroundImageFix"/>
<feColorMatrix in="SourceAlpha" type="matrix" values="0 0 0 0 0 0 0 0 0 0 0 0 0 0 0 0 0 0 127 0"/>
<feOffset dy="1.75546"/>
<feGaussianBlur stdDeviation="1.17031"/>
<feColorMatrix type="matrix" values="0 0 0 0 1 0 0 0 0 0.587917 0 0 0 0 0.104167 0 0 0 0.35 0"/>
<feBlend mode="normal" in2="BackgroundImageFix" result="effect1_dropShadow"/>
<feBlend mode="normal" in="SourceGraphic" in2="effect1_dropShadow" result="shape"/>
</filter>
<filter id="filter15_d" x="49.1242" y="50.8906" width="11.9901" height="37.7713" filterUnits="userSpaceOnUse" color-interpolation-filters="sRGB">
<feFlood flood-opacity="0" result="BackgroundImageFix"/>
<feColorMatrix in="SourceAlpha" type="matrix" values="0 0 0 0 0 0 0 0 0 0 0 0 0 0 0 0 0 0 127 0"/>
<feOffset dy="2.34062"/>
<feGaussianBlur stdDeviation="1.17031"/>
<feColorMatrix type="matrix" values="0 0 0 0 0.470588 0 0 0 0 0.172549 0 0 0 0 0.894118 0 0 0 0.3 0"/>
<feBlend mode="normal" in2="BackgroundImageFix" result="effect1_dropShadow"/>
<feBlend mode="normal" in="SourceGraphic" in2="effect1_dropShadow" result="shape"/>
</filter>
</defs>
</svg>
