<svg width="160" height="160" viewBox="0 0 160 160" fill="none" xmlns="http://www.w3.org/2000/svg">
<rect opacity="0.06" width="160" height="160" rx="48" fill="#F4263E"/>
<g filter="url(#filter0_d)">
<rect x="36.8525" y="33.668" width="79.8527" height="95.7472" rx="8" fill="white"/>
</g>
<g filter="url(#filter1_d)">
<rect x="54.8206" y="54.166" width="9.2576" height="61.1954" rx="4.6288" fill="#FF961B"/>
</g>
<g filter="url(#filter2_d)">
<rect x="72.1501" y="79.9316" width="9.2576" height="35.4289" rx="4.6288" fill="#FFCD1D"/>
</g>
<g filter="url(#filter3_d)">
<rect x="89.4805" y="62.2188" width="9.2576" height="53.1434" rx="4.6288" fill="#FF961B"/>
</g>
<g filter="url(#filter4_d)">
<rect x="96.5" y="97.6465" width="40.4108" height="40.3559" rx="7" fill="white"/>
</g>
<g filter="url(#filter5_d)">
<path d="M124.485 114.973C124.305 114.574 124.023 114.228 123.669 113.971C123.314 113.713 122.899 113.552 122.463 113.504C122.034 113.5 121.612 113.613 121.241 113.83C120.871 114.046 120.566 114.359 120.359 114.736L120.347 114.755L116.418 121.478C116.371 121.558 116.307 121.625 116.23 121.676C116.153 121.727 116.066 121.759 115.974 121.771C115.883 121.781 115.791 121.771 115.704 121.741C115.617 121.71 115.539 121.661 115.474 121.596L111.419 117.486C111.4 117.466 111.38 117.448 111.357 117.431C111.105 117.235 110.812 117.097 110.5 117.027C110.188 116.956 109.865 116.955 109.552 117.024C109.24 117.092 108.946 117.229 108.693 117.423C108.439 117.618 108.231 117.866 108.084 118.15L108.07 118.174L102.221 128.166C102.168 128.257 102.14 128.36 102.139 128.466C102.139 128.571 102.166 128.675 102.219 128.766C102.271 128.857 102.347 128.933 102.438 128.986C102.529 129.039 102.633 129.067 102.738 129.067H130.67C130.772 129.067 130.873 129.041 130.962 128.991C131.052 128.941 131.127 128.869 131.18 128.781C131.234 128.694 131.264 128.594 131.267 128.492C131.271 128.39 131.249 128.288 131.202 128.197L124.485 114.973Z" fill="#F4263E"/>
</g>
<g filter="url(#filter6_d)">
<path d="M106.512 113.772C108.497 113.772 110.106 112.163 110.106 110.178C110.106 108.193 108.497 106.584 106.512 106.584C104.527 106.584 102.917 108.193 102.917 110.178C102.917 112.163 104.527 113.772 106.512 113.772Z" fill="#FFCD1D"/>
</g>
<g filter="url(#filter7_d)">
<circle cx="44" cy="42" r="20" fill="#F4263E"/>
<path d="M40.3473 33.773C39.014 32.9887 37.3333 33.95 37.3333 35.4969V48.5032C37.3333 50.05 39.014 51.0113 40.3473 50.2271L51.4027 43.7241C52.7173 42.9508 52.7173 41.0497 51.4027 40.2764L40.3473 33.773Z" fill="white"/>
</g>
<defs>
<filter id="filter0_d" x="22.8525" y="27.668" width="107.853" height="123.747" filterUnits="userSpaceOnUse" color-interpolation-filters="sRGB">
<feFlood flood-opacity="0" result="BackgroundImageFix"/>
<feColorMatrix in="SourceAlpha" type="matrix" values="0 0 0 0 0 0 0 0 0 0 0 0 0 0 0 0 0 0 127 0"/>
<feOffset dy="8"/>
<feGaussianBlur stdDeviation="7"/>
<feColorMatrix type="matrix" values="0 0 0 0 0.956863 0 0 0 0 0.14902 0 0 0 0 0.243137 0 0 0 0.1 0"/>
<feBlend mode="normal" in2="BackgroundImageFix" result="effect1_dropShadow"/>
<feBlend mode="normal" in="SourceGraphic" in2="effect1_dropShadow" result="shape"/>
</filter>
<filter id="filter1_d" x="50.8206" y="54.166" width="17.2576" height="69.1954" filterUnits="userSpaceOnUse" color-interpolation-filters="sRGB">
<feFlood flood-opacity="0" result="BackgroundImageFix"/>
<feColorMatrix in="SourceAlpha" type="matrix" values="0 0 0 0 0 0 0 0 0 0 0 0 0 0 0 0 0 0 127 0"/>
<feOffset dy="4"/>
<feGaussianBlur stdDeviation="2"/>
<feColorMatrix type="matrix" values="0 0 0 0 1 0 0 0 0 0.587917 0 0 0 0 0.104167 0 0 0 0.15 0"/>
<feBlend mode="normal" in2="BackgroundImageFix" result="effect1_dropShadow"/>
<feBlend mode="normal" in="SourceGraphic" in2="effect1_dropShadow" result="shape"/>
</filter>
<filter id="filter2_d" x="68.1501" y="78.9316" width="17.2576" height="43.4289" filterUnits="userSpaceOnUse" color-interpolation-filters="sRGB">
<feFlood flood-opacity="0" result="BackgroundImageFix"/>
<feColorMatrix in="SourceAlpha" type="matrix" values="0 0 0 0 0 0 0 0 0 0 0 0 0 0 0 0 0 0 127 0"/>
<feOffset dy="3"/>
<feGaussianBlur stdDeviation="2"/>
<feColorMatrix type="matrix" values="0 0 0 0 1 0 0 0 0 0.80475 0 0 0 0 0.1125 0 0 0 0.4 0"/>
<feBlend mode="normal" in2="BackgroundImageFix" result="effect1_dropShadow"/>
<feBlend mode="normal" in="SourceGraphic" in2="effect1_dropShadow" result="shape"/>
</filter>
<filter id="filter3_d" x="85.4805" y="62.2188" width="17.2576" height="61.1434" filterUnits="userSpaceOnUse" color-interpolation-filters="sRGB">
<feFlood flood-opacity="0" result="BackgroundImageFix"/>
<feColorMatrix in="SourceAlpha" type="matrix" values="0 0 0 0 0 0 0 0 0 0 0 0 0 0 0 0 0 0 127 0"/>
<feOffset dy="4"/>
<feGaussianBlur stdDeviation="2"/>
<feColorMatrix type="matrix" values="0 0 0 0 1 0 0 0 0 0.587917 0 0 0 0 0.104167 0 0 0 0.2 0"/>
<feBlend mode="normal" in2="BackgroundImageFix" result="effect1_dropShadow"/>
<feBlend mode="normal" in="SourceGraphic" in2="effect1_dropShadow" result="shape"/>
</filter>
<filter id="filter4_d" x="90.5" y="93.6465" width="52.4108" height="52.3559" filterUnits="userSpaceOnUse" color-interpolation-filters="sRGB">
<feFlood flood-opacity="0" result="BackgroundImageFix"/>
<feColorMatrix in="SourceAlpha" type="matrix" values="0 0 0 0 0 0 0 0 0 0 0 0 0 0 0 0 0 0 127 0"/>
<feOffset dy="2"/>
<feGaussianBlur stdDeviation="3"/>
<feColorMatrix type="matrix" values="0 0 0 0 0.956863 0 0 0 0 0.14902 0 0 0 0 0.243137 0 0 0 0.15 0"/>
<feBlend mode="normal" in2="BackgroundImageFix" result="effect1_dropShadow"/>
<feBlend mode="normal" in="SourceGraphic" in2="effect1_dropShadow" result="shape"/>
</filter>
<filter id="filter5_d" x="98.1392" y="111.504" width="37.1287" height="23.5628" filterUnits="userSpaceOnUse" color-interpolation-filters="sRGB">
<feFlood flood-opacity="0" result="BackgroundImageFix"/>
<feColorMatrix in="SourceAlpha" type="matrix" values="0 0 0 0 0 0 0 0 0 0 0 0 0 0 0 0 0 0 127 0"/>
<feOffset dy="2"/>
<feGaussianBlur stdDeviation="2"/>
<feColorMatrix type="matrix" values="0 0 0 0 0.956863 0 0 0 0 0.14902 0 0 0 0 0.243137 0 0 0 0.29 0"/>
<feBlend mode="normal" in2="BackgroundImageFix" result="effect1_dropShadow"/>
<feBlend mode="normal" in="SourceGraphic" in2="effect1_dropShadow" result="shape"/>
</filter>
<filter id="filter6_d" x="99.9175" y="104.584" width="13.1883" height="13.1883" filterUnits="userSpaceOnUse" color-interpolation-filters="sRGB">
<feFlood flood-opacity="0" result="BackgroundImageFix"/>
<feColorMatrix in="SourceAlpha" type="matrix" values="0 0 0 0 0 0 0 0 0 0 0 0 0 0 0 0 0 0 127 0"/>
<feOffset dy="1"/>
<feGaussianBlur stdDeviation="1.5"/>
<feColorMatrix type="matrix" values="0 0 0 0 1 0 0 0 0 0.80475 0 0 0 0 0.1125 0 0 0 0.28 0"/>
<feBlend mode="normal" in2="BackgroundImageFix" result="effect1_dropShadow"/>
<feBlend mode="normal" in="SourceGraphic" in2="effect1_dropShadow" result="shape"/>
</filter>
<filter id="filter7_d" x="10" y="13" width="68" height="68" filterUnits="userSpaceOnUse" color-interpolation-filters="sRGB">
<feFlood flood-opacity="0" result="BackgroundImageFix"/>
<feColorMatrix in="SourceAlpha" type="matrix" values="0 0 0 0 0 0 0 0 0 0 0 0 0 0 0 0 0 0 127 0"/>
<feOffset dy="5"/>
<feGaussianBlur stdDeviation="7"/>
<feColorMatrix type="matrix" values="0 0 0 0 0.956863 0 0 0 0 0.14902 0 0 0 0 0.243137 0 0 0 0.2 0"/>
<feBlend mode="normal" in2="BackgroundImageFix" result="effect1_dropShadow"/>
<feBlend mode="normal" in="SourceGraphic" in2="effect1_dropShadow" result="shape"/>
</filter>
</defs>
</svg>
