<svg width="94" height="104" viewBox="0 0 94 104" fill="none" xmlns="http://www.w3.org/2000/svg">
<rect opacity="0.08" width="94" height="94" rx="26" fill="#3FDCFF"/>
<g filter="url(#filter0_dd)">
<rect x="16.0674" y="14.2325" width="61.8654" height="68.8081" rx="8" fill="white"/>
</g>
<rect opacity="0.6" x="22.418" y="64.9403" width="32.0551" height="4" rx="2" fill="#62668A"/>
<rect opacity="0.3" x="22.418" y="71.9403" width="49.1634" height="4" rx="2" fill="#BEBFCC"/>
<g filter="url(#filter1_d)">
<rect x="22.418" y="21.473" width="49.1634" height="38.1508" rx="3" fill="#3FDCFF"/>
</g>
<g filter="url(#filter2_d)">
<path d="M55.1059 39.6603L41.7828 32.9985C41.6313 32.9232 41.4632 32.8878 41.2942 32.8956C41.1252 32.9034 40.961 32.9542 40.8172 33.0431C40.6733 33.1321 40.5545 33.2563 40.472 33.404C40.3895 33.5516 40.346 33.7179 40.3457 33.887V47.2101C40.346 47.3793 40.3894 47.5456 40.4719 47.6932C40.5544 47.8409 40.6732 47.9651 40.8171 48.054C40.9611 48.1429 41.1253 48.1936 41.2943 48.2013C41.4633 48.209 41.6314 48.1735 41.7828 48.098L55.1059 41.4368C55.2708 41.3543 55.4095 41.2275 55.5064 41.0706C55.6034 40.9137 55.6547 40.733 55.6547 40.5486C55.6547 40.3642 55.6034 40.1834 55.5064 40.0265C55.4095 39.8696 55.2708 39.7428 55.1059 39.6603V39.6603Z" fill="white"/>
</g>
<defs>
<filter id="filter0_dd" x="2.06738" y="6.23254" width="89.8654" height="96.8081" filterUnits="userSpaceOnUse" color-interpolation-filters="sRGB">
<feFlood flood-opacity="0" result="BackgroundImageFix"/>
<feColorMatrix in="SourceAlpha" type="matrix" values="0 0 0 0 0 0 0 0 0 0 0 0 0 0 0 0 0 0 127 0"/>
<feOffset dy="6"/>
<feGaussianBlur stdDeviation="7"/>
<feColorMatrix type="matrix" values="0 0 0 0 0.245833 0 0 0 0 0.86425 0 0 0 0 1 0 0 0 0.22 0"/>
<feBlend mode="normal" in2="BackgroundImageFix" result="effect1_dropShadow"/>
<feColorMatrix in="SourceAlpha" type="matrix" values="0 0 0 0 0 0 0 0 0 0 0 0 0 0 0 0 0 0 127 0"/>
<feOffset/>
<feGaussianBlur stdDeviation="2"/>
<feColorMatrix type="matrix" values="0 0 0 0 0.121042 0 0 0 0 0.143938 0 0 0 0 0.35 0 0 0 0.05 0"/>
<feBlend mode="normal" in2="effect1_dropShadow" result="effect2_dropShadow"/>
<feBlend mode="normal" in="SourceGraphic" in2="effect2_dropShadow" result="shape"/>
</filter>
<filter id="filter1_d" x="18.418" y="20.473" width="57.1634" height="46.1508" filterUnits="userSpaceOnUse" color-interpolation-filters="sRGB">
<feFlood flood-opacity="0" result="BackgroundImageFix"/>
<feColorMatrix in="SourceAlpha" type="matrix" values="0 0 0 0 0 0 0 0 0 0 0 0 0 0 0 0 0 0 127 0"/>
<feOffset dy="3"/>
<feGaussianBlur stdDeviation="2"/>
<feColorMatrix type="matrix" values="0 0 0 0 0.245833 0 0 0 0 0.86425 0 0 0 0 1 0 0 0 0.17 0"/>
<feBlend mode="normal" in2="BackgroundImageFix" result="effect1_dropShadow"/>
<feBlend mode="normal" in="SourceGraphic" in2="effect1_dropShadow" result="shape"/>
</filter>
<filter id="filter2_d" x="34.3457" y="30.8945" width="27.309" height="27.3078" filterUnits="userSpaceOnUse" color-interpolation-filters="sRGB">
<feFlood flood-opacity="0" result="BackgroundImageFix"/>
<feColorMatrix in="SourceAlpha" type="matrix" values="0 0 0 0 0 0 0 0 0 0 0 0 0 0 0 0 0 0 127 0"/>
<feOffset dy="4"/>
<feGaussianBlur stdDeviation="3"/>
<feColorMatrix type="matrix" values="0 0 0 0 0.121042 0 0 0 0 0.143938 0 0 0 0 0.35 0 0 0 0.19 0"/>
<feBlend mode="normal" in2="BackgroundImageFix" result="effect1_dropShadow"/>
<feBlend mode="normal" in="SourceGraphic" in2="effect1_dropShadow" result="shape"/>
</filter>
</defs>
</svg>
