<svg width="94" height="94" viewBox="0 0 94 94" fill="none" xmlns="http://www.w3.org/2000/svg">
<rect opacity="0.1" width="94" height="94" rx="26" fill="#FFCD1D"/>
<g filter="url(#filter0_d)">
<rect x="17.8838" y="19.6552" width="58.2317" height="54.6898" rx="9.45" fill="#FFCD1D"/>
</g>
<g filter="url(#filter1_d)">
<circle cx="46.9994" cy="47.0001" r="15.5599" fill="#FFCD1D"/>
<path d="M46.9998 28.0969C36.5606 28.0969 28.0967 36.5608 28.0967 47.0001C28.0967 57.4393 36.5606 65.9032 46.9998 65.9032C57.4391 65.9032 65.9029 57.4393 65.9029 47.0001C65.9029 36.5608 57.4391 28.0969 46.9998 28.0969ZM53.675 52.4016C53.675 57.9024 49.1571 58.6444 48.3585 58.7436V61.8863H45.9909V58.7436C45.2536 58.642 40.2939 58.0986 40.2939 51.2651H44.7598C44.7598 55.3009 46.8415 55.1331 47.1581 55.1331C47.5055 55.1331 49.2091 55.0693 49.2091 52.4323C49.2091 47.1655 41.0359 49.5024 41.0359 41.6079C41.0359 36.1969 45.5206 35.3534 46.3217 35.2518V31.8775H48.7035V35.3179C49.4619 35.4621 53.7057 36.4308 53.7057 42.6382H49.2398C49.2398 39.3939 47.8623 38.8835 47.2834 38.8835C46.9667 38.8835 45.4994 38.9662 45.4994 41.6292C45.5017 46.277 53.675 44.8286 53.675 52.4016Z" fill="white"/>
</g>
<g filter="url(#filter2_d)">
<path d="M80.8178 73.8472L73.0708 66.1018C73.0276 66.0591 72.9944 66.0073 72.9735 65.9502C72.9526 65.8931 72.9446 65.8321 72.95 65.7716C72.9554 65.711 72.9741 65.6524 73.0047 65.5999C73.0353 65.5474 73.0772 65.5023 73.1272 65.4679L78.106 62.0159C78.3629 61.8379 78.5643 61.591 78.687 61.3035C78.8098 61.0161 78.8489 60.6999 78.7998 60.3912C78.7507 60.0826 78.6155 59.794 78.4097 59.5588C78.2038 59.3237 77.9358 59.1514 77.6364 59.0618L56.5628 52.7371C56.3475 52.673 56.119 52.6683 55.9013 52.7235C55.6835 52.7786 55.4848 52.8916 55.326 53.0504C55.1672 53.2092 55.0542 53.4079 54.9991 53.6256C54.944 53.8433 54.9487 54.0719 55.0127 54.2871L61.3374 75.364C61.4272 75.6634 61.5996 75.9312 61.8349 76.1369C62.0702 76.3425 62.3588 76.4776 62.6674 76.5265C62.976 76.5753 63.2922 76.5361 63.5795 76.4133C63.8668 76.2904 64.1136 76.089 64.2915 75.8321L67.7418 70.8533C67.7764 70.8033 67.8214 70.7616 67.8739 70.731C67.9263 70.7003 67.9848 70.6816 68.0452 70.6761C68.1057 70.6705 68.1666 70.6783 68.2238 70.6989C68.2809 70.7195 68.3328 70.7523 68.3758 70.7952L76.1228 78.5422C76.434 78.8533 76.8561 79.0281 77.2961 79.0281C77.7362 79.0281 78.1583 78.8533 78.4695 78.5422L80.8178 76.1938C81.1289 75.8826 81.3037 75.4606 81.3037 75.0205C81.3037 74.5804 81.1289 74.1584 80.8178 73.8472V73.8472Z" fill="#FF961B"/>
</g>
<defs>
<filter id="filter0_d" x="9.17101" y="13.1206" width="75.6573" height="72.1153" filterUnits="userSpaceOnUse" color-interpolation-filters="sRGB">
<feFlood flood-opacity="0" result="BackgroundImageFix"/>
<feColorMatrix in="SourceAlpha" type="matrix" values="0 0 0 0 0 0 0 0 0 0 0 0 0 0 0 0 0 0 127 0"/>
<feOffset dy="2.17819"/>
<feGaussianBlur stdDeviation="4.35639"/>
<feColorMatrix type="matrix" values="0 0 0 0 1 0 0 0 0 0.80475 0 0 0 0 0.1125 0 0 0 0.27 0"/>
<feBlend mode="normal" in2="BackgroundImageFix" result="effect1_dropShadow"/>
<feBlend mode="normal" in="SourceGraphic" in2="effect1_dropShadow" result="shape"/>
</filter>
<filter id="filter1_d" x="23.7403" y="25.9187" width="46.519" height="46.519" filterUnits="userSpaceOnUse" color-interpolation-filters="sRGB">
<feFlood flood-opacity="0" result="BackgroundImageFix"/>
<feColorMatrix in="SourceAlpha" type="matrix" values="0 0 0 0 0 0 0 0 0 0 0 0 0 0 0 0 0 0 127 0"/>
<feOffset dy="2.17819"/>
<feGaussianBlur stdDeviation="2.17819"/>
<feColorMatrix type="matrix" values="0 0 0 0 1 0 0 0 0 0.587917 0 0 0 0 0.104167 0 0 0 0.37 0"/>
<feBlend mode="normal" in2="BackgroundImageFix" result="effect1_dropShadow"/>
<feBlend mode="normal" in="SourceGraphic" in2="effect1_dropShadow" result="shape"/>
</filter>
<filter id="filter2_d" x="49.9609" y="49.6853" width="36.3428" height="36.3428" filterUnits="userSpaceOnUse" color-interpolation-filters="sRGB">
<feFlood flood-opacity="0" result="BackgroundImageFix"/>
<feColorMatrix in="SourceAlpha" type="matrix" values="0 0 0 0 0 0 0 0 0 0 0 0 0 0 0 0 0 0 127 0"/>
<feOffset dy="2"/>
<feGaussianBlur stdDeviation="2.5"/>
<feColorMatrix type="matrix" values="0 0 0 0 1 0 0 0 0 0.587917 0 0 0 0 0.104167 0 0 0 0.33 0"/>
<feBlend mode="normal" in2="BackgroundImageFix" result="effect1_dropShadow"/>
<feBlend mode="normal" in="SourceGraphic" in2="effect1_dropShadow" result="shape"/>
</filter>
</defs>
</svg>
