<svg width="80" height="80" viewBox="0 0 80 80" fill="none" xmlns="http://www.w3.org/2000/svg">
<rect opacity="0.06" width="80" height="80" rx="26" fill="#1B76FF"/>
<g filter="url(#filter0_d)">
<path d="M16.3148 56C17.1587 56.0017 17.9712 55.6804 18.5858 55.1021L33.1742 41.4185C33.383 41.221 33.6607 41.1128 33.9481 41.1171C34.2355 41.1214 34.5099 41.2378 34.7127 41.4415L39.6199 46.351C41.0962 47.7604 43.0589 48.5469 45.1 48.5469C47.1411 48.5469 49.1037 47.7604 50.5801 46.351L58.7939 38.1371C58.8451 38.0857 58.906 38.045 58.973 38.0172C59.0399 37.9893 59.1118 37.975 59.1843 37.975C59.2568 37.975 59.3287 37.9893 59.3956 38.0172C59.4626 38.045 59.5235 38.0857 59.5747 38.1371L63.4646 42.0133C63.88 42.4267 64.4423 42.6587 65.0284 42.6585C65.6155 42.6579 66.1784 42.4246 66.5938 42.0096C67.0092 41.5947 67.2431 41.032 67.2443 40.4449V27.2136C67.2437 26.6263 67.01 26.0633 66.5945 25.6482C66.179 25.2332 65.6157 25 65.0284 25H51.7443C51.3046 24.9983 50.8743 25.1276 50.5083 25.3715C50.1423 25.6153 49.8573 25.9626 49.6895 26.3691C49.5218 26.7756 49.4789 27.2228 49.5663 27.6538C49.6538 28.0848 49.8676 28.48 50.1805 28.7889L54.0842 32.6926C54.1883 32.7968 54.2469 32.938 54.2473 33.0853C54.2475 33.1579 54.2332 33.2299 54.2052 33.2969C54.1772 33.364 54.1361 33.4247 54.0842 33.4756L45.8819 41.6803C45.6734 41.8864 45.392 42.0021 45.0988 42.0021C44.8056 42.0021 44.5243 41.8864 44.3158 41.6803L39.4063 36.7708C37.9905 35.3408 36.0719 34.5206 34.0598 34.4855C32.0478 34.4503 30.1016 35.2028 28.6367 36.5825L14.0437 50.2547C13.5599 50.7107 13.224 51.3014 13.0795 51.9503C12.9349 52.5993 12.9884 53.2767 13.233 53.895C13.4776 54.5132 13.902 55.0439 14.4514 55.4183C15.0008 55.7928 15.6499 55.9938 16.3148 55.9954V56Z" fill="#1B76FF"/>
</g>
<defs>
<filter id="filter0_d" x="7" y="25" width="66.2443" height="43" filterUnits="userSpaceOnUse" color-interpolation-filters="sRGB">
<feFlood flood-opacity="0" result="BackgroundImageFix"/>
<feColorMatrix in="SourceAlpha" type="matrix" values="0 0 0 0 0 0 0 0 0 0 0 0 0 0 0 0 0 0 127 0"/>
<feOffset dy="6"/>
<feGaussianBlur stdDeviation="3"/>
<feColorMatrix type="matrix" values="0 0 0 0 0.104167 0 0 0 0 0.4625 0 0 0 0 1 0 0 0 0.17 0"/>
<feBlend mode="normal" in2="BackgroundImageFix" result="effect1_dropShadow"/>
<feBlend mode="normal" in="SourceGraphic" in2="effect1_dropShadow" result="shape"/>
</filter>
</defs>
</svg>
