<svg width="148" height="130" viewBox="0 0 148 130" fill="none" xmlns="http://www.w3.org/2000/svg">
<rect opacity="0.33" x="20.999" y="15" width="100" height="100" rx="29" fill="#E7E8F1"/>
<g filter="url(#filter0_d)">
<rect x="10" y="34.7173" width="75.7241" height="82.4552" rx="14" fill="white"/>
</g>
<g filter="url(#filter1_d)">
<rect x="28.8857" y="92.6021" width="6.03287" height="6.03287" rx="1.71722" fill="#FFCD1D"/>
</g>
<g filter="url(#filter2_d)">
<rect x="28.8857" y="102.254" width="6.03287" height="6.03287" rx="1.71722" fill="#1B76FF"/>
</g>
<rect opacity="0.5" x="37.5576" y="94.1187" width="19.286" height="3" rx="1.5" fill="#BEBFCC"/>
<rect opacity="0.5" x="37.5576" y="103.771" width="29.2802" height="3" rx="1.5" fill="#BEBFCC"/>
<g filter="url(#filter3_d)">
<path d="M67.7381 66.1151C67.7381 70.3649 66.4779 74.5192 64.1168 78.0528C61.7558 81.5863 58.3999 84.3404 54.4737 85.9667C50.5474 87.593 46.227 88.0185 42.0589 87.1894C37.8908 86.3604 34.0622 84.3139 31.0571 81.3089C28.0521 78.3038 26.0056 74.4752 25.1765 70.3071C24.3475 66.139 24.773 61.8186 26.3993 57.8923C28.0256 53.9661 30.7797 50.6102 34.3132 48.2492C37.8468 45.8881 42.0011 44.6279 46.2509 44.6279L46.2509 66.1151H67.7381Z" fill="#FFCD1D"/>
</g>
<g filter="url(#filter4_d)">
<path d="M49.4735 41.4048C52.2953 41.4048 55.0894 41.9606 57.6963 43.0404C60.3033 44.1202 62.672 45.703 64.6673 47.6982C66.6625 49.6935 68.2453 52.0622 69.3251 54.6692C70.4049 57.2761 70.9607 60.0702 70.9607 62.892L49.4735 62.892L49.4735 41.4048Z" fill="#1B76FF"/>
</g>
<g filter="url(#filter5_d)">
<rect x="56.2754" y="12" width="75.7241" height="90.2546" rx="14" fill="white"/>
</g>
<g filter="url(#filter6_d)">
<rect x="102.021" y="24.1064" width="4.50239" height="27.9998" rx="2.25119" fill="#FFCD1D"/>
</g>
<g filter="url(#filter7_d)">
<rect x="111.026" y="35.8955" width="4.50239" height="16.2104" rx="2.25119" fill="#FF961B"/>
</g>
<g filter="url(#filter8_d)">
<rect x="120.031" y="27.7905" width="4.50239" height="24.3157" rx="2.25119" fill="#F4263E"/>
</g>
<rect opacity="0.5" x="65.7598" y="59.1489" width="49.7024" height="3" rx="1.5" fill="#BEBFCC"/>
<rect opacity="0.5" x="65.7598" y="66.1489" width="27.1902" height="3" rx="1.5" fill="#BEBFCC"/>
<rect opacity="0.5" x="65.7598" y="73.0957" width="58.7739" height="3.10675" rx="1.55337" fill="#BEBFCC"/>
<g filter="url(#filter9_d)">
<rect x="65.7598" y="80.1489" width="33.4285" height="3" rx="1.5" fill="#782CE4"/>
</g>
<rect opacity="0.5" x="65.7598" y="87.1489" width="51.5554" height="3" rx="1.5" fill="#BEBFCC"/>
<g filter="url(#filter10_d)">
<rect x="65.7598" y="24.1064" width="28" height="28" rx="8" fill="#F4263E"/>
</g>
<g filter="url(#filter11_d)">
<path d="M79.7598 30.1064C78.1775 30.1064 76.6308 30.5756 75.3152 31.4547C73.9996 32.3337 72.9742 33.5832 72.3687 35.045C71.7632 36.5068 71.6048 38.1153 71.9135 39.6672C72.2222 41.219 72.9841 42.6445 74.1029 43.7633C75.2217 44.8821 76.6472 45.644 78.199 45.9527C79.7509 46.2614 81.3594 46.103 82.8212 45.4975C84.283 44.892 85.5325 43.8666 86.4115 42.551C87.2906 41.2354 87.7598 39.6887 87.7598 38.1064C87.7575 35.9854 86.9139 33.9519 85.4141 32.4521C83.9143 30.9523 81.8808 30.1087 79.7598 30.1064V30.1064ZM82.9784 38.7024L78.0578 41.1624C77.9562 41.2132 77.8433 41.2372 77.7298 41.2321C77.6163 41.227 77.506 41.1929 77.4094 41.1332C77.3127 41.0735 77.2329 40.9901 77.1776 40.8909C77.1222 40.7917 77.0932 40.68 77.0931 40.5664V35.6451C77.0931 35.5316 77.1221 35.4199 77.1774 35.3207C77.2327 35.2215 77.3123 35.138 77.4089 35.0783C77.5055 35.0185 77.6157 34.9844 77.7291 34.9792C77.8426 34.974 77.9555 34.9978 78.0571 35.0484L82.9791 37.5064C83.0905 37.5616 83.1843 37.6468 83.2499 37.7525C83.3154 37.8581 83.3501 37.98 83.3501 38.1043C83.35 38.2287 83.3152 38.3505 83.2495 38.4561C83.1838 38.5616 83.0899 38.6468 82.9784 38.7018V38.7024Z" fill="white"/>
</g>
<defs>
<filter id="filter0_d" x="0" y="26.7173" width="95.7241" height="102.455" filterUnits="userSpaceOnUse" color-interpolation-filters="sRGB">
<feFlood flood-opacity="0" result="BackgroundImageFix"/>
<feColorMatrix in="SourceAlpha" type="matrix" values="0 0 0 0 0 0 0 0 0 0 0 0 0 0 0 0 0 0 127 0"/>
<feOffset dy="2"/>
<feGaussianBlur stdDeviation="5"/>
<feColorMatrix type="matrix" values="0 0 0 0 0.121042 0 0 0 0 0.143938 0 0 0 0 0.35 0 0 0 0.1 0"/>
<feBlend mode="normal" in2="BackgroundImageFix" result="effect1_dropShadow"/>
<feBlend mode="normal" in="SourceGraphic" in2="effect1_dropShadow" result="shape"/>
</filter>
<filter id="filter1_d" x="27.512" y="92.2586" width="8.78042" height="8.78042" filterUnits="userSpaceOnUse" color-interpolation-filters="sRGB">
<feFlood flood-opacity="0" result="BackgroundImageFix"/>
<feColorMatrix in="SourceAlpha" type="matrix" values="0 0 0 0 0 0 0 0 0 0 0 0 0 0 0 0 0 0 127 0"/>
<feOffset dy="1.03033"/>
<feGaussianBlur stdDeviation="0.686887"/>
<feColorMatrix type="matrix" values="0 0 0 0 1 0 0 0 0 0.80475 0 0 0 0 0.1125 0 0 0 0.25 0"/>
<feBlend mode="normal" in2="BackgroundImageFix" result="effect1_dropShadow"/>
<feBlend mode="normal" in="SourceGraphic" in2="effect1_dropShadow" result="shape"/>
</filter>
<filter id="filter2_d" x="27.512" y="101.911" width="8.78042" height="8.78042" filterUnits="userSpaceOnUse" color-interpolation-filters="sRGB">
<feFlood flood-opacity="0" result="BackgroundImageFix"/>
<feColorMatrix in="SourceAlpha" type="matrix" values="0 0 0 0 0 0 0 0 0 0 0 0 0 0 0 0 0 0 127 0"/>
<feOffset dy="1.03033"/>
<feGaussianBlur stdDeviation="0.686887"/>
<feColorMatrix type="matrix" values="0 0 0 0 0.104167 0 0 0 0 0.4625 0 0 0 0 1 0 0 0 0.18 0"/>
<feBlend mode="normal" in2="BackgroundImageFix" result="effect1_dropShadow"/>
<feBlend mode="normal" in="SourceGraphic" in2="effect1_dropShadow" result="shape"/>
</filter>
<filter id="filter3_d" x="18.7637" y="43.6279" width="54.9744" height="54.9744" filterUnits="userSpaceOnUse" color-interpolation-filters="sRGB">
<feFlood flood-opacity="0" result="BackgroundImageFix"/>
<feColorMatrix in="SourceAlpha" type="matrix" values="0 0 0 0 0 0 0 0 0 0 0 0 0 0 0 0 0 0 127 0"/>
<feOffset dy="5"/>
<feGaussianBlur stdDeviation="3"/>
<feColorMatrix type="matrix" values="0 0 0 0 1 0 0 0 0 0.80475 0 0 0 0 0.1125 0 0 0 0.24 0"/>
<feBlend mode="normal" in2="BackgroundImageFix" result="effect1_dropShadow"/>
<feBlend mode="normal" in="SourceGraphic" in2="effect1_dropShadow" result="shape"/>
</filter>
<filter id="filter4_d" x="44.4736" y="39.4048" width="31.4872" height="31.4872" filterUnits="userSpaceOnUse" color-interpolation-filters="sRGB">
<feFlood flood-opacity="0" result="BackgroundImageFix"/>
<feColorMatrix in="SourceAlpha" type="matrix" values="0 0 0 0 0 0 0 0 0 0 0 0 0 0 0 0 0 0 127 0"/>
<feOffset dy="3"/>
<feGaussianBlur stdDeviation="2.5"/>
<feColorMatrix type="matrix" values="0 0 0 0 0.104167 0 0 0 0 0.4625 0 0 0 0 1 0 0 0 0.26 0"/>
<feBlend mode="normal" in2="BackgroundImageFix" result="effect1_dropShadow"/>
<feBlend mode="normal" in="SourceGraphic" in2="effect1_dropShadow" result="shape"/>
</filter>
<filter id="filter5_d" x="40.2754" y="0" width="107.724" height="122.255" filterUnits="userSpaceOnUse" color-interpolation-filters="sRGB">
<feFlood flood-opacity="0" result="BackgroundImageFix"/>
<feColorMatrix in="SourceAlpha" type="matrix" values="0 0 0 0 0 0 0 0 0 0 0 0 0 0 0 0 0 0 127 0"/>
<feOffset dy="4"/>
<feGaussianBlur stdDeviation="8"/>
<feColorMatrix type="matrix" values="0 0 0 0 0.121042 0 0 0 0 0.143938 0 0 0 0 0.35 0 0 0 0.11 0"/>
<feBlend mode="normal" in2="BackgroundImageFix" result="effect1_dropShadow"/>
<feBlend mode="normal" in="SourceGraphic" in2="effect1_dropShadow" result="shape"/>
</filter>
<filter id="filter6_d" x="99.7703" y="24.1064" width="9.00477" height="32.5022" filterUnits="userSpaceOnUse" color-interpolation-filters="sRGB">
<feFlood flood-opacity="0" result="BackgroundImageFix"/>
<feColorMatrix in="SourceAlpha" type="matrix" values="0 0 0 0 0 0 0 0 0 0 0 0 0 0 0 0 0 0 127 0"/>
<feOffset dy="2.25119"/>
<feGaussianBlur stdDeviation="1.1256"/>
<feColorMatrix type="matrix" values="0 0 0 0 0.956863 0 0 0 0 0.14902 0 0 0 0 0.243137 0 0 0 0.12 0"/>
<feBlend mode="normal" in2="BackgroundImageFix" result="effect1_dropShadow"/>
<feBlend mode="normal" in="SourceGraphic" in2="effect1_dropShadow" result="shape"/>
</filter>
<filter id="filter7_d" x="108.775" y="35.3327" width="9.00477" height="20.7128" filterUnits="userSpaceOnUse" color-interpolation-filters="sRGB">
<feFlood flood-opacity="0" result="BackgroundImageFix"/>
<feColorMatrix in="SourceAlpha" type="matrix" values="0 0 0 0 0 0 0 0 0 0 0 0 0 0 0 0 0 0 127 0"/>
<feOffset dy="1.68839"/>
<feGaussianBlur stdDeviation="1.1256"/>
<feColorMatrix type="matrix" values="0 0 0 0 1 0 0 0 0 0.587917 0 0 0 0 0.104167 0 0 0 0.35 0"/>
<feBlend mode="normal" in2="BackgroundImageFix" result="effect1_dropShadow"/>
<feBlend mode="normal" in="SourceGraphic" in2="effect1_dropShadow" result="shape"/>
</filter>
<filter id="filter8_d" x="117.78" y="27.7905" width="9.00477" height="28.818" filterUnits="userSpaceOnUse" color-interpolation-filters="sRGB">
<feFlood flood-opacity="0" result="BackgroundImageFix"/>
<feColorMatrix in="SourceAlpha" type="matrix" values="0 0 0 0 0 0 0 0 0 0 0 0 0 0 0 0 0 0 127 0"/>
<feOffset dy="2.25119"/>
<feGaussianBlur stdDeviation="1.1256"/>
<feColorMatrix type="matrix" values="0 0 0 0 0.956863 0 0 0 0 0.14902 0 0 0 0 0.243137 0 0 0 0.12 0"/>
<feBlend mode="normal" in2="BackgroundImageFix" result="effect1_dropShadow"/>
<feBlend mode="normal" in="SourceGraphic" in2="effect1_dropShadow" result="shape"/>
</filter>
<filter id="filter9_d" x="62.7598" y="79.1489" width="39.4285" height="9" filterUnits="userSpaceOnUse" color-interpolation-filters="sRGB">
<feFlood flood-opacity="0" result="BackgroundImageFix"/>
<feColorMatrix in="SourceAlpha" type="matrix" values="0 0 0 0 0 0 0 0 0 0 0 0 0 0 0 0 0 0 127 0"/>
<feOffset dy="2"/>
<feGaussianBlur stdDeviation="1.5"/>
<feColorMatrix type="matrix" values="0 0 0 0 0.470588 0 0 0 0 0.172549 0 0 0 0 0.894118 0 0 0 0.19 0"/>
<feBlend mode="normal" in2="BackgroundImageFix" result="effect1_dropShadow"/>
<feBlend mode="normal" in="SourceGraphic" in2="effect1_dropShadow" result="shape"/>
</filter>
<filter id="filter10_d" x="58.7598" y="22.1064" width="42" height="42" filterUnits="userSpaceOnUse" color-interpolation-filters="sRGB">
<feFlood flood-opacity="0" result="BackgroundImageFix"/>
<feColorMatrix in="SourceAlpha" type="matrix" values="0 0 0 0 0 0 0 0 0 0 0 0 0 0 0 0 0 0 127 0"/>
<feOffset dy="5"/>
<feGaussianBlur stdDeviation="3.5"/>
<feColorMatrix type="matrix" values="0 0 0 0 0.956863 0 0 0 0 0.14902 0 0 0 0 0.243137 0 0 0 0.23 0"/>
<feBlend mode="normal" in2="BackgroundImageFix" result="effect1_dropShadow"/>
<feBlend mode="normal" in="SourceGraphic" in2="effect1_dropShadow" result="shape"/>
</filter>
<filter id="filter11_d" x="66.7598" y="27.1064" width="26" height="26" filterUnits="userSpaceOnUse" color-interpolation-filters="sRGB">
<feFlood flood-opacity="0" result="BackgroundImageFix"/>
<feColorMatrix in="SourceAlpha" type="matrix" values="0 0 0 0 0 0 0 0 0 0 0 0 0 0 0 0 0 0 127 0"/>
<feOffset dy="2"/>
<feGaussianBlur stdDeviation="2.5"/>
<feColorMatrix type="matrix" values="0 0 0 0 0 0 0 0 0 0 0 0 0 0 0 0 0 0 0.2 0"/>
<feBlend mode="normal" in2="BackgroundImageFix" result="effect1_dropShadow"/>
<feBlend mode="normal" in="SourceGraphic" in2="effect1_dropShadow" result="shape"/>
</filter>
</defs>
</svg>
