<svg width="94" height="94" viewBox="0 0 94 94" fill="none" xmlns="http://www.w3.org/2000/svg">
<rect opacity="0.1" width="94" height="94" rx="26" fill="#1B76FF"/>
<g filter="url(#filter0_d)">
<circle cx="47.0001" cy="47" r="32.0079" fill="#1B76FF"/>
</g>
<g filter="url(#filter1_d)">
<path d="M62.674 47.2319C62.8411 46.684 62.8775 46.1045 62.7802 45.5399C62.6828 44.9754 62.4545 44.4415 62.1136 43.9811C61.7726 43.5207 61.3285 43.1467 60.8168 42.889C60.3051 42.6313 59.7402 42.4972 59.1673 42.4973H51.7273C51.4459 42.4973 51.169 42.4261 50.9226 42.2901C50.6761 42.1542 50.4682 41.958 50.3181 41.7199C50.168 41.4819 50.0808 41.2096 50.0644 40.9287C50.0481 40.6477 50.1032 40.3672 50.2247 40.1133L52.1287 36.1226C52.3033 35.6042 52.3435 35.0499 52.2455 34.5117C52.1476 33.9735 51.9147 33.469 51.5687 33.0453C51.2489 32.6514 50.8422 32.3369 50.3805 32.1264C49.9188 31.916 49.4147 31.8154 48.9076 31.8324C48.4005 31.8495 47.9042 31.9837 47.4577 32.2247C47.0112 32.4657 46.6266 32.8068 46.334 33.2213L39.814 42.4586C39.6599 42.6763 39.4558 42.854 39.219 42.9767C38.9822 43.0994 38.7194 43.1636 38.4527 43.1639C38.2886 43.1639 38.1312 43.2291 38.0152 43.3451C37.8992 43.4612 37.834 43.6185 37.834 43.7826V58.8666C37.834 58.9918 37.8692 59.1145 37.9357 59.2207C38.0022 59.3268 38.0973 59.412 38.21 59.4666C43.1433 61.8559 44.782 62.1719 48.7993 62.1719C49.262 62.1719 51.8927 62.1453 52.854 62.1453C56.4273 62.1453 58.8047 60.0719 60.1287 55.7733L62.662 47.2813L62.674 47.2319Z" fill="white"/>
<path d="M35.8346 43.164H35.8C35.7214 42.6991 35.4811 42.2769 35.1215 41.9719C34.7619 41.667 34.3061 41.4989 33.8346 41.4973H31.8346C31.6578 41.4973 31.4883 41.5676 31.3632 41.6926C31.2382 41.8176 31.168 41.9872 31.168 42.164V60.8307C31.168 61.0075 31.2382 61.177 31.3632 61.3021C31.4883 61.4271 31.6578 61.4973 31.8346 61.4973H33.8346C34.3651 61.4973 34.8738 61.2866 35.2489 60.9115C35.6239 60.5365 35.8346 60.0278 35.8346 59.4973V43.164Z" fill="white"/>
</g>
<defs>
<filter id="filter0_d" x="6.83219" y="10.9621" width="80.3358" height="80.3358" filterUnits="userSpaceOnUse" color-interpolation-filters="sRGB">
<feFlood flood-opacity="0" result="BackgroundImageFix"/>
<feColorMatrix in="SourceAlpha" type="matrix" values="0 0 0 0 0 0 0 0 0 0 0 0 0 0 0 0 0 0 127 0"/>
<feOffset dy="4.13"/>
<feGaussianBlur stdDeviation="4.08"/>
<feColorMatrix type="matrix" values="0 0 0 0 0.104167 0 0 0 0 0.4625 0 0 0 0 1 0 0 0 0.27 0"/>
<feBlend mode="normal" in2="BackgroundImageFix" result="effect1_dropShadow"/>
<feBlend mode="normal" in="SourceGraphic" in2="effect1_dropShadow" result="shape"/>
</filter>
<filter id="filter1_d" x="23" y="26.0785" width="48" height="48" filterUnits="userSpaceOnUse" color-interpolation-filters="sRGB">
<feFlood flood-opacity="0" result="BackgroundImageFix"/>
<feColorMatrix in="SourceAlpha" type="matrix" values="0 0 0 0 0 0 0 0 0 0 0 0 0 0 0 0 0 0 127 0"/>
<feOffset dy="3.07847"/>
<feGaussianBlur stdDeviation="4"/>
<feColorMatrix type="matrix" values="0 0 0 0 0.121042 0 0 0 0 0.143938 0 0 0 0 0.35 0 0 0 0.17 0"/>
<feBlend mode="normal" in2="BackgroundImageFix" result="effect1_dropShadow"/>
<feBlend mode="normal" in="SourceGraphic" in2="effect1_dropShadow" result="shape"/>
</filter>
</defs>
</svg>
