<svg width="22" height="22" viewBox="0 0 22 22" fill="none" xmlns="http://www.w3.org/2000/svg">
<path d="M8.14809 21H2.33298C2.14335 20.9999 1.95591 20.9594 1.78318 20.8812C1.61045 20.8029 1.45639 20.6887 1.33129 20.5462C1.20619 20.4037 1.11293 20.2362 1.05774 20.0547C1.00254 19.8733 0.986673 19.6822 1.0112 19.4942L2.66275 6.82752C2.70464 6.50639 2.86196 6.21148 3.10536 5.99786C3.34875 5.78424 3.66158 5.6665 3.98542 5.66663H4.97742C5.30111 5.66671 5.61372 5.78455 5.85693 5.99815C6.10014 6.21176 6.25733 6.50654 6.2992 6.82752L8.14809 21Z" stroke="#F4263E" stroke-width="1.5" stroke-linecap="round" stroke-linejoin="round"/>
<path d="M12.8147 5.66663H17.6441C17.9678 5.66671 18.2804 5.78455 18.5236 5.99815C18.7668 6.21176 18.924 6.50654 18.9658 6.82752L20.6183 19.4942C20.6428 19.6823 20.6269 19.8735 20.5717 20.055C20.5164 20.2364 20.4231 20.404 20.2979 20.5466C20.1727 20.6891 20.0185 20.8033 19.8457 20.8814C19.6729 20.9596 19.4853 21 19.2956 21H8.14807" stroke="#F4263E" stroke-width="1.5" stroke-linecap="round" stroke-linejoin="round"/>
<path d="M4.97742 5.66663H10.8148" stroke="#F4263E" stroke-width="1.5" stroke-linecap="round" stroke-linejoin="round"/>
<path d="M16.1481 9.66667V3.66667C16.1481 3.31648 16.0791 2.96971 15.9451 2.64618C15.8111 2.32264 15.6147 2.02867 15.3671 1.78105C15.1195 1.53343 14.8255 1.337 14.5019 1.20299C14.1784 1.06898 13.8316 1 13.4815 1C13.1313 1 12.7845 1.06898 12.461 1.20299C12.1374 1.337 11.8435 1.53343 11.5958 1.78105C11.3482 2.02867 11.1518 2.32264 11.0178 2.64618C10.8838 2.96971 10.8148 3.31648 10.8148 3.66667V9.66667" stroke="#F4263E" stroke-width="1.5" stroke-linecap="round" stroke-linejoin="round"/>
<path d="M8.66808 1.44708C8.30247 1.69101 8.00282 2.02153 7.79579 2.40923C7.58876 2.79693 7.48077 3.22979 7.48142 3.6693V5.66664" stroke="#F4263E" stroke-width="1.5" stroke-linecap="round" stroke-linejoin="round"/>
</svg>
