<svg width="358" height="245" viewBox="0 0 358 245" fill="none" xmlns="http://www.w3.org/2000/svg">
<rect opacity="0.03" x="57" width="245" height="245" rx="75" fill="#F4263E"/>
<g filter="url(#filter0_d)">
<rect x="14.3398" y="61.864" width="137" height="166" rx="21" transform="rotate(-8 14.3398 61.864)" fill="white"/>
</g>
<g filter="url(#filter1_d)">
<circle cx="83.7818" cy="60.1833" r="32" transform="rotate(-8 83.7818 60.1833)" fill="#1B76FF"/>
</g>
<path d="M91.5288 50.3087C90.8494 45.4742 86.3803 42.1065 81.5458 42.786C76.7113 43.4654 73.3437 47.9345 74.0231 52.769C74.0578 53.0155 74.1935 53.9812 74.2281 54.2278C74.9076 59.0623 79.3766 62.4299 84.2111 61.7505C89.0456 61.0711 92.4133 56.602 91.7338 51.7675C91.6992 51.521 91.5635 50.5552 91.5288 50.3087Z" fill="white"/>
<path d="M103.048 70.339C100.172 67.541 91.2093 65.1886 84.6142 66.1155C78.0192 67.0423 70.0549 71.772 68.0616 75.2561C66.8299 77.4101 68.659 80.0204 71.1268 79.6736L101.32 75.4302C103.787 75.0834 104.826 72.0701 103.048 70.339Z" fill="white"/>
<circle opacity="0.5" cx="43.9764" cy="120.308" r="7" transform="rotate(-8 43.9764 120.308)" fill="#62668A"/>
<circle opacity="0.5" cx="47.3162" cy="144.075" r="7" transform="rotate(-8 47.3162 144.075)" fill="#62668A"/>
<circle opacity="0.5" cx="53.9969" cy="191.608" r="7" transform="rotate(-8 53.9969 191.608)" fill="#62668A"/>
<circle opacity="0.5" cx="50.6571" cy="167.841" r="7" transform="rotate(-8 50.6571 167.841)" fill="#62668A"/>
<rect x="55.1074" y="114.924" width="73.4559" height="6" rx="3" transform="rotate(-8 55.1074 114.924)" fill="#E7E8F1"/>
<rect x="58.5566" y="139.466" width="87.7524" height="6" rx="3" transform="rotate(-8 58.5566 139.466)" fill="#E7E8F1"/>
<rect x="65.2373" y="186.998" width="82.2124" height="6" rx="3" transform="rotate(-8 65.2373 186.998)" fill="#E7E8F1"/>
<rect x="61.8975" y="163.232" width="68.1976" height="6" rx="3" transform="rotate(-8 61.8975 163.232)" fill="#E7E8F1"/>
<g filter="url(#filter2_d)">
<rect x="208.213" y="42.7664" width="137" height="166" rx="21" transform="rotate(8 208.213 42.7664)" fill="white"/>
</g>
<g filter="url(#filter3_d)">
<circle cx="275.427" cy="60.2915" r="32" transform="rotate(8 275.427 60.2915)" fill="#782CE4"/>
</g>
<path d="M285.596 52.9348C286.275 48.1003 282.908 43.6313 278.073 42.9518C273.239 42.2724 268.77 45.64 268.09 50.4745C268.056 50.7211 267.92 51.6868 267.885 51.9333C267.206 56.7678 270.573 61.2369 275.408 61.9163C280.242 62.5958 284.711 59.2281 285.391 54.3936C285.426 54.1471 285.561 53.1813 285.596 52.9348Z" fill="white"/>
<path d="M291.149 75.3645C289.155 71.8821 281.188 67.1503 274.593 66.2234C267.998 65.2965 259.038 67.6478 256.162 70.4474C254.384 72.1785 255.423 75.1918 257.891 75.5386L288.084 79.782C290.551 80.1288 292.38 77.5185 291.149 75.3645Z" fill="white"/>
<g filter="url(#filter4_d)">
<circle cx="220.591" cy="107.116" r="7" transform="rotate(8 220.591 107.116)" fill="#FFCD1D"/>
</g>
<g filter="url(#filter5_d)">
<circle cx="217.251" cy="130.882" r="7" transform="rotate(8 217.251 130.882)" fill="#1B76FF"/>
</g>
<g filter="url(#filter6_d)">
<circle cx="210.571" cy="178.415" r="7" transform="rotate(8 210.571 178.415)" fill="#F4263E"/>
</g>
<g filter="url(#filter7_d)">
<circle cx="213.911" cy="154.648" r="7" transform="rotate(8 213.911 154.648)" fill="#782CE4"/>
</g>
<rect x="232.775" y="105.008" width="73.4559" height="6" rx="3" transform="rotate(8 232.775 105.008)" fill="#E7E8F1"/>
<rect x="229.326" y="129.55" width="87.7524" height="6" rx="3" transform="rotate(8 229.326 129.55)" fill="#E7E8F1"/>
<rect x="222.646" y="177.082" width="82.2124" height="6" rx="3" transform="rotate(8 222.646 177.082)" fill="#E7E8F1"/>
<rect x="225.986" y="153.316" width="68.1976" height="6" rx="3" transform="rotate(8 225.986 153.316)" fill="#E7E8F1"/>
<g filter="url(#filter8_dd)">
<rect x="111" y="30" width="137" height="166" rx="21" fill="white"/>
</g>
<g filter="url(#filter9_d)">
<circle cx="180" cy="38" r="32" fill="#F4263E"/>
</g>
<path d="M189.046 29.2996C189.046 24.4176 185.089 20.4607 180.207 20.4607C175.325 20.4607 171.368 24.4176 171.368 29.2996C171.368 29.5485 171.368 30.5238 171.368 30.7727C171.368 35.6547 175.325 39.6116 180.207 39.6116C185.089 39.6116 189.046 35.6547 189.046 30.7727C189.046 30.5238 189.046 29.5485 189.046 29.2996Z" fill="white"/>
<path d="M197.666 50.7379C195.207 47.5669 186.659 43.99 179.999 43.99C173.339 43.99 164.794 47.5653 162.336 50.7379C160.816 52.6996 162.264 55.5391 164.756 55.5391H195.246C197.738 55.5391 199.186 52.6996 197.666 50.7379Z" fill="white"/>
<g filter="url(#filter10_d)">
<circle cx="132.214" cy="92" r="7" fill="#FFCD1D"/>
</g>
<g filter="url(#filter11_d)">
<circle cx="132.214" cy="116" r="7" fill="#1B76FF"/>
</g>
<g filter="url(#filter12_d)">
<circle cx="132.214" cy="164" r="7" fill="#FF961B"/>
</g>
<g filter="url(#filter13_d)">
<circle cx="132.214" cy="140" r="7" fill="#782CE4"/>
</g>
<rect x="143.986" y="88.2173" width="73.4559" height="6" rx="3" fill="#E7E8F1"/>
<rect x="143.986" y="113" width="87.7524" height="6" rx="3" fill="#E7E8F1"/>
<rect x="143.986" y="161" width="82.2124" height="6" rx="3" fill="#E7E8F1"/>
<rect x="143.986" y="137" width="68.1976" height="6" rx="3" fill="#E7E8F1"/>
<defs>
<filter id="filter0_d" x="0.339844" y="32.7974" width="186.769" height="211.451" filterUnits="userSpaceOnUse" color-interpolation-filters="sRGB">
<feFlood flood-opacity="0" result="BackgroundImageFix"/>
<feColorMatrix in="SourceAlpha" type="matrix" values="0 0 0 0 0 0 0 0 0 0 0 0 0 0 0 0 0 0 127 0"/>
<feOffset dy="4"/>
<feGaussianBlur stdDeviation="7"/>
<feColorMatrix type="matrix" values="0 0 0 0 0.121042 0 0 0 0 0.143938 0 0 0 0 0.35 0 0 0 0.08 0"/>
<feBlend mode="normal" in2="BackgroundImageFix" result="effect1_dropShadow"/>
<feBlend mode="normal" in="SourceGraphic" in2="effect1_dropShadow" result="shape"/>
</filter>
<filter id="filter1_d" x="38.6396" y="17.0413" width="90.2842" height="90.2842" filterUnits="userSpaceOnUse" color-interpolation-filters="sRGB">
<feFlood flood-opacity="0" result="BackgroundImageFix"/>
<feColorMatrix in="SourceAlpha" type="matrix" values="0 0 0 0 0 0 0 0 0 0 0 0 0 0 0 0 0 0 127 0"/>
<feOffset dy="2"/>
<feGaussianBlur stdDeviation="4.5"/>
<feColorMatrix type="matrix" values="0 0 0 0 0.104167 0 0 0 0 0.4625 0 0 0 0 1 0 0 0 0.22 0"/>
<feBlend mode="normal" in2="BackgroundImageFix" result="effect1_dropShadow"/>
<feBlend mode="normal" in="SourceGraphic" in2="effect1_dropShadow" result="shape"/>
</filter>
<filter id="filter2_d" x="171.11" y="32.7664" width="186.769" height="211.451" filterUnits="userSpaceOnUse" color-interpolation-filters="sRGB">
<feFlood flood-opacity="0" result="BackgroundImageFix"/>
<feColorMatrix in="SourceAlpha" type="matrix" values="0 0 0 0 0 0 0 0 0 0 0 0 0 0 0 0 0 0 127 0"/>
<feOffset dy="4"/>
<feGaussianBlur stdDeviation="7"/>
<feColorMatrix type="matrix" values="0 0 0 0 0.121042 0 0 0 0 0.143938 0 0 0 0 0.35 0 0 0 0.08 0"/>
<feBlend mode="normal" in2="BackgroundImageFix" result="effect1_dropShadow"/>
<feBlend mode="normal" in="SourceGraphic" in2="effect1_dropShadow" result="shape"/>
</filter>
<filter id="filter3_d" x="230.285" y="17.1494" width="90.2842" height="90.2842" filterUnits="userSpaceOnUse" color-interpolation-filters="sRGB">
<feFlood flood-opacity="0" result="BackgroundImageFix"/>
<feColorMatrix in="SourceAlpha" type="matrix" values="0 0 0 0 0 0 0 0 0 0 0 0 0 0 0 0 0 0 127 0"/>
<feOffset dy="2"/>
<feGaussianBlur stdDeviation="4.5"/>
<feColorMatrix type="matrix" values="0 0 0 0 0.470588 0 0 0 0 0.172549 0 0 0 0 0.894118 0 0 0 0.18 0"/>
<feBlend mode="normal" in2="BackgroundImageFix" result="effect1_dropShadow"/>
<feBlend mode="normal" in="SourceGraphic" in2="effect1_dropShadow" result="shape"/>
</filter>
<filter id="filter4_d" x="208.686" y="99.2095" width="23.8122" height="23.8122" filterUnits="userSpaceOnUse" color-interpolation-filters="sRGB">
<feFlood flood-opacity="0" result="BackgroundImageFix"/>
<feColorMatrix in="SourceAlpha" type="matrix" values="0 0 0 0 0 0 0 0 0 0 0 0 0 0 0 0 0 0 127 0"/>
<feOffset dy="4"/>
<feGaussianBlur stdDeviation="2"/>
<feColorMatrix type="matrix" values="0 0 0 0 1 0 0 0 0 0.80475 0 0 0 0 0.1125 0 0 0 0.2 0"/>
<feBlend mode="normal" in2="BackgroundImageFix" result="effect1_dropShadow"/>
<feBlend mode="normal" in="SourceGraphic" in2="effect1_dropShadow" result="shape"/>
</filter>
<filter id="filter5_d" x="205.345" y="122.976" width="23.8122" height="23.8122" filterUnits="userSpaceOnUse" color-interpolation-filters="sRGB">
<feFlood flood-opacity="0" result="BackgroundImageFix"/>
<feColorMatrix in="SourceAlpha" type="matrix" values="0 0 0 0 0 0 0 0 0 0 0 0 0 0 0 0 0 0 127 0"/>
<feOffset dy="4"/>
<feGaussianBlur stdDeviation="2"/>
<feColorMatrix type="matrix" values="0 0 0 0 0.104167 0 0 0 0 0.4625 0 0 0 0 1 0 0 0 0.15 0"/>
<feBlend mode="normal" in2="BackgroundImageFix" result="effect1_dropShadow"/>
<feBlend mode="normal" in="SourceGraphic" in2="effect1_dropShadow" result="shape"/>
</filter>
<filter id="filter6_d" x="198.665" y="170.509" width="23.8122" height="23.8122" filterUnits="userSpaceOnUse" color-interpolation-filters="sRGB">
<feFlood flood-opacity="0" result="BackgroundImageFix"/>
<feColorMatrix in="SourceAlpha" type="matrix" values="0 0 0 0 0 0 0 0 0 0 0 0 0 0 0 0 0 0 127 0"/>
<feOffset dy="4"/>
<feGaussianBlur stdDeviation="2"/>
<feColorMatrix type="matrix" values="0 0 0 0 0.956863 0 0 0 0 0.14902 0 0 0 0 0.243137 0 0 0 0.15 0"/>
<feBlend mode="normal" in2="BackgroundImageFix" result="effect1_dropShadow"/>
<feBlend mode="normal" in="SourceGraphic" in2="effect1_dropShadow" result="shape"/>
</filter>
<filter id="filter7_d" x="202.005" y="146.742" width="23.8122" height="23.8122" filterUnits="userSpaceOnUse" color-interpolation-filters="sRGB">
<feFlood flood-opacity="0" result="BackgroundImageFix"/>
<feColorMatrix in="SourceAlpha" type="matrix" values="0 0 0 0 0 0 0 0 0 0 0 0 0 0 0 0 0 0 127 0"/>
<feOffset dy="4"/>
<feGaussianBlur stdDeviation="2"/>
<feColorMatrix type="matrix" values="0 0 0 0 0.470588 0 0 0 0 0.172549 0 0 0 0 0.894118 0 0 0 0.19 0"/>
<feBlend mode="normal" in2="BackgroundImageFix" result="effect1_dropShadow"/>
<feBlend mode="normal" in="SourceGraphic" in2="effect1_dropShadow" result="shape"/>
</filter>
<filter id="filter8_dd" x="87" y="20" width="185" height="214" filterUnits="userSpaceOnUse" color-interpolation-filters="sRGB">
<feFlood flood-opacity="0" result="BackgroundImageFix"/>
<feColorMatrix in="SourceAlpha" type="matrix" values="0 0 0 0 0 0 0 0 0 0 0 0 0 0 0 0 0 0 127 0"/>
<feOffset dy="14"/>
<feGaussianBlur stdDeviation="12"/>
<feColorMatrix type="matrix" values="0 0 0 0 0.956863 0 0 0 0 0.14902 0 0 0 0 0.243137 0 0 0 0.09 0"/>
<feBlend mode="normal" in2="BackgroundImageFix" result="effect1_dropShadow"/>
<feColorMatrix in="SourceAlpha" type="matrix" values="0 0 0 0 0 0 0 0 0 0 0 0 0 0 0 0 0 0 127 0"/>
<feOffset dy="3"/>
<feGaussianBlur stdDeviation="5"/>
<feColorMatrix type="matrix" values="0 0 0 0 0.121042 0 0 0 0 0.143938 0 0 0 0 0.35 0 0 0 0.15 0"/>
<feBlend mode="normal" in2="effect1_dropShadow" result="effect2_dropShadow"/>
<feBlend mode="normal" in="SourceGraphic" in2="effect2_dropShadow" result="shape"/>
</filter>
<filter id="filter9_d" x="134" y="4" width="92" height="92" filterUnits="userSpaceOnUse" color-interpolation-filters="sRGB">
<feFlood flood-opacity="0" result="BackgroundImageFix"/>
<feColorMatrix in="SourceAlpha" type="matrix" values="0 0 0 0 0 0 0 0 0 0 0 0 0 0 0 0 0 0 127 0"/>
<feOffset dy="12"/>
<feGaussianBlur stdDeviation="7"/>
<feColorMatrix type="matrix" values="0 0 0 0 0.956863 0 0 0 0 0.14902 0 0 0 0 0.243137 0 0 0 0.17 0"/>
<feBlend mode="normal" in2="BackgroundImageFix" result="effect1_dropShadow"/>
<feBlend mode="normal" in="SourceGraphic" in2="effect1_dropShadow" result="shape"/>
</filter>
<filter id="filter10_d" x="121.214" y="85" width="22" height="22" filterUnits="userSpaceOnUse" color-interpolation-filters="sRGB">
<feFlood flood-opacity="0" result="BackgroundImageFix"/>
<feColorMatrix in="SourceAlpha" type="matrix" values="0 0 0 0 0 0 0 0 0 0 0 0 0 0 0 0 0 0 127 0"/>
<feOffset dy="4"/>
<feGaussianBlur stdDeviation="2"/>
<feColorMatrix type="matrix" values="0 0 0 0 1 0 0 0 0 0.80475 0 0 0 0 0.1125 0 0 0 0.2 0"/>
<feBlend mode="normal" in2="BackgroundImageFix" result="effect1_dropShadow"/>
<feBlend mode="normal" in="SourceGraphic" in2="effect1_dropShadow" result="shape"/>
</filter>
<filter id="filter11_d" x="121.214" y="109" width="22" height="22" filterUnits="userSpaceOnUse" color-interpolation-filters="sRGB">
<feFlood flood-opacity="0" result="BackgroundImageFix"/>
<feColorMatrix in="SourceAlpha" type="matrix" values="0 0 0 0 0 0 0 0 0 0 0 0 0 0 0 0 0 0 127 0"/>
<feOffset dy="4"/>
<feGaussianBlur stdDeviation="2"/>
<feColorMatrix type="matrix" values="0 0 0 0 0.104167 0 0 0 0 0.4625 0 0 0 0 1 0 0 0 0.15 0"/>
<feBlend mode="normal" in2="BackgroundImageFix" result="effect1_dropShadow"/>
<feBlend mode="normal" in="SourceGraphic" in2="effect1_dropShadow" result="shape"/>
</filter>
<filter id="filter12_d" x="121.214" y="157" width="22" height="22" filterUnits="userSpaceOnUse" color-interpolation-filters="sRGB">
<feFlood flood-opacity="0" result="BackgroundImageFix"/>
<feColorMatrix in="SourceAlpha" type="matrix" values="0 0 0 0 0 0 0 0 0 0 0 0 0 0 0 0 0 0 127 0"/>
<feOffset dy="4"/>
<feGaussianBlur stdDeviation="2"/>
<feColorMatrix type="matrix" values="0 0 0 0 1 0 0 0 0 0.587917 0 0 0 0 0.104167 0 0 0 0.18 0"/>
<feBlend mode="normal" in2="BackgroundImageFix" result="effect1_dropShadow"/>
<feBlend mode="normal" in="SourceGraphic" in2="effect1_dropShadow" result="shape"/>
</filter>
<filter id="filter13_d" x="121.214" y="133" width="22" height="22" filterUnits="userSpaceOnUse" color-interpolation-filters="sRGB">
<feFlood flood-opacity="0" result="BackgroundImageFix"/>
<feColorMatrix in="SourceAlpha" type="matrix" values="0 0 0 0 0 0 0 0 0 0 0 0 0 0 0 0 0 0 127 0"/>
<feOffset dy="4"/>
<feGaussianBlur stdDeviation="2"/>
<feColorMatrix type="matrix" values="0 0 0 0 0.470588 0 0 0 0 0.172549 0 0 0 0 0.894118 0 0 0 0.19 0"/>
<feBlend mode="normal" in2="BackgroundImageFix" result="effect1_dropShadow"/>
<feBlend mode="normal" in="SourceGraphic" in2="effect1_dropShadow" result="shape"/>
</filter>
</defs>
</svg>
