<svg width="309" height="198" viewBox="0 0 309 198" fill="none" xmlns="http://www.w3.org/2000/svg">
<rect width="309" height="198" fill="#FFCD1D"/>
<g filter="url(#filter0_d)">
<rect x="125.101" y="24.5" width="119.464" height="149" rx="15.9285" fill="white"/>
</g>
<g filter="url(#filter1_d)">
<path d="M137.047 47.0969C137.047 43.798 139.721 41.1237 143.02 41.1237H149.208C152.507 41.1237 155.181 43.798 155.181 47.0969V53.2847C155.181 56.5836 152.507 59.2579 149.208 59.2579H143.02C139.721 59.2579 137.047 56.5836 137.047 53.2847V47.0969Z" fill="#FFCD1D"/>
</g>
<path d="M150.398 45.604L144.651 53.8138C144.575 53.9228 144.475 54.0122 144.357 54.0746C144.24 54.137 144.11 54.1707 143.977 54.1729C143.845 54.1751 143.713 54.1457 143.594 54.0872C143.475 54.0287 143.371 53.9427 143.292 53.8363L141.83 51.8873" stroke="white" stroke-width="1.99106" stroke-linecap="round" stroke-linejoin="round"/>
<g filter="url(#filter2_d)">
<path d="M137.047 72.1994C137.047 68.9005 139.721 66.2262 143.02 66.2262H149.208C152.507 66.2262 155.181 68.9005 155.181 72.1994V78.3872C155.181 81.6861 152.507 84.3603 149.208 84.3603H143.02C139.721 84.3603 137.047 81.6861 137.047 78.3872V72.1994Z" fill="#FFCD1D"/>
</g>
<g filter="url(#filter3_d)">
<path d="M137.047 96.3065C137.047 93.0076 139.721 90.3333 143.02 90.3333H149.208C152.507 90.3333 155.181 93.0076 155.181 96.3065V102.494C155.181 105.793 152.507 108.467 149.208 108.467H143.02C139.721 108.467 137.047 105.793 137.047 102.494V96.3065Z" fill="#FFCD1D"/>
</g>
<path d="M143.02 115.632H149.208C151.957 115.632 154.185 117.86 154.185 120.609V126.797C154.185 129.546 151.957 131.775 149.208 131.775H143.02C140.271 131.775 138.042 129.546 138.042 126.797V120.609C138.042 117.86 140.271 115.632 143.02 115.632Z" stroke="#BEBFCC" stroke-width="1.99106"/>
<path d="M143.02 139.739H149.208C151.957 139.739 154.185 141.967 154.185 144.716V150.904C154.185 153.653 151.957 155.882 149.208 155.882H143.02C140.271 155.882 138.042 153.653 138.042 150.904V144.716C138.042 141.967 140.271 139.739 143.02 139.739Z" stroke="#BEBFCC" stroke-width="1.99106"/>
<rect opacity="0.5" x="161.154" y="46.2087" width="30.6545" height="7.96424" rx="3.98212" fill="#BEBFCC"/>
<rect opacity="0.5" x="161.548" y="71.3114" width="69.2936" height="7.96424" rx="3.98212" fill="#BEBFCC"/>
<rect opacity="0.5" x="161.154" y="96.8723" width="44.7989" height="7.96424" rx="3.98212" fill="#BEBFCC"/>
<rect opacity="0.5" x="161.154" y="119.721" width="57.513" height="7.96424" rx="3.98212" fill="#BEBFCC"/>
<rect opacity="0.5" x="161.154" y="143.828" width="69.6871" height="7.96424" rx="3.98212" fill="#BEBFCC"/>
<path d="M150.398 71.0092L144.651 79.219C144.575 79.3279 144.475 79.4173 144.357 79.4798C144.24 79.5422 144.11 79.5759 143.977 79.5781C143.845 79.5803 143.713 79.5509 143.594 79.4924C143.475 79.4338 143.371 79.3478 143.292 79.2414L141.83 77.2925" stroke="white" stroke-width="1.99106" stroke-linecap="round" stroke-linejoin="round"/>
<path d="M150.398 95.1163L144.651 103.326C144.575 103.435 144.475 103.524 144.357 103.587C144.24 103.649 144.11 103.683 143.977 103.685C143.845 103.687 143.713 103.658 143.594 103.599C143.475 103.541 143.371 103.455 143.292 103.349L141.83 101.4" stroke="white" stroke-width="1.99106" stroke-linecap="round" stroke-linejoin="round"/>
<g filter="url(#filter4_d)">
<rect x="64.4365" y="60.9767" width="74.8396" height="74.1542" rx="19.9106" fill="white"/>
</g>
<g filter="url(#filter5_d)">
<path d="M105.842 116.7H97.8721C97.6909 116.7 97.5127 116.747 97.3545 116.835C97.1962 116.923 97.0632 117.05 96.968 117.205C96.8728 117.359 96.8186 117.535 96.8106 117.716C96.8026 117.897 96.841 118.077 96.9222 118.239L97.6362 119.665C97.9868 120.371 98.5281 120.966 99.1988 121.381C99.8696 121.796 100.643 122.015 101.432 122.013H102.282C103.07 122.016 103.843 121.799 104.514 121.386C105.185 120.973 105.727 120.38 106.08 119.675L106.794 118.249C106.875 118.087 106.913 117.907 106.905 117.726C106.897 117.545 106.843 117.369 106.747 117.214C106.652 117.06 106.518 116.933 106.36 116.845C106.201 116.757 106.023 116.71 105.842 116.711V116.7Z" fill="#FFCD1D"/>
</g>
<g filter="url(#filter6_d)">
<path d="M101.857 80.5721C102.42 80.5721 102.961 80.3482 103.359 79.9497C103.758 79.5511 103.982 79.0106 103.982 78.4469V73.134C103.982 72.5703 103.758 72.0298 103.359 71.6312C102.961 71.2327 102.42 71.0088 101.857 71.0088C101.293 71.0088 100.752 71.2327 100.354 71.6312C99.9553 72.0298 99.7314 72.5703 99.7314 73.134V78.4469C99.7314 79.0106 99.9553 79.5511 100.354 79.9497C100.752 80.3482 101.293 80.5721 101.857 80.5721Z" fill="#FFCD1D"/>
</g>
<g filter="url(#filter7_d)">
<path d="M121.391 79.1012C120.993 78.7028 120.452 78.479 119.889 78.479C119.325 78.479 118.785 78.7028 118.386 79.1012L114.631 82.8586C114.428 83.0546 114.266 83.2891 114.155 83.5484C114.044 83.8077 113.985 84.0865 113.983 84.3687C113.98 84.6509 114.034 84.9307 114.141 85.1919C114.248 85.4531 114.405 85.6904 114.605 85.8899C114.804 86.0894 115.042 86.2473 115.303 86.3541C115.564 86.461 115.844 86.5147 116.126 86.5123C116.408 86.5098 116.687 86.4512 116.946 86.3398C117.206 86.2284 117.44 86.0665 117.636 85.8636L121.391 82.1062C121.79 81.7077 122.014 81.1673 122.014 80.6037C122.014 80.0402 121.79 79.4998 121.391 79.1012V79.1012Z" fill="#FFCD1D"/>
</g>
<g filter="url(#filter8_d)">
<path d="M125.234 96.511H120.984C120.42 96.511 119.879 96.7349 119.481 97.1334C119.082 97.532 118.858 98.0725 118.858 98.6362C118.858 99.1998 119.082 99.7404 119.481 100.139C119.879 100.537 120.42 100.761 120.984 100.761H125.234C125.798 100.761 126.338 100.537 126.737 100.139C127.135 99.7404 127.359 99.1998 127.359 98.6362C127.359 98.0725 127.135 97.532 126.737 97.1334C126.338 96.7349 125.798 96.511 125.234 96.511Z" fill="#FFCD1D"/>
</g>
<g filter="url(#filter9_d)">
<path d="M89.0845 82.8589L85.3272 79.1016C84.9263 78.7145 84.3895 78.5002 83.8323 78.5051C83.2751 78.5099 82.7421 78.7334 82.348 79.1275C81.954 79.5215 81.7305 80.0545 81.7257 80.6117C81.7208 81.1689 81.935 81.7058 82.3222 82.1066L86.0795 85.8639C86.4803 86.251 87.0171 86.4652 87.5743 86.4604C88.1316 86.4556 88.6646 86.232 89.0586 85.838C89.4526 85.444 89.6761 84.911 89.681 84.3538C89.6858 83.7965 89.4716 83.2597 89.0845 82.8589Z" fill="#FFCD1D"/>
</g>
<g filter="url(#filter10_d)">
<path d="M82.73 96.511H78.4797C77.916 96.511 77.3755 96.7349 76.9769 97.1334C76.5784 97.532 76.3545 98.0725 76.3545 98.6362C76.3545 99.1998 76.5784 99.7404 76.9769 100.139C77.3755 100.537 77.916 100.761 78.4797 100.761H82.73C83.2937 100.761 83.8342 100.537 84.2328 100.139C84.6313 99.7404 84.8552 99.1998 84.8552 98.6362C84.8552 98.0725 84.6313 97.532 84.2328 97.1334C83.8342 96.7349 83.2937 96.511 82.73 96.511Z" fill="#FFCD1D"/>
</g>
<g filter="url(#filter11_d)">
<path d="M101.857 83.7599C98.9199 83.7643 96.0609 84.7045 93.6947 86.4441C91.3286 88.1837 89.5784 90.6321 88.6983 93.4339C87.8182 96.2358 87.854 99.2452 88.8005 102.025C89.7469 104.805 91.5548 107.212 93.9616 108.894C94.1027 108.992 94.2179 109.123 94.2975 109.275C94.3771 109.427 94.4186 109.596 94.4185 109.768V111.387C94.4185 111.951 94.6424 112.491 95.041 112.89C95.4395 113.289 95.9801 113.512 96.5437 113.512H107.17C107.733 113.512 108.274 113.289 108.672 112.89C109.071 112.491 109.295 111.951 109.295 111.387V109.766C109.295 109.594 109.336 109.425 109.416 109.273C109.495 109.121 109.611 108.99 109.752 108.892C112.165 107.213 113.978 104.807 114.929 102.025C115.879 99.2435 115.917 96.2308 115.036 93.4262C114.154 90.6216 112.401 88.1715 110.031 86.4328C107.66 84.6942 104.796 83.7577 101.857 83.7599V83.7599Z" fill="#FFCD1D"/>
</g>
<defs>
<filter id="filter0_d" x="106.166" y="10.2639" width="157.334" height="186.87" filterUnits="userSpaceOnUse" color-interpolation-filters="sRGB">
<feFlood flood-opacity="0" result="BackgroundImageFix"/>
<feColorMatrix in="SourceAlpha" type="matrix" values="0 0 0 0 0 0 0 0 0 0 0 0 0 0 0 0 0 0 127 0"/>
<feOffset dy="4.6989"/>
<feGaussianBlur stdDeviation="9.46749"/>
<feColorMatrix type="matrix" values="0 0 0 0 1 0 0 0 0 0.587917 0 0 0 0 0.104167 0 0 0 0.5 0"/>
<feBlend mode="normal" in2="BackgroundImageFix" result="effect1_dropShadow"/>
<feBlend mode="normal" in="SourceGraphic" in2="effect1_dropShadow" result="shape"/>
</filter>
<filter id="filter1_d" x="133.343" y="40.1976" width="25.5427" height="25.5427" filterUnits="userSpaceOnUse" color-interpolation-filters="sRGB">
<feFlood flood-opacity="0" result="BackgroundImageFix"/>
<feColorMatrix in="SourceAlpha" type="matrix" values="0 0 0 0 0 0 0 0 0 0 0 0 0 0 0 0 0 0 127 0"/>
<feOffset dy="2.77822"/>
<feGaussianBlur stdDeviation="1.85215"/>
<feColorMatrix type="matrix" values="0 0 0 0 1 0 0 0 0 0.80475 0 0 0 0 0.1125 0 0 0 0.29 0"/>
<feBlend mode="normal" in2="BackgroundImageFix" result="effect1_dropShadow"/>
<feBlend mode="normal" in="SourceGraphic" in2="effect1_dropShadow" result="shape"/>
</filter>
<filter id="filter2_d" x="133.343" y="65.3001" width="25.5427" height="25.5427" filterUnits="userSpaceOnUse" color-interpolation-filters="sRGB">
<feFlood flood-opacity="0" result="BackgroundImageFix"/>
<feColorMatrix in="SourceAlpha" type="matrix" values="0 0 0 0 0 0 0 0 0 0 0 0 0 0 0 0 0 0 127 0"/>
<feOffset dy="2.77822"/>
<feGaussianBlur stdDeviation="1.85215"/>
<feColorMatrix type="matrix" values="0 0 0 0 1 0 0 0 0 0.80475 0 0 0 0 0.1125 0 0 0 0.29 0"/>
<feBlend mode="normal" in2="BackgroundImageFix" result="effect1_dropShadow"/>
<feBlend mode="normal" in="SourceGraphic" in2="effect1_dropShadow" result="shape"/>
</filter>
<filter id="filter3_d" x="133.343" y="89.4072" width="25.5427" height="25.5427" filterUnits="userSpaceOnUse" color-interpolation-filters="sRGB">
<feFlood flood-opacity="0" result="BackgroundImageFix"/>
<feColorMatrix in="SourceAlpha" type="matrix" values="0 0 0 0 0 0 0 0 0 0 0 0 0 0 0 0 0 0 127 0"/>
<feOffset dy="2.77822"/>
<feGaussianBlur stdDeviation="1.85215"/>
<feColorMatrix type="matrix" values="0 0 0 0 1 0 0 0 0 0.80475 0 0 0 0 0.1125 0 0 0 0.29 0"/>
<feBlend mode="normal" in2="BackgroundImageFix" result="effect1_dropShadow"/>
<feBlend mode="normal" in="SourceGraphic" in2="effect1_dropShadow" result="shape"/>
</filter>
<filter id="filter4_d" x="40.5438" y="41.0661" width="122.625" height="121.94" filterUnits="userSpaceOnUse" color-interpolation-filters="sRGB">
<feFlood flood-opacity="0" result="BackgroundImageFix"/>
<feColorMatrix in="SourceAlpha" type="matrix" values="0 0 0 0 0 0 0 0 0 0 0 0 0 0 0 0 0 0 127 0"/>
<feOffset dy="3.98212"/>
<feGaussianBlur stdDeviation="11.9464"/>
<feColorMatrix type="matrix" values="0 0 0 0 1 0 0 0 0 0.80475 0 0 0 0 0.1125 0 0 0 0.4 0"/>
<feBlend mode="normal" in2="BackgroundImageFix" result="effect1_dropShadow"/>
<feBlend mode="normal" in="SourceGraphic" in2="effect1_dropShadow" result="shape"/>
</filter>
<filter id="filter5_d" x="92.8274" y="114.709" width="18.0609" height="13.2772" filterUnits="userSpaceOnUse" color-interpolation-filters="sRGB">
<feFlood flood-opacity="0" result="BackgroundImageFix"/>
<feColorMatrix in="SourceAlpha" type="matrix" values="0 0 0 0 0 0 0 0 0 0 0 0 0 0 0 0 0 0 127 0"/>
<feOffset dy="1.99106"/>
<feGaussianBlur stdDeviation="1.99106"/>
<feColorMatrix type="matrix" values="0 0 0 0 1 0 0 0 0 0.80475 0 0 0 0 0.1125 0 0 0 0.25 0"/>
<feBlend mode="normal" in2="BackgroundImageFix" result="effect1_dropShadow"/>
<feBlend mode="normal" in="SourceGraphic" in2="effect1_dropShadow" result="shape"/>
</filter>
<filter id="filter6_d" x="96.7449" y="69.0177" width="10.2236" height="15.5365" filterUnits="userSpaceOnUse" color-interpolation-filters="sRGB">
<feFlood flood-opacity="0" result="BackgroundImageFix"/>
<feColorMatrix in="SourceAlpha" type="matrix" values="0 0 0 0 0 0 0 0 0 0 0 0 0 0 0 0 0 0 127 0"/>
<feOffset dy="0.99553"/>
<feGaussianBlur stdDeviation="1.4933"/>
<feColorMatrix type="matrix" values="0 0 0 0 1 0 0 0 0 0.80475 0 0 0 0 0.1125 0 0 0 0.2 0"/>
<feBlend mode="normal" in2="BackgroundImageFix" result="effect1_dropShadow"/>
<feBlend mode="normal" in="SourceGraphic" in2="effect1_dropShadow" result="shape"/>
</filter>
<filter id="filter7_d" x="110.996" y="76.4879" width="14.0044" height="14.0065" filterUnits="userSpaceOnUse" color-interpolation-filters="sRGB">
<feFlood flood-opacity="0" result="BackgroundImageFix"/>
<feColorMatrix in="SourceAlpha" type="matrix" values="0 0 0 0 0 0 0 0 0 0 0 0 0 0 0 0 0 0 127 0"/>
<feOffset dy="0.99553"/>
<feGaussianBlur stdDeviation="1.4933"/>
<feColorMatrix type="matrix" values="0 0 0 0 1 0 0 0 0 0.80475 0 0 0 0 0.1125 0 0 0 0.2 0"/>
<feBlend mode="normal" in2="BackgroundImageFix" result="effect1_dropShadow"/>
<feBlend mode="normal" in="SourceGraphic" in2="effect1_dropShadow" result="shape"/>
</filter>
<filter id="filter8_d" x="115.872" y="94.5199" width="14.4739" height="10.2236" filterUnits="userSpaceOnUse" color-interpolation-filters="sRGB">
<feFlood flood-opacity="0" result="BackgroundImageFix"/>
<feColorMatrix in="SourceAlpha" type="matrix" values="0 0 0 0 0 0 0 0 0 0 0 0 0 0 0 0 0 0 127 0"/>
<feOffset dy="0.99553"/>
<feGaussianBlur stdDeviation="1.4933"/>
<feColorMatrix type="matrix" values="0 0 0 0 1 0 0 0 0 0.80475 0 0 0 0 0.1125 0 0 0 0.2 0"/>
<feBlend mode="normal" in2="BackgroundImageFix" result="effect1_dropShadow"/>
<feBlend mode="normal" in="SourceGraphic" in2="effect1_dropShadow" result="shape"/>
</filter>
<filter id="filter9_d" x="78.739" y="76.5139" width="13.9287" height="13.9287" filterUnits="userSpaceOnUse" color-interpolation-filters="sRGB">
<feFlood flood-opacity="0" result="BackgroundImageFix"/>
<feColorMatrix in="SourceAlpha" type="matrix" values="0 0 0 0 0 0 0 0 0 0 0 0 0 0 0 0 0 0 127 0"/>
<feOffset dy="0.99553"/>
<feGaussianBlur stdDeviation="1.4933"/>
<feColorMatrix type="matrix" values="0 0 0 0 1 0 0 0 0 0.80475 0 0 0 0 0.1125 0 0 0 0.2 0"/>
<feBlend mode="normal" in2="BackgroundImageFix" result="effect1_dropShadow"/>
<feBlend mode="normal" in="SourceGraphic" in2="effect1_dropShadow" result="shape"/>
</filter>
<filter id="filter10_d" x="73.3679" y="94.5199" width="14.4739" height="10.2236" filterUnits="userSpaceOnUse" color-interpolation-filters="sRGB">
<feFlood flood-opacity="0" result="BackgroundImageFix"/>
<feColorMatrix in="SourceAlpha" type="matrix" values="0 0 0 0 0 0 0 0 0 0 0 0 0 0 0 0 0 0 127 0"/>
<feOffset dy="0.99553"/>
<feGaussianBlur stdDeviation="1.4933"/>
<feColorMatrix type="matrix" values="0 0 0 0 1 0 0 0 0 0.80475 0 0 0 0 0.1125 0 0 0 0.2 0"/>
<feBlend mode="normal" in2="BackgroundImageFix" result="effect1_dropShadow"/>
<feBlend mode="normal" in="SourceGraphic" in2="effect1_dropShadow" result="shape"/>
</filter>
<filter id="filter11_d" x="85.0769" y="81.7688" width="33.5797" height="35.7258" filterUnits="userSpaceOnUse" color-interpolation-filters="sRGB">
<feFlood flood-opacity="0" result="BackgroundImageFix"/>
<feColorMatrix in="SourceAlpha" type="matrix" values="0 0 0 0 0 0 0 0 0 0 0 0 0 0 0 0 0 0 127 0"/>
<feOffset dy="0.99553"/>
<feGaussianBlur stdDeviation="1.4933"/>
<feColorMatrix type="matrix" values="0 0 0 0 1 0 0 0 0 0.80475 0 0 0 0 0.1125 0 0 0 0.2 0"/>
<feBlend mode="normal" in2="BackgroundImageFix" result="effect1_dropShadow"/>
<feBlend mode="normal" in="SourceGraphic" in2="effect1_dropShadow" result="shape"/>
</filter>
</defs>
</svg>
