<svg width="332" height="489" viewBox="0 0 332 489" fill="none" xmlns="http://www.w3.org/2000/svg">
<g filter="url(#filter0_d)">
<rect x="10.2749" y="14.1621" width="271.645" height="439.121" rx="33.8632" fill="white"/>
</g>
<rect x="78.439" y="62.3372" width="117.052" height="11.2056" rx="5.60281" fill="#E7E8F1"/>
<g filter="url(#filter1_d)">
<rect x="28.9253" y="98.8564" width="234.343" height="183.125" rx="30.7847" fill="#1B76FF"/>
</g>
<g filter="url(#filter2_d)">
<circle cx="48.4223" cy="313.792" r="19.497" fill="#F4263E"/>
</g>
<g filter="url(#filter3_d)">
<path d="M58.0583 308.049C57.6952 307.321 57.1641 306.69 56.509 306.208C55.8538 305.725 55.0933 305.406 54.2903 305.276C53.4874 305.145 52.6649 305.208 51.8909 305.458C51.1169 305.709 50.4136 306.139 49.8389 306.715L48.8258 307.728C48.7189 307.835 48.574 307.895 48.4229 307.895C48.2718 307.895 48.1269 307.835 48.02 307.728L47.0057 306.715C46.0433 305.753 44.738 305.212 43.3769 305.212C42.0159 305.212 40.7106 305.753 39.7482 306.715C38.7858 307.678 38.2451 308.983 38.2451 310.344C38.2451 311.705 38.7858 313.01 39.7482 313.973L47.3727 321.927C47.5084 322.068 47.6714 322.181 47.8517 322.258C48.0321 322.335 48.2262 322.374 48.4223 322.374C48.6184 322.374 48.8125 322.335 48.9929 322.258C49.1733 322.181 49.3362 322.068 49.472 321.927L57.0964 313.973C57.8586 313.211 58.3618 312.229 58.5344 311.166C58.7071 310.103 58.5405 309.012 58.0583 308.049V308.049Z" fill="white"/>
</g>
<rect x="83.2471" y="301.556" width="171.587" height="7.10467" rx="3.55233" fill="#E7E8F1"/>
<rect x="83.2466" y="318.923" width="133.031" height="7.10467" rx="3.55233" fill="#E7E8F1"/>
<g filter="url(#filter4_d)">
<circle cx="49.0985" cy="67.94" r="20.1732" fill="#782CE4"/>
</g>
<mask id="mask0" mask-type="alpha" maskUnits="userSpaceOnUse" x="28" y="47" width="42" height="42">
<circle cx="49.0985" cy="67.94" r="20.1732" fill="#FFCD1D"/>
</mask>
<g mask="url(#mask0)">
<g filter="url(#filter5_d)">
<path d="M53.4794 77.2292C53.4794 77.2292 52.6033 80.7339 49.0986 80.7339C45.594 80.7339 44.7178 77.2292 44.7178 77.2292C44.7178 77.2292 35.0801 78.9693 35.0801 88.6193H63.1172C63.1172 79.0035 53.4794 77.2292 53.4794 77.2292Z" fill="#F4263E"/>
<path d="M49.0986 82.4863C44.7178 82.4863 44.7178 77.2294 44.7178 77.2294V71.9724H53.4794V77.2294C53.4794 77.2294 53.4794 82.4863 49.0986 82.4863Z" fill="#FFC673"/>
<path d="M58.7366 66.7155C58.7366 67.6836 57.9524 68.4678 56.9843 68.4678C56.0161 68.4678 55.2319 67.6836 55.2319 66.7155C55.2319 65.7473 56.0161 64.9631 56.9843 64.9631C57.9524 64.9631 58.7366 65.7473 58.7366 66.7155Z" fill="#FFC673"/>
<path d="M42.9656 66.7155C42.9656 67.6836 42.1814 68.4678 41.2133 68.4678C40.2451 68.4678 39.4609 67.6836 39.4609 66.7155C39.4609 65.7473 40.2451 64.9631 41.2133 64.9631C42.1814 64.9631 42.9656 65.7473 42.9656 66.7155Z" fill="#FFC673"/>
<path d="M56.9838 61.4583C56.9838 54.7688 41.2129 57.1029 41.2129 61.4583V67.5914C41.2129 71.9468 44.7429 75.4769 49.0983 75.4769C53.4537 75.4769 56.9838 71.9468 56.9838 67.5914V61.4583Z" fill="#FFDEAD"/>
<path d="M49.0985 53.573C43.7758 53.573 40.3369 57.8881 40.3369 63.2108V65.2119L42.0892 66.7154V62.3346L52.6031 58.83L56.1078 62.3346V66.7154L57.8601 65.19V63.2108C57.8601 59.6842 56.9506 56.1883 52.6031 55.3253L51.727 53.573H49.0985Z" fill="#323765"/>
<path d="M49.0984 82.4862C53.4792 82.4862 55.0081 79.0429 55.1886 77.7304C54.1749 77.3589 53.4792 77.2292 53.4792 77.2292C53.4792 77.2292 52.603 80.7339 49.0984 80.7339C45.5937 80.7339 44.7176 77.2292 44.7176 77.2292C44.7176 77.2292 44.0219 77.3572 43.0073 77.7252C43.1861 79.035 44.7176 82.4862 49.0984 82.4862Z" fill="#F4263E"/>
</g>
</g>
<rect opacity="0.5" x="28.9253" y="353.192" width="234.343" height="65.6877" rx="10.2616" fill="#E7E8F1"/>
<g filter="url(#filter6_d)">
<circle cx="280.919" cy="46.6374" r="36.4463" transform="rotate(15 280.919 46.6374)" fill="#F4263E"/>
</g>
<g filter="url(#filter7_d)">
<path d="M301.096 40.9292C300.793 39.4391 300.139 38.0426 299.189 36.855C298.24 35.6674 297.021 34.7227 295.634 34.099C294.247 33.4753 292.732 33.1905 291.213 33.268C289.695 33.3455 288.216 33.7831 286.9 34.5448L284.58 35.884C284.336 36.0252 284.045 36.0635 283.772 35.9904C283.499 35.9173 283.267 35.7388 283.125 35.4942L281.784 33.174C280.512 30.9707 278.417 29.3629 275.959 28.7044C273.502 28.0459 270.883 28.3906 268.68 29.6627C266.476 30.9348 264.869 33.0301 264.21 35.4877C263.552 37.9452 263.896 40.5637 265.168 42.7671L275.087 60.8177C275.264 61.1389 275.504 61.4211 275.792 61.6474C276.081 61.8736 276.412 62.0391 276.766 62.134C277.12 62.2288 277.49 62.2511 277.853 62.1995C278.216 62.1478 278.564 62.0233 278.878 61.8334L296.493 51.1605C298.238 50.1546 299.621 48.6249 300.447 46.7885C301.274 44.952 301.501 42.9019 301.096 40.9292V40.9292Z" fill="white"/>
</g>
<g filter="url(#filter8_d)">
<circle cx="269.024" cy="437.219" r="34.4749" transform="rotate(-10 269.024 437.219)" fill="#1B76FF"/>
</g>
<g clip-path="url(#clip0)" filter="url(#filter9_d)">
<path d="M284.537 434.72C284.607 434.15 284.542 433.571 284.348 433.031C284.153 432.491 283.835 432.003 283.418 431.608C283.002 431.213 282.498 430.921 281.948 430.756C281.398 430.59 280.817 430.556 280.252 430.656L272.907 431.951C272.629 432 272.343 431.978 272.076 431.887C271.81 431.796 271.57 431.638 271.38 431.429C271.191 431.22 271.057 430.967 270.992 430.692C270.927 430.418 270.933 430.131 271.009 429.859L272.194 425.588C272.276 425.046 272.219 424.492 272.028 423.978C271.838 423.464 271.52 423.006 271.105 422.648C270.721 422.315 270.265 422.075 269.772 421.948C269.28 421.82 268.765 421.809 268.267 421.914C267.769 422.019 267.303 422.238 266.904 422.554C266.505 422.869 266.185 423.273 265.968 423.733L261.14 433.987C261.025 434.229 260.855 434.439 260.642 434.602C260.43 434.764 260.182 434.873 259.918 434.92C259.756 434.949 259.612 435.04 259.518 435.175C259.424 435.31 259.387 435.476 259.415 435.638L262.041 450.529C262.063 450.653 262.119 450.768 262.203 450.861C262.287 450.954 262.396 451.022 262.517 451.056C267.803 452.556 269.475 452.583 273.441 451.883C273.898 451.803 276.49 451.319 277.439 451.151C280.967 450.529 282.953 448.069 283.512 443.595L284.534 434.771L284.537 434.72Z" fill="white"/>
<path d="M257.333 435.376L257.299 435.382C257.14 434.937 256.83 434.562 256.422 434.323C256.013 434.085 255.534 433.998 255.069 434.079L253.094 434.427C252.92 434.458 252.764 434.556 252.663 434.702C252.561 434.847 252.521 435.026 252.552 435.201L255.801 453.628C255.832 453.803 255.931 453.958 256.076 454.06C256.221 454.161 256.401 454.201 256.575 454.17L258.55 453.822C259.074 453.73 259.539 453.433 259.844 452.998C260.149 452.562 260.268 452.023 260.176 451.5L257.333 435.376Z" fill="white"/>
</g>
<defs>
<filter id="filter0_d" x="0.0133381" y="5.95286" width="292.168" height="459.644" filterUnits="userSpaceOnUse" color-interpolation-filters="sRGB">
<feFlood flood-opacity="0" result="BackgroundImageFix"/>
<feColorMatrix in="SourceAlpha" type="matrix" values="0 0 0 0 0 0 0 0 0 0 0 0 0 0 0 0 0 0 127 0"/>
<feOffset dy="2.05231"/>
<feGaussianBlur stdDeviation="5.13078"/>
<feColorMatrix type="matrix" values="0 0 0 0 0.121042 0 0 0 0 0.143938 0 0 0 0 0.35 0 0 0 0.08 0"/>
<feBlend mode="normal" in2="BackgroundImageFix" result="effect1_dropShadow"/>
<feBlend mode="normal" in="SourceGraphic" in2="effect1_dropShadow" result="shape"/>
</filter>
<filter id="filter1_d" x="14.5591" y="97.8303" width="263.075" height="211.857" filterUnits="userSpaceOnUse" color-interpolation-filters="sRGB">
<feFlood flood-opacity="0" result="BackgroundImageFix"/>
<feColorMatrix in="SourceAlpha" type="matrix" values="0 0 0 0 0 0 0 0 0 0 0 0 0 0 0 0 0 0 127 0"/>
<feOffset dy="13.34"/>
<feGaussianBlur stdDeviation="7.18309"/>
<feColorMatrix type="matrix" values="0 0 0 0 0.104167 0 0 0 0 0.4625 0 0 0 0 1 0 0 0 0.1 0"/>
<feBlend mode="normal" in2="BackgroundImageFix" result="effect1_dropShadow"/>
<feBlend mode="normal" in="SourceGraphic" in2="effect1_dropShadow" result="shape"/>
</filter>
<filter id="filter2_d" x="22.7684" y="293.269" width="51.3078" height="51.3078" filterUnits="userSpaceOnUse" color-interpolation-filters="sRGB">
<feFlood flood-opacity="0" result="BackgroundImageFix"/>
<feColorMatrix in="SourceAlpha" type="matrix" values="0 0 0 0 0 0 0 0 0 0 0 0 0 0 0 0 0 0 127 0"/>
<feOffset dy="5.13078"/>
<feGaussianBlur stdDeviation="3.07847"/>
<feColorMatrix type="matrix" values="0 0 0 0 0.956863 0 0 0 0 0.14902 0 0 0 0 0.243137 0 0 0 0.16 0"/>
<feBlend mode="normal" in2="BackgroundImageFix" result="effect1_dropShadow"/>
<feBlend mode="normal" in="SourceGraphic" in2="effect1_dropShadow" result="shape"/>
</filter>
<filter id="filter3_d" x="34.1405" y="303.157" width="28.5648" height="25.3741" filterUnits="userSpaceOnUse" color-interpolation-filters="sRGB">
<feFlood flood-opacity="0" result="BackgroundImageFix"/>
<feColorMatrix in="SourceAlpha" type="matrix" values="0 0 0 0 0 0 0 0 0 0 0 0 0 0 0 0 0 0 127 0"/>
<feOffset dy="2.05231"/>
<feGaussianBlur stdDeviation="2.05231"/>
<feColorMatrix type="matrix" values="0 0 0 0 0.121042 0 0 0 0 0.143938 0 0 0 0 0.35 0 0 0 0.15 0"/>
<feBlend mode="normal" in2="BackgroundImageFix" result="effect1_dropShadow"/>
<feBlend mode="normal" in="SourceGraphic" in2="effect1_dropShadow" result="shape"/>
</filter>
<filter id="filter4_d" x="20.716" y="45.7145" width="56.7649" height="56.7649" filterUnits="userSpaceOnUse" color-interpolation-filters="sRGB">
<feFlood flood-opacity="0" result="BackgroundImageFix"/>
<feColorMatrix in="SourceAlpha" type="matrix" values="0 0 0 0 0 0 0 0 0 0 0 0 0 0 0 0 0 0 127 0"/>
<feOffset dy="6.15694"/>
<feGaussianBlur stdDeviation="4.10463"/>
<feColorMatrix type="matrix" values="0 0 0 0 0.470588 0 0 0 0 0.172549 0 0 0 0 0.894118 0 0 0 0.14 0"/>
<feBlend mode="normal" in2="BackgroundImageFix" result="effect1_dropShadow"/>
<feBlend mode="normal" in="SourceGraphic" in2="effect1_dropShadow" result="shape"/>
</filter>
<filter id="filter5_d" x="28.9231" y="51.5207" width="40.351" height="47.3602" filterUnits="userSpaceOnUse" color-interpolation-filters="sRGB">
<feFlood flood-opacity="0" result="BackgroundImageFix"/>
<feColorMatrix in="SourceAlpha" type="matrix" values="0 0 0 0 0 0 0 0 0 0 0 0 0 0 0 0 0 0 127 0"/>
<feOffset dy="4.10463"/>
<feGaussianBlur stdDeviation="3.07847"/>
<feColorMatrix type="matrix" values="0 0 0 0 0 0 0 0 0 0 0 0 0 0 0 0 0 0 0.33 0"/>
<feBlend mode="normal" in2="BackgroundImageFix" result="effect1_dropShadow"/>
<feBlend mode="normal" in="SourceGraphic" in2="effect1_dropShadow" result="shape"/>
</filter>
<filter id="filter6_d" x="230.125" y="0.973844" width="101.589" height="101.589" filterUnits="userSpaceOnUse" color-interpolation-filters="sRGB">
<feFlood flood-opacity="0" result="BackgroundImageFix"/>
<feColorMatrix in="SourceAlpha" type="matrix" values="0 0 0 0 0 0 0 0 0 0 0 0 0 0 0 0 0 0 127 0"/>
<feOffset dy="5.13078"/>
<feGaussianBlur stdDeviation="3.07847"/>
<feColorMatrix type="matrix" values="0 0 0 0 0.956863 0 0 0 0 0.14902 0 0 0 0 0.243137 0 0 0 0.16 0"/>
<feBlend mode="normal" in2="BackgroundImageFix" result="effect1_dropShadow"/>
<feBlend mode="normal" in="SourceGraphic" in2="effect1_dropShadow" result="shape"/>
</filter>
<filter id="filter7_d" x="254.285" y="24.1642" width="53.2687" height="49.0512" filterUnits="userSpaceOnUse" color-interpolation-filters="sRGB">
<feFlood flood-opacity="0" result="BackgroundImageFix"/>
<feColorMatrix in="SourceAlpha" type="matrix" values="0 0 0 0 0 0 0 0 0 0 0 0 0 0 0 0 0 0 127 0"/>
<feOffset dy="2.05231"/>
<feGaussianBlur stdDeviation="2.05231"/>
<feColorMatrix type="matrix" values="0 0 0 0 0.121042 0 0 0 0 0.143938 0 0 0 0 0.35 0 0 0 0.15 0"/>
<feBlend mode="normal" in2="BackgroundImageFix" result="effect1_dropShadow"/>
<feBlend mode="normal" in="SourceGraphic" in2="effect1_dropShadow" result="shape"/>
</filter>
<filter id="filter8_d" x="222.929" y="396.255" width="92.1891" height="92.1891" filterUnits="userSpaceOnUse" color-interpolation-filters="sRGB">
<feFlood flood-opacity="0" result="BackgroundImageFix"/>
<feColorMatrix in="SourceAlpha" type="matrix" values="0 0 0 0 0 0 0 0 0 0 0 0 0 0 0 0 0 0 127 0"/>
<feOffset dy="5.13078"/>
<feGaussianBlur stdDeviation="3.07847"/>
<feColorMatrix type="matrix" values="0 0 0 0 0.104167 0 0 0 0 0.4625 0 0 0 0 1 0 0 0 0.22 0"/>
<feBlend mode="normal" in2="BackgroundImageFix" result="effect1_dropShadow"/>
<feBlend mode="normal" in="SourceGraphic" in2="effect1_dropShadow" result="shape"/>
</filter>
<filter id="filter9_d" x="244.286" y="415.561" width="49.4739" height="49.4739" filterUnits="userSpaceOnUse" color-interpolation-filters="sRGB">
<feFlood flood-opacity="0" result="BackgroundImageFix"/>
<feColorMatrix in="SourceAlpha" type="matrix" values="0 0 0 0 0 0 0 0 0 0 0 0 0 0 0 0 0 0 127 0"/>
<feOffset dy="3.07847"/>
<feGaussianBlur stdDeviation="3.07847"/>
<feColorMatrix type="matrix" values="0 0 0 0 0 0 0 0 0 0 0 0 0 0 0 0 0 0 0.23 0"/>
<feBlend mode="normal" in2="BackgroundImageFix" result="effect1_dropShadow"/>
<feBlend mode="normal" in="SourceGraphic" in2="effect1_dropShadow" result="shape"/>
</filter>
<clipPath id="clip0">
<rect width="32.0772" height="32.0772" fill="white" transform="translate(250.443 424.209) rotate(-10)"/>
</clipPath>
</defs>
</svg>
