<svg width="238" height="212" viewBox="0 0 238 212" fill="none" xmlns="http://www.w3.org/2000/svg">
<rect width="237.656" height="211.422" rx="40.1238" fill="white"/>
<g filter="url(#filter0_d)">
<path d="M197.281 83.3547C202.297 100.368 201.646 118.551 195.426 135.162C189.207 151.773 177.756 165.912 162.8 175.448C147.844 184.984 130.194 189.399 112.509 188.029C94.8251 186.658 78.0656 179.576 64.7572 167.851L97.1999 131.03C102.523 135.72 109.227 138.553 116.301 139.101C123.374 139.649 130.435 137.883 136.417 134.069C142.399 130.254 146.98 124.599 149.467 117.954C151.955 111.31 152.216 104.037 150.209 97.2313L197.281 83.3547Z" fill="#F4263E"/>
</g>
<g filter="url(#filter1_d)">
<path d="M64.7973 167.886C56.0489 160.188 49.0464 150.709 44.2589 140.085C39.4714 129.461 37.0093 117.936 37.0377 106.283L86.1121 106.403C86.1007 111.064 87.0855 115.674 89.0005 119.923C90.9155 124.173 93.7165 127.965 97.2159 131.044L64.7973 167.886Z" fill="#FFCD1D"/>
</g>
<g filter="url(#filter2_d)">
<path d="M37.0375 106.482C37.0375 86.8136 44.1252 67.8036 57.0019 52.9358C69.8785 38.0681 87.6816 28.3384 107.149 25.5297C126.616 22.7211 146.443 27.0216 162.997 37.6432C179.552 48.2648 191.724 64.4961 197.284 83.3627L150.21 97.2345C147.987 89.6879 143.118 83.1953 136.496 78.9467C129.874 74.6981 121.943 72.9778 114.157 74.1013C106.37 75.2248 99.2484 79.1166 94.0977 85.0637C88.9471 91.0109 86.112 98.6149 86.112 106.482L37.0375 106.482Z" fill="#FF961B"/>
</g>
<defs>
<filter id="filter0_d" x="58.5839" y="83.3547" width="148.208" height="117.264" filterUnits="userSpaceOnUse" color-interpolation-filters="sRGB">
<feFlood flood-opacity="0" result="BackgroundImageFix"/>
<feColorMatrix in="SourceAlpha" type="matrix" values="0 0 0 0 0 0 0 0 0 0 0 0 0 0 0 0 0 0 127 0"/>
<feOffset dy="6.17289"/>
<feGaussianBlur stdDeviation="3.08645"/>
<feColorMatrix type="matrix" values="0 0 0 0 0.956863 0 0 0 0 0.14902 0 0 0 0 0.243137 0 0 0 0.18 0"/>
<feBlend mode="normal" in2="BackgroundImageFix" result="effect1_dropShadow"/>
<feBlend mode="normal" in="SourceGraphic" in2="effect1_dropShadow" result="shape"/>
</filter>
<filter id="filter1_d" x="26.2345" y="98.5671" width="81.7836" height="83.2079" filterUnits="userSpaceOnUse" color-interpolation-filters="sRGB">
<feFlood flood-opacity="0" result="BackgroundImageFix"/>
<feColorMatrix in="SourceAlpha" type="matrix" values="0 0 0 0 0 0 0 0 0 0 0 0 0 0 0 0 0 0 127 0"/>
<feOffset dy="3.08645"/>
<feGaussianBlur stdDeviation="5.40128"/>
<feColorMatrix type="matrix" values="0 0 0 0 1 0 0 0 0 0.80475 0 0 0 0 0.1125 0 0 0 0.12 0"/>
<feBlend mode="normal" in2="BackgroundImageFix" result="effect1_dropShadow"/>
<feBlend mode="normal" in="SourceGraphic" in2="effect1_dropShadow" result="shape"/>
</filter>
<filter id="filter2_d" x="30.8642" y="23.1482" width="172.592" height="94.1368" filterUnits="userSpaceOnUse" color-interpolation-filters="sRGB">
<feFlood flood-opacity="0" result="BackgroundImageFix"/>
<feColorMatrix in="SourceAlpha" type="matrix" values="0 0 0 0 0 0 0 0 0 0 0 0 0 0 0 0 0 0 127 0"/>
<feOffset dy="4.62967"/>
<feGaussianBlur stdDeviation="3.08645"/>
<feColorMatrix type="matrix" values="0 0 0 0 1 0 0 0 0 0.587917 0 0 0 0 0.104167 0 0 0 0.22 0"/>
<feBlend mode="normal" in2="BackgroundImageFix" result="effect1_dropShadow"/>
<feBlend mode="normal" in="SourceGraphic" in2="effect1_dropShadow" result="shape"/>
</filter>
</defs>
</svg>
