<svg width="172" height="172" viewBox="0 0 172 172" fill="none" xmlns="http://www.w3.org/2000/svg">
<rect opacity="0.03" x="0.466797" width="171.472" height="171.472" rx="75" fill="#F4263E"/>
<path d="M123.859 78.6753C132.957 78.6753 140.333 71.2993 140.333 62.2006C140.333 53.1018 132.957 45.7258 123.859 45.7258C114.76 45.7258 107.384 53.1018 107.384 62.2006C107.384 71.2993 114.76 78.6753 123.859 78.6753Z" fill="#782CE4"/>
<path d="M42.8285 149.281C52.113 149.281 59.6395 141.755 59.6395 132.47C59.6395 123.186 52.113 115.659 42.8285 115.659C33.5441 115.659 26.0176 123.186 26.0176 132.47C26.0176 141.755 33.5441 149.281 42.8285 149.281Z" fill="#FF961B"/>
<g filter="url(#filter0_d)">
<path d="M41.2754 72.7754H130.564V129.134C130.564 132.282 128.012 134.833 124.864 134.833H46.9746C43.827 134.833 41.2754 132.282 41.2754 129.134V72.7754Z" fill="#F4263E"/>
</g>
<path d="M130.564 72.7754L87.7267 43.002C86.6399 42.2469 85.199 42.2469 84.1123 43.002L41.2754 72.7754H130.564Z" fill="#F4263E"/>
<path d="M41.2754 72.7754L85.1964 103.302C85.6314 103.604 86.2075 103.604 86.6424 103.302L130.564 72.7754H41.2754Z" fill="#C6182C"/>
<g filter="url(#filter1_d)">
<path d="M55.1094 41.7942C55.1094 38.9964 57.3776 36.7283 60.1755 36.7283H111.269C114.067 36.7283 116.335 38.9964 116.335 41.7942V82.666L85.4695 104.131L55.1094 82.3945V41.7942Z" fill="white"/>
</g>
<path d="M121.225 126.601L86.7871 99.6623C86.0946 99.1205 85.1211 99.1249 84.4331 99.6724L50.6182 126.601" stroke="#C6182C" stroke-width="4" stroke-linecap="round"/>
<path d="M90.5952 105.187L85.6284 101.268L80.8447 105.074L90.5952 105.187Z" fill="#F4263E"/>
<path d="M108.718 72.7987H62.4913C61.617 72.7987 60.9082 73.5075 60.9082 74.3818C60.9082 75.2562 61.617 75.9649 62.4913 75.9649H108.718C109.593 75.9649 110.302 75.2562 110.302 74.3818C110.302 73.5075 109.593 72.7987 108.718 72.7987Z" fill="#E7E8F1"/>
<g filter="url(#filter2_d)">
<path d="M72.3067 43.0361H63.4412C62.0423 43.0361 60.9082 44.1701 60.9082 45.5691V54.4345C60.9082 55.8335 62.0423 56.9675 63.4412 56.9675H72.3067C73.7056 56.9675 74.8397 55.8335 74.8397 54.4345V45.5691C74.8397 44.1701 73.7056 43.0361 72.3067 43.0361Z" fill="#1B76FF"/>
</g>
<path d="M101.119 60.1339H62.4913C61.617 60.1339 60.9082 60.8427 60.9082 61.717C60.9082 62.5914 61.617 63.3002 62.4913 63.3002H101.119C101.994 63.3002 102.703 62.5914 102.703 61.717C102.703 60.8427 101.994 60.1339 101.119 60.1339Z" fill="#E7E8F1"/>
<path d="M88.4545 66.4665H62.4913C61.617 66.4665 60.9082 67.1753 60.9082 68.0496C60.9082 68.9239 61.617 69.6327 62.4913 69.6327H88.4545C89.3289 69.6327 90.0376 68.9239 90.0376 68.0496C90.0376 67.1753 89.3289 66.4665 88.4545 66.4665Z" fill="#E7E8F1"/>
<g filter="url(#filter3_d)">
<path d="M74.5231 79.1315H62.4913C61.617 79.1315 60.9082 79.8403 60.9082 80.7146C60.9082 81.589 61.617 82.2978 62.4913 82.2978H74.5231C75.3974 82.2978 76.1062 81.589 76.1062 80.7146C76.1062 79.8403 75.3974 79.1315 74.5231 79.1315Z" fill="#F4263E"/>
</g>
<defs>
<filter id="filter0_d" x="26.2754" y="71.7754" width="119.288" height="92.0581" filterUnits="userSpaceOnUse" color-interpolation-filters="sRGB">
<feFlood flood-opacity="0" result="BackgroundImageFix"/>
<feColorMatrix in="SourceAlpha" type="matrix" values="0 0 0 0 0 0 0 0 0 0 0 0 0 0 0 0 0 0 127 0"/>
<feOffset dy="14"/>
<feGaussianBlur stdDeviation="7.5"/>
<feColorMatrix type="matrix" values="0 0 0 0 0.956863 0 0 0 0 0.14902 0 0 0 0 0.243137 0 0 0 0.21 0"/>
<feBlend mode="normal" in2="BackgroundImageFix" result="effect1_dropShadow"/>
<feBlend mode="normal" in="SourceGraphic" in2="effect1_dropShadow" result="shape"/>
</filter>
<filter id="filter1_d" x="36.1094" y="11.7283" width="99.2257" height="105.403" filterUnits="userSpaceOnUse" color-interpolation-filters="sRGB">
<feFlood flood-opacity="0" result="BackgroundImageFix"/>
<feColorMatrix in="SourceAlpha" type="matrix" values="0 0 0 0 0 0 0 0 0 0 0 0 0 0 0 0 0 0 127 0"/>
<feOffset dy="-6"/>
<feGaussianBlur stdDeviation="9.5"/>
<feColorMatrix type="matrix" values="0 0 0 0 0.121042 0 0 0 0 0.143938 0 0 0 0 0.35 0 0 0 0.1 0"/>
<feBlend mode="normal" in2="BackgroundImageFix" result="effect1_dropShadow"/>
<feBlend mode="normal" in="SourceGraphic" in2="effect1_dropShadow" result="shape"/>
</filter>
<filter id="filter2_d" x="56.9082" y="42.0361" width="21.9315" height="21.9315" filterUnits="userSpaceOnUse" color-interpolation-filters="sRGB">
<feFlood flood-opacity="0" result="BackgroundImageFix"/>
<feColorMatrix in="SourceAlpha" type="matrix" values="0 0 0 0 0 0 0 0 0 0 0 0 0 0 0 0 0 0 127 0"/>
<feOffset dy="3"/>
<feGaussianBlur stdDeviation="2"/>
<feColorMatrix type="matrix" values="0 0 0 0 0.104167 0 0 0 0 0.4625 0 0 0 0 1 0 0 0 0.24 0"/>
<feBlend mode="normal" in2="BackgroundImageFix" result="effect1_dropShadow"/>
<feBlend mode="normal" in="SourceGraphic" in2="effect1_dropShadow" result="shape"/>
</filter>
<filter id="filter3_d" x="56.9082" y="78.1315" width="23.198" height="11.1662" filterUnits="userSpaceOnUse" color-interpolation-filters="sRGB">
<feFlood flood-opacity="0" result="BackgroundImageFix"/>
<feColorMatrix in="SourceAlpha" type="matrix" values="0 0 0 0 0 0 0 0 0 0 0 0 0 0 0 0 0 0 127 0"/>
<feOffset dy="3"/>
<feGaussianBlur stdDeviation="2"/>
<feColorMatrix type="matrix" values="0 0 0 0 0.956863 0 0 0 0 0.14902 0 0 0 0 0.243137 0 0 0 0.22 0"/>
<feBlend mode="normal" in2="BackgroundImageFix" result="effect1_dropShadow"/>
<feBlend mode="normal" in="SourceGraphic" in2="effect1_dropShadow" result="shape"/>
</filter>
</defs>
</svg>
