<svg width="266" height="221" viewBox="0 0 266 221" fill="none" xmlns="http://www.w3.org/2000/svg">
<rect opacity="0.03" x="23.1182" width="216.204" height="216.204" rx="55.3692" fill="#F4263E"/>
<g filter="url(#filter0_d)">
<rect x="63.2412" y="34.8518" width="129" height="158" rx="21" fill="white"/>
</g>
<g filter="url(#filter1_d)">
<rect x="73.2412" y="134.852" width="16" height="16" rx="5" fill="#782CE4"/>
</g>
<g filter="url(#filter2_d)">
<rect x="73.2412" y="158.852" width="16" height="16" rx="5" fill="#F4263E"/>
</g>
<rect opacity="0.5" x="96.2412" y="139.852" width="57" height="6" rx="3" fill="#BEBFCC"/>
<rect opacity="0.5" x="96.2412" y="163.852" width="81" height="6" rx="3" fill="#BEBFCC"/>
<rect x="73.2412" y="56.8518" width="110" height="69" rx="13" fill="#FAFAFC"/>
<g filter="url(#filter3_d)">
<path d="M76.2412 115.352C98.2412 115.352 100.741 79.4184 117.241 76.8518C133.741 74.2852 139.241 98.3518 156.741 98.3518C174.241 98.3518 168.474 69.8518 179.241 69.8518" stroke="#FE5660" stroke-width="3" stroke-linecap="round"/>
</g>
<g filter="url(#filter4_d)">
<path d="M76.2412 115.352C98.2412 115.352 86.7412 89.8518 118.241 101.352C149.741 112.852 142.241 88.8518 155.241 85.3518C168.241 81.8518 167.741 98.8518 179.741 96.3518" stroke="#782CE4" stroke-width="3" stroke-linecap="round"/>
</g>
<g filter="url(#filter5_d)">
<rect x="13" y="15.3518" width="94.0146" height="90.486" rx="18.2712" fill="white"/>
</g>
<path opacity="0.3" d="M92.7304 60.5947C92.7304 78.6672 78.0798 93.3178 60.0073 93.3178C41.9348 93.3178 27.2842 78.6672 27.2842 60.5947C27.2842 42.5222 41.9348 27.8716 60.0073 27.8716C78.0798 27.8716 92.7304 42.5222 92.7304 60.5947ZM38.2087 60.5947C38.2087 72.6337 47.9682 82.3933 60.0073 82.3933C72.0463 82.3933 81.8059 72.6337 81.8059 60.5947C81.8059 48.5556 72.0463 38.7961 60.0073 38.7961C47.9682 38.7961 38.2087 48.5556 38.2087 60.5947Z" fill="#E7E8F1"/>
<g filter="url(#filter6_d)">
<path d="M55.2735 87.4414C54.7496 90.4123 51.8921 92.4388 49.0496 91.4286C45.3021 90.0968 41.8139 88.0877 38.7654 85.4862C34.3258 81.6975 30.9803 76.7904 29.0756 71.2734C27.171 65.7565 26.7765 59.8305 27.9332 54.1098C29.0898 48.3891 31.7554 43.0819 35.6537 38.7382C39.552 34.3945 44.5411 31.1725 50.1039 29.4062C55.6667 27.6398 61.6006 27.3934 67.2907 28.6924C72.9807 29.9915 78.2198 32.7887 82.4648 36.7942C85.3797 39.5446 87.753 42.796 89.4809 46.3781C90.7915 49.0953 89.0847 52.1545 86.1876 52.9955V52.9955C83.2904 53.8364 80.3143 52.115 78.7812 49.5168C77.7452 47.761 76.4634 46.1514 74.9675 44.7399C72.1396 42.0717 68.6496 40.2082 64.8591 39.3429C61.0687 38.4775 57.1158 38.6417 53.4101 39.8183C49.7045 40.995 46.381 43.1413 43.7841 46.0349C41.1872 48.9285 39.4115 52.4639 38.641 56.2748C37.8705 60.0857 38.1333 64.0332 39.4021 67.7084C40.6708 71.3835 42.8995 74.6524 45.857 77.1763C47.4214 78.5114 49.1598 79.6123 51.017 80.4531C53.7652 81.6972 55.7973 84.4705 55.2735 87.4414V87.4414Z" fill="#1B76FF"/>
</g>
<g filter="url(#filter7_d)">
<rect x="153.241" y="108.263" width="96.1991" height="92.5884" rx="18.6957" fill="white"/>
</g>
<g filter="url(#filter8_d)">
<rect x="169.292" y="133.644" width="7.12218" height="51.2727" rx="3.56109" fill="#F4263E"/>
</g>
<g filter="url(#filter9_d)">
<rect x="183.536" y="155.232" width="7.12218" height="29.6842" rx="3.56109" fill="#FF961B"/>
</g>
<g filter="url(#filter10_d)">
<rect x="197.78" y="140.39" width="7.12218" height="44.5263" rx="3.56109" fill="#F4263E"/>
</g>
<g filter="url(#filter11_d)">
<rect x="212.025" y="124.199" width="7.12218" height="60.7176" rx="3.56109" fill="#FF961B"/>
</g>
<g filter="url(#filter12_d)">
<rect x="226.27" y="145.787" width="7.12218" height="39.1291" rx="3.56109" fill="#F4263E"/>
</g>
<defs>
<filter id="filter0_d" x="49.2412" y="24.8518" width="157" height="186" filterUnits="userSpaceOnUse" color-interpolation-filters="sRGB">
<feFlood flood-opacity="0" result="BackgroundImageFix"/>
<feColorMatrix in="SourceAlpha" type="matrix" values="0 0 0 0 0 0 0 0 0 0 0 0 0 0 0 0 0 0 127 0"/>
<feOffset dy="4"/>
<feGaussianBlur stdDeviation="7"/>
<feColorMatrix type="matrix" values="0 0 0 0 0.121042 0 0 0 0 0.143938 0 0 0 0 0.35 0 0 0 0.08 0"/>
<feBlend mode="normal" in2="BackgroundImageFix" result="effect1_dropShadow"/>
<feBlend mode="normal" in="SourceGraphic" in2="effect1_dropShadow" result="shape"/>
</filter>
<filter id="filter1_d" x="69.2412" y="133.852" width="24" height="24" filterUnits="userSpaceOnUse" color-interpolation-filters="sRGB">
<feFlood flood-opacity="0" result="BackgroundImageFix"/>
<feColorMatrix in="SourceAlpha" type="matrix" values="0 0 0 0 0 0 0 0 0 0 0 0 0 0 0 0 0 0 127 0"/>
<feOffset dy="3"/>
<feGaussianBlur stdDeviation="2"/>
<feColorMatrix type="matrix" values="0 0 0 0 0.470588 0 0 0 0 0.172549 0 0 0 0 0.894118 0 0 0 0.25 0"/>
<feBlend mode="normal" in2="BackgroundImageFix" result="effect1_dropShadow"/>
<feBlend mode="normal" in="SourceGraphic" in2="effect1_dropShadow" result="shape"/>
</filter>
<filter id="filter2_d" x="69.2412" y="157.852" width="24" height="24" filterUnits="userSpaceOnUse" color-interpolation-filters="sRGB">
<feFlood flood-opacity="0" result="BackgroundImageFix"/>
<feColorMatrix in="SourceAlpha" type="matrix" values="0 0 0 0 0 0 0 0 0 0 0 0 0 0 0 0 0 0 127 0"/>
<feOffset dy="3"/>
<feGaussianBlur stdDeviation="2"/>
<feColorMatrix type="matrix" values="0 0 0 0 0.956863 0 0 0 0 0.14902 0 0 0 0 0.243137 0 0 0 0.17 0"/>
<feBlend mode="normal" in2="BackgroundImageFix" result="effect1_dropShadow"/>
<feBlend mode="normal" in="SourceGraphic" in2="effect1_dropShadow" result="shape"/>
</filter>
<filter id="filter3_d" x="69.7412" y="66.3518" width="116" height="58.5" filterUnits="userSpaceOnUse" color-interpolation-filters="sRGB">
<feFlood flood-opacity="0" result="BackgroundImageFix"/>
<feColorMatrix in="SourceAlpha" type="matrix" values="0 0 0 0 0 0 0 0 0 0 0 0 0 0 0 0 0 0 127 0"/>
<feOffset dy="3"/>
<feGaussianBlur stdDeviation="2.5"/>
<feColorMatrix type="matrix" values="0 0 0 0 0.996078 0 0 0 0 0.337255 0 0 0 0 0.376471 0 0 0 0.16 0"/>
<feBlend mode="normal" in2="BackgroundImageFix" result="effect1_dropShadow"/>
<feBlend mode="normal" in="SourceGraphic" in2="effect1_dropShadow" result="shape"/>
</filter>
<filter id="filter4_d" x="69.7412" y="80.3752" width="116.5" height="43.4767" filterUnits="userSpaceOnUse" color-interpolation-filters="sRGB">
<feFlood flood-opacity="0" result="BackgroundImageFix"/>
<feColorMatrix in="SourceAlpha" type="matrix" values="0 0 0 0 0 0 0 0 0 0 0 0 0 0 0 0 0 0 127 0"/>
<feOffset dy="2"/>
<feGaussianBlur stdDeviation="2.5"/>
<feColorMatrix type="matrix" values="0 0 0 0 0.470588 0 0 0 0 0.172549 0 0 0 0 0.894118 0 0 0 0.21 0"/>
<feBlend mode="normal" in2="BackgroundImageFix" result="effect1_dropShadow"/>
<feBlend mode="normal" in="SourceGraphic" in2="effect1_dropShadow" result="shape"/>
</filter>
<filter id="filter5_d" x="0.819195" y="6.65123" width="118.376" height="114.848" filterUnits="userSpaceOnUse" color-interpolation-filters="sRGB">
<feFlood flood-opacity="0" result="BackgroundImageFix"/>
<feColorMatrix in="SourceAlpha" type="matrix" values="0 0 0 0 0 0 0 0 0 0 0 0 0 0 0 0 0 0 127 0"/>
<feOffset dy="3.48023"/>
<feGaussianBlur stdDeviation="6.0904"/>
<feColorMatrix type="matrix" values="0 0 0 0 0.121042 0 0 0 0 0.143938 0 0 0 0 0.35 0 0 0 0.11 0"/>
<feBlend mode="normal" in2="BackgroundImageFix" result="effect1_dropShadow"/>
<feBlend mode="normal" in="SourceGraphic" in2="effect1_dropShadow" result="shape"/>
</filter>
<filter id="filter6_d" x="24.8951" y="27.8716" width="67.4227" height="68.5978" filterUnits="userSpaceOnUse" color-interpolation-filters="sRGB">
<feFlood flood-opacity="0" result="BackgroundImageFix"/>
<feColorMatrix in="SourceAlpha" type="matrix" values="0 0 0 0 0 0 0 0 0 0 0 0 0 0 0 0 0 0 127 0"/>
<feOffset dy="2.38909"/>
<feGaussianBlur stdDeviation="1.19455"/>
<feColorMatrix type="matrix" values="0 0 0 0 0.104167 0 0 0 0 0.4625 0 0 0 0 1 0 0 0 0.17 0"/>
<feBlend mode="normal" in2="BackgroundImageFix" result="effect1_dropShadow"/>
<feBlend mode="normal" in="SourceGraphic" in2="effect1_dropShadow" result="shape"/>
</filter>
<filter id="filter7_d" x="136.781" y="95.3645" width="129.119" height="125.508" filterUnits="userSpaceOnUse" color-interpolation-filters="sRGB">
<feFlood flood-opacity="0" result="BackgroundImageFix"/>
<feColorMatrix in="SourceAlpha" type="matrix" values="0 0 0 0 0 0 0 0 0 0 0 0 0 0 0 0 0 0 127 0"/>
<feOffset dy="3.56109"/>
<feGaussianBlur stdDeviation="8.23"/>
<feColorMatrix type="matrix" values="0 0 0 0 0.121042 0 0 0 0 0.143938 0 0 0 0 0.35 0 0 0 0.09 0"/>
<feBlend mode="normal" in2="BackgroundImageFix" result="effect1_dropShadow"/>
<feBlend mode="normal" in="SourceGraphic" in2="effect1_dropShadow" result="shape"/>
</filter>
<filter id="filter8_d" x="165.731" y="133.644" width="14.2444" height="58.3948" filterUnits="userSpaceOnUse" color-interpolation-filters="sRGB">
<feFlood flood-opacity="0" result="BackgroundImageFix"/>
<feColorMatrix in="SourceAlpha" type="matrix" values="0 0 0 0 0 0 0 0 0 0 0 0 0 0 0 0 0 0 127 0"/>
<feOffset dy="3.56109"/>
<feGaussianBlur stdDeviation="1.78055"/>
<feColorMatrix type="matrix" values="0 0 0 0 0.956863 0 0 0 0 0.14902 0 0 0 0 0.243137 0 0 0 0.12 0"/>
<feBlend mode="normal" in2="BackgroundImageFix" result="effect1_dropShadow"/>
<feBlend mode="normal" in="SourceGraphic" in2="effect1_dropShadow" result="shape"/>
</filter>
<filter id="filter9_d" x="179.975" y="154.342" width="14.2444" height="36.8064" filterUnits="userSpaceOnUse" color-interpolation-filters="sRGB">
<feFlood flood-opacity="0" result="BackgroundImageFix"/>
<feColorMatrix in="SourceAlpha" type="matrix" values="0 0 0 0 0 0 0 0 0 0 0 0 0 0 0 0 0 0 127 0"/>
<feOffset dy="2.67082"/>
<feGaussianBlur stdDeviation="1.78055"/>
<feColorMatrix type="matrix" values="0 0 0 0 1 0 0 0 0 0.587917 0 0 0 0 0.104167 0 0 0 0.35 0"/>
<feBlend mode="normal" in2="BackgroundImageFix" result="effect1_dropShadow"/>
<feBlend mode="normal" in="SourceGraphic" in2="effect1_dropShadow" result="shape"/>
</filter>
<filter id="filter10_d" x="194.219" y="140.39" width="14.2444" height="51.6484" filterUnits="userSpaceOnUse" color-interpolation-filters="sRGB">
<feFlood flood-opacity="0" result="BackgroundImageFix"/>
<feColorMatrix in="SourceAlpha" type="matrix" values="0 0 0 0 0 0 0 0 0 0 0 0 0 0 0 0 0 0 127 0"/>
<feOffset dy="3.56109"/>
<feGaussianBlur stdDeviation="1.78055"/>
<feColorMatrix type="matrix" values="0 0 0 0 0.956863 0 0 0 0 0.14902 0 0 0 0 0.243137 0 0 0 0.12 0"/>
<feBlend mode="normal" in2="BackgroundImageFix" result="effect1_dropShadow"/>
<feBlend mode="normal" in="SourceGraphic" in2="effect1_dropShadow" result="shape"/>
</filter>
<filter id="filter11_d" x="208.464" y="123.308" width="14.2444" height="67.8398" filterUnits="userSpaceOnUse" color-interpolation-filters="sRGB">
<feFlood flood-opacity="0" result="BackgroundImageFix"/>
<feColorMatrix in="SourceAlpha" type="matrix" values="0 0 0 0 0 0 0 0 0 0 0 0 0 0 0 0 0 0 127 0"/>
<feOffset dy="2.67082"/>
<feGaussianBlur stdDeviation="1.78055"/>
<feColorMatrix type="matrix" values="0 0 0 0 1 0 0 0 0 0.587917 0 0 0 0 0.104167 0 0 0 0.35 0"/>
<feBlend mode="normal" in2="BackgroundImageFix" result="effect1_dropShadow"/>
<feBlend mode="normal" in="SourceGraphic" in2="effect1_dropShadow" result="shape"/>
</filter>
<filter id="filter12_d" x="222.708" y="145.787" width="14.2444" height="46.2513" filterUnits="userSpaceOnUse" color-interpolation-filters="sRGB">
<feFlood flood-opacity="0" result="BackgroundImageFix"/>
<feColorMatrix in="SourceAlpha" type="matrix" values="0 0 0 0 0 0 0 0 0 0 0 0 0 0 0 0 0 0 127 0"/>
<feOffset dy="3.56109"/>
<feGaussianBlur stdDeviation="1.78055"/>
<feColorMatrix type="matrix" values="0 0 0 0 0.956863 0 0 0 0 0.14902 0 0 0 0 0.243137 0 0 0 0.12 0"/>
<feBlend mode="normal" in2="BackgroundImageFix" result="effect1_dropShadow"/>
<feBlend mode="normal" in="SourceGraphic" in2="effect1_dropShadow" result="shape"/>
</filter>
</defs>
</svg>
