<svg width="239" height="221" viewBox="0 0 239 221" fill="none" xmlns="http://www.w3.org/2000/svg">
<g filter="url(#filter0_d)">
<rect x="35.7246" y="33.0002" width="167.475" height="151.026" rx="26.6801" fill="white"/>
</g>
<path opacity="0.3" d="M175.682 108.513C175.682 139.563 150.512 164.734 119.462 164.734C88.412 164.734 63.2412 139.563 63.2412 108.513C63.2412 77.4635 88.412 52.2927 119.462 52.2927C150.512 52.2927 175.682 77.4635 175.682 108.513ZM82.0102 108.513C82.0102 129.197 98.7779 145.965 119.462 145.965C140.146 145.965 156.913 129.197 156.913 108.513C156.913 87.8294 140.146 71.0617 119.462 71.0617C98.7779 71.0617 82.0102 87.8294 82.0102 108.513Z" fill="#E7E8F1"/>
<g filter="url(#filter1_d)">
<path d="M111.329 154.638C110.429 159.742 105.519 163.224 100.636 161.488C94.1972 159.2 88.2043 155.748 82.9668 151.279C75.3392 144.769 69.5914 136.339 66.3191 126.86C63.0468 117.382 62.3691 107.2 64.3562 97.3718C66.3434 87.5433 70.9231 78.4251 77.6207 70.9623C84.3182 63.4996 92.8899 57.964 102.447 54.9292C112.004 51.8945 122.199 51.4711 131.975 53.703C141.751 55.9349 150.752 60.7407 158.045 67.6225C163.053 72.3478 167.131 77.9338 170.099 84.0883C172.351 88.7565 169.419 94.0125 164.441 95.4573V95.4573C159.464 96.9021 154.351 93.9445 151.717 89.4808C149.937 86.4641 147.734 83.6988 145.164 81.2737C140.306 76.6894 134.31 73.488 127.798 72.0012C121.285 70.5144 114.494 70.7965 108.127 72.8181C101.761 74.8397 96.0508 78.5272 91.5892 83.4986C87.1276 88.4699 84.0768 94.544 82.753 101.091C81.4292 107.639 81.8807 114.421 84.0606 120.735C86.2404 127.049 90.0694 132.665 95.1505 137.002C97.8384 139.295 100.825 141.187 104.016 142.631C108.737 144.769 112.229 149.534 111.329 154.638V154.638Z" fill="#782CE4"/>
</g>
<g filter="url(#filter2_d)">
<circle cx="42.1424" cy="41.1424" r="26.8827" transform="rotate(-10 42.1424 41.1424)" fill="#FFCD1D"/>
</g>
<g filter="url(#filter3_d)">
<path d="M39.3247 25.1624C36.1642 25.7197 33.2399 27.2017 30.9216 29.4209C28.6033 31.6402 26.9952 34.4971 26.3006 37.6303C25.6059 40.7636 25.856 44.0324 27.0192 47.0235C28.1824 50.0146 30.2064 52.5936 32.8353 54.4344C35.4642 56.2752 38.5799 57.295 41.7885 57.3651C44.997 57.4351 48.1542 56.5521 50.8609 54.8277C53.5676 53.1033 55.7022 50.6151 56.9948 47.6776C58.2873 44.7401 58.6797 41.4852 58.1224 38.3247C57.3708 34.0887 54.9695 30.324 51.4454 27.8564C47.9213 25.3888 43.5623 24.4199 39.3247 25.1624V25.1624ZM34.9759 35.5407C35.8444 35.4091 36.7324 35.546 37.5209 35.9331C38.3094 36.3202 38.9608 36.939 39.3878 37.7066C39.4789 37.8592 39.539 38.0281 39.5648 38.2039C39.5906 38.3797 39.5815 38.5588 39.538 38.7311C39.4946 38.9034 39.4176 39.0654 39.3116 39.2079C39.2055 39.3504 39.0724 39.4707 38.9199 39.5618C38.7673 39.6529 38.5984 39.713 38.4226 39.7388C38.2468 39.7646 38.0677 39.7555 37.8954 39.712C37.7231 39.6686 37.5611 39.5916 37.4186 39.4856C37.2761 39.3795 37.1558 39.2464 37.0647 39.0939C36.9164 38.7993 36.6822 38.5566 36.3932 38.3978C36.1041 38.2389 35.7737 38.1714 35.4455 38.204C35.1259 38.2856 34.8386 38.4621 34.6213 38.7102C34.404 38.9583 34.267 39.2665 34.2283 39.594C34.1608 39.9464 33.9561 40.2576 33.6591 40.459C33.3622 40.6604 32.9975 40.7357 32.6451 40.6682C32.2927 40.6007 31.9815 40.396 31.7801 40.099C31.5786 39.8021 31.5034 39.4374 31.5709 39.085C31.7096 38.2176 32.11 37.4133 32.7186 36.7798C33.3272 36.1464 34.1148 35.714 34.9759 35.5407V35.5407ZM36.4336 47.2417C36.469 47.1437 36.5296 47.0567 36.6094 46.9896C36.6892 46.9225 36.7853 46.8776 36.888 46.8595L49.0354 44.7176C49.1379 44.6997 49.2434 44.709 49.3412 44.7446C49.439 44.7803 49.5257 44.841 49.5926 44.9207C49.6595 45.0004 49.7043 45.0963 49.7224 45.1988C49.7405 45.3013 49.7314 45.4068 49.696 45.5046C49.2326 46.777 48.4425 47.905 47.4051 48.7754C46.3677 49.6457 45.1195 50.2277 43.7859 50.4628C42.4523 50.698 41.0803 50.578 39.8078 50.115C38.5353 49.652 37.4071 48.8622 36.5364 47.825C36.4697 47.7453 36.4251 47.6495 36.4071 47.5471C36.389 47.4448 36.3982 47.3395 36.4336 47.2417V47.2417ZM50.4461 37.6186C50.1761 37.6664 49.898 37.6309 49.6486 37.517C49.3992 37.403 49.1904 37.216 49.0497 36.9806C48.9014 36.686 48.6672 36.4433 48.3782 36.2845C48.0891 36.1256 47.7587 36.0581 47.4305 36.0908C47.1109 36.1723 46.8236 36.3488 46.6063 36.5969C46.389 36.8451 46.252 37.1532 46.2133 37.4807C46.1799 37.6552 46.1124 37.8214 46.0147 37.9698C45.9171 38.1182 45.7912 38.246 45.6441 38.3457C45.4971 38.4455 45.3319 38.5153 45.1579 38.5512C44.9839 38.5871 44.8045 38.5883 44.6301 38.5549C44.4556 38.5215 44.2894 38.454 44.141 38.3564C43.9925 38.2587 43.8648 38.1328 43.7651 37.9858C43.6653 37.8387 43.5955 37.6735 43.5596 37.4995C43.5237 37.3255 43.5225 37.1462 43.5559 36.9717C43.6744 36.0962 44.0681 35.2811 44.6802 34.6441C45.2922 34.0071 46.0909 33.5811 46.9609 33.4277C47.8309 33.2743 48.7272 33.4014 49.5202 33.7907C50.3132 34.18 50.962 34.8112 51.3728 35.5934C51.4852 35.7815 51.5501 35.9941 51.5621 36.2129C51.5741 36.4318 51.5327 36.6502 51.4415 36.8495C51.3504 37.0488 51.2121 37.2229 51.0387 37.3569C50.8653 37.4909 50.6619 37.5807 50.4461 37.6186V37.6186Z" fill="white"/>
</g>
<defs>
<filter id="filter0_d" x="0.835289" y="0.163237" width="237.254" height="220.805" filterUnits="userSpaceOnUse" color-interpolation-filters="sRGB">
<feFlood flood-opacity="0" result="BackgroundImageFix"/>
<feColorMatrix in="SourceAlpha" type="matrix" values="0 0 0 0 0 0 0 0 0 0 0 0 0 0 0 0 0 0 127 0"/>
<feOffset dy="2.05231"/>
<feGaussianBlur stdDeviation="17.4447"/>
<feColorMatrix type="matrix" values="0 0 0 0 0.121042 0 0 0 0 0.143938 0 0 0 0 0.35 0 0 0 0.09 0"/>
<feBlend mode="normal" in2="BackgroundImageFix" result="effect1_dropShadow"/>
<feBlend mode="normal" in="SourceGraphic" in2="effect1_dropShadow" result="shape"/>
</filter>
<filter id="filter1_d" x="59.1366" y="52.2927" width="115.837" height="117.856" filterUnits="userSpaceOnUse" color-interpolation-filters="sRGB">
<feFlood flood-opacity="0" result="BackgroundImageFix"/>
<feColorMatrix in="SourceAlpha" type="matrix" values="0 0 0 0 0 0 0 0 0 0 0 0 0 0 0 0 0 0 127 0"/>
<feOffset dy="4.10463"/>
<feGaussianBlur stdDeviation="2.05231"/>
<feColorMatrix type="matrix" values="0 0 0 0 0.470588 0 0 0 0 0.172549 0 0 0 0 0.894118 0 0 0 0.14 0"/>
<feBlend mode="normal" in2="BackgroundImageFix" result="effect1_dropShadow"/>
<feBlend mode="normal" in="SourceGraphic" in2="effect1_dropShadow" result="shape"/>
</filter>
<filter id="filter2_d" x="4.84306" y="8.97384" width="74.5987" height="74.5987" filterUnits="userSpaceOnUse" color-interpolation-filters="sRGB">
<feFlood flood-opacity="0" result="BackgroundImageFix"/>
<feColorMatrix in="SourceAlpha" type="matrix" values="0 0 0 0 0 0 0 0 0 0 0 0 0 0 0 0 0 0 127 0"/>
<feOffset dy="5.13078"/>
<feGaussianBlur stdDeviation="3.07847"/>
<feColorMatrix type="matrix" values="0 0 0 0 1 0 0 0 0 0.80475 0 0 0 0 0.1125 0 0 0 0.23 0"/>
<feBlend mode="normal" in2="BackgroundImageFix" result="effect1_dropShadow"/>
<feBlend mode="normal" in="SourceGraphic" in2="effect1_dropShadow" result="shape"/>
</filter>
<filter id="filter3_d" x="17.1878" y="18.2401" width="49.9093" height="49.9093" filterUnits="userSpaceOnUse" color-interpolation-filters="sRGB">
<feFlood flood-opacity="0" result="BackgroundImageFix"/>
<feColorMatrix in="SourceAlpha" type="matrix" values="0 0 0 0 0 0 0 0 0 0 0 0 0 0 0 0 0 0 127 0"/>
<feOffset dy="2.05231"/>
<feGaussianBlur stdDeviation="3.07847"/>
<feColorMatrix type="matrix" values="0 0 0 0 1 0 0 0 0 0.587917 0 0 0 0 0.104167 0 0 0 0.44 0"/>
<feBlend mode="normal" in2="BackgroundImageFix" result="effect1_dropShadow"/>
<feBlend mode="normal" in="SourceGraphic" in2="effect1_dropShadow" result="shape"/>
</filter>
</defs>
</svg>
