<svg width="309" height="198" viewBox="0 0 309 198" fill="none" xmlns="http://www.w3.org/2000/svg">
<rect width="309" height="198" fill="#F4263E"/>
<g filter="url(#filter0_d)">
<rect x="94.4844" y="31.3727" width="111.745" height="139.373" rx="14.8993" fill="white"/>
</g>
<rect opacity="0.6" x="103.864" y="110.996" width="60.6281" height="8.38086" rx="4.19043" fill="#62668A"/>
<rect opacity="0.3" x="103.864" y="126.826" width="92.9864" height="8.38086" rx="4.19043" fill="#BEBFCC"/>
<rect opacity="0.3" x="103.864" y="142.815" width="78.9262" height="8.38086" rx="4.19043" fill="#BEBFCC"/>
<g filter="url(#filter1_d)">
<rect x="103.864" y="42.8141" width="92.9864" height="55.921" rx="9.31206" fill="#F4263E"/>
</g>
<g filter="url(#filter2_d)">
<circle cx="99.4911" cy="54.0356" r="28.7812" fill="#F4263E"/>
</g>
<g filter="url(#filter3_d)">
<path d="M116.39 43.9632C115.753 42.6866 114.821 41.5797 113.672 40.7341C112.523 39.8885 111.19 39.3283 109.781 39.0998C108.373 38.8714 106.931 38.9812 105.573 39.4202C104.216 39.8592 102.982 40.6148 101.975 41.6246L100.198 43.4015C100.01 43.5889 99.7562 43.6941 99.4912 43.6941C99.2262 43.6941 98.9721 43.5889 98.7847 43.4015L97.0058 41.6246C95.3179 39.9368 93.0287 38.9886 90.6417 38.9886C88.2547 38.9886 85.9655 39.9368 84.2777 41.6246C82.5898 43.3125 81.6416 45.6017 81.6416 47.9887C81.6416 50.3757 82.5898 52.6649 84.2777 54.3527L97.6494 68.3021C97.8874 68.5503 98.1732 68.7478 98.4896 68.8828C98.8059 69.0177 99.1463 69.0873 99.4902 69.0873C99.8342 69.0873 100.175 69.0177 100.491 68.8828C100.807 68.7478 101.093 68.5503 101.331 68.3021L114.703 54.3527C116.04 53.0176 116.922 51.2954 117.225 49.4305C117.527 47.5656 117.235 45.6527 116.39 43.9632V43.9632Z" fill="white"/>
</g>
<g filter="url(#filter4_d)">
<path d="M143.535 57.7506C141.424 56.5091 138.764 58.0309 138.764 60.4796V81.0693C138.764 83.518 141.424 85.0398 143.535 83.7983L161.036 73.5037C163.117 72.2795 163.117 69.2699 161.036 68.0457L143.535 57.7506Z" fill="white"/>
</g>
<g filter="url(#filter5_d)">
<rect x="186" y="69.0575" width="64.3244" height="87.3198" rx="8.84581" fill="white"/>
</g>
<g filter="url(#filter6_d)">
<path d="M194.138 139.401C195.949 139.401 197.418 137.932 197.418 136.121C197.418 134.31 195.949 132.841 194.138 132.841C192.327 132.841 190.858 134.31 190.858 136.121C190.858 137.932 192.327 139.401 194.138 139.401Z" fill="#F4263E"/>
</g>
<rect x="202.84" y="80.3431" width="28.2239" height="4.4229" rx="2.21145" fill="#E7E8F1"/>
<rect x="190.858" y="142.791" width="45.9117" height="4.4229" rx="2.21145" fill="#E7E8F1"/>
<g filter="url(#filter7_d)">
<rect x="190.858" y="91.6371" width="54.608" height="37.8422" rx="6.63436" fill="#F4263E"/>
</g>
<g filter="url(#filter8_d)">
<path d="M225.832 107.747C225.654 107.353 225.377 107.013 225.027 106.759C224.678 106.505 224.268 106.346 223.839 106.299C223.416 106.295 223 106.406 222.635 106.62C222.27 106.833 221.969 107.142 221.765 107.513L221.754 107.532L217.88 114.159C217.835 114.237 217.771 114.304 217.696 114.354C217.62 114.404 217.533 114.436 217.443 114.447C217.353 114.457 217.262 114.447 217.177 114.417C217.091 114.387 217.014 114.338 216.95 114.274L212.954 110.224C212.935 110.204 212.914 110.186 212.892 110.17C212.643 109.976 212.355 109.84 212.048 109.771C211.74 109.701 211.421 109.7 211.113 109.768C210.805 109.836 210.516 109.97 210.266 110.162C210.016 110.354 209.811 110.598 209.666 110.878L209.652 110.902L203.887 120.75C203.835 120.84 203.807 120.942 203.807 121.046C203.806 121.15 203.833 121.252 203.885 121.342C203.937 121.432 204.011 121.507 204.101 121.559C204.191 121.611 204.293 121.638 204.397 121.638H231.928C232.029 121.638 232.128 121.613 232.216 121.563C232.304 121.514 232.378 121.443 232.431 121.357C232.484 121.271 232.513 121.173 232.517 121.072C232.521 120.971 232.498 120.871 232.452 120.781L225.832 107.747Z" fill="white"/>
</g>
<g filter="url(#filter9_d)">
<path d="M208.116 106.564C210.072 106.564 211.658 104.977 211.658 103.021C211.658 101.064 210.072 99.4783 208.116 99.4783C206.159 99.4783 204.573 101.064 204.573 103.021C204.573 104.977 206.159 106.564 208.116 106.564Z" fill="#FFCD1D"/>
</g>
<g filter="url(#filter10_d)">
<circle cx="195.191" cy="82.5545" r="4.33212" fill="#F4263E"/>
</g>
<defs>
<filter id="filter0_d" x="74.7744" y="16.058" width="151.165" height="178.793" filterUnits="userSpaceOnUse" color-interpolation-filters="sRGB">
<feFlood flood-opacity="0" result="BackgroundImageFix"/>
<feColorMatrix in="SourceAlpha" type="matrix" values="0 0 0 0 0 0 0 0 0 0 0 0 0 0 0 0 0 0 127 0"/>
<feOffset dy="4.39529"/>
<feGaussianBlur stdDeviation="9.855"/>
<feColorMatrix type="matrix" values="0 0 0 0 0.01625 0 0 0 0 0.0397 0 0 0 0 0.1 0 0 0 0.22 0"/>
<feBlend mode="normal" in2="BackgroundImageFix" result="effect1_dropShadow"/>
<feBlend mode="normal" in="SourceGraphic" in2="effect1_dropShadow" result="shape"/>
</filter>
<filter id="filter1_d" x="90.8274" y="31.6396" width="119.06" height="81.9948" filterUnits="userSpaceOnUse" color-interpolation-filters="sRGB">
<feFlood flood-opacity="0" result="BackgroundImageFix"/>
<feColorMatrix in="SourceAlpha" type="matrix" values="0 0 0 0 0 0 0 0 0 0 0 0 0 0 0 0 0 0 127 0"/>
<feOffset dy="1.86241"/>
<feGaussianBlur stdDeviation="6.51845"/>
<feColorMatrix type="matrix" values="0 0 0 0 0.470588 0 0 0 0 0.172549 0 0 0 0 0.894118 0 0 0 0.23 0"/>
<feBlend mode="normal" in2="BackgroundImageFix" result="effect1_dropShadow"/>
<feBlend mode="normal" in="SourceGraphic" in2="effect1_dropShadow" result="shape"/>
</filter>
<filter id="filter2_d" x="60.98" y="20.3022" width="77.0224" height="77.0224" filterUnits="userSpaceOnUse" color-interpolation-filters="sRGB">
<feFlood flood-opacity="0" result="BackgroundImageFix"/>
<feColorMatrix in="SourceAlpha" type="matrix" values="0 0 0 0 0 0 0 0 0 0 0 0 0 0 0 0 0 0 127 0"/>
<feOffset dy="4.77782"/>
<feGaussianBlur stdDeviation="4.865"/>
<feColorMatrix type="matrix" values="0 0 0 0 0.00638889 0 0 0 0 0.0305 0 0 0 0 0.0666667 0 0 0 0.15 0"/>
<feBlend mode="normal" in2="BackgroundImageFix" result="effect1_dropShadow"/>
<feBlend mode="normal" in="SourceGraphic" in2="effect1_dropShadow" result="shape"/>
</filter>
<filter id="filter3_d" x="73.1676" y="32.4209" width="52.6473" height="47.0515" filterUnits="userSpaceOnUse" color-interpolation-filters="sRGB">
<feFlood flood-opacity="0" result="BackgroundImageFix"/>
<feColorMatrix in="SourceAlpha" type="matrix" values="0 0 0 0 0 0 0 0 0 0 0 0 0 0 0 0 0 0 127 0"/>
<feOffset dy="1.91113"/>
<feGaussianBlur stdDeviation="4.23699"/>
<feColorMatrix type="matrix" values="0 0 0 0 0.121042 0 0 0 0 0.143938 0 0 0 0 0.35 0 0 0 0.13 0"/>
<feBlend mode="normal" in2="BackgroundImageFix" result="effect1_dropShadow"/>
<feBlend mode="normal" in="SourceGraphic" in2="effect1_dropShadow" result="shape"/>
</filter>
<filter id="filter4_d" x="125.103" y="46.5439" width="51.155" height="54.2531" filterUnits="userSpaceOnUse" color-interpolation-filters="sRGB">
<feFlood flood-opacity="0" result="BackgroundImageFix"/>
<feColorMatrix in="SourceAlpha" type="matrix" values="0 0 0 0 0 0 0 0 0 0 0 0 0 0 0 0 0 0 127 0"/>
<feOffset dy="2.89605"/>
<feGaussianBlur stdDeviation="6.8304"/>
<feColorMatrix type="matrix" values="0 0 0 0 0.037934 0 0 0 0 0.214427 0 0 0 0 0.479167 0 0 0 0.19 0"/>
<feBlend mode="normal" in2="BackgroundImageFix" result="effect1_dropShadow"/>
<feBlend mode="normal" in="SourceGraphic" in2="effect1_dropShadow" result="shape"/>
</filter>
<filter id="filter5_d" x="159.374" y="49.066" width="117.576" height="140.571" filterUnits="userSpaceOnUse" color-interpolation-filters="sRGB">
<feFlood flood-opacity="0" result="BackgroundImageFix"/>
<feColorMatrix in="SourceAlpha" type="matrix" values="0 0 0 0 0 0 0 0 0 0 0 0 0 0 0 0 0 0 127 0"/>
<feOffset dy="6.63436"/>
<feGaussianBlur stdDeviation="13.3129"/>
<feColorMatrix type="matrix" values="0 0 0 0 0.0602083 0 0 0 0 0.206125 0 0 0 0 0.425 0 0 0 0.25 0"/>
<feBlend mode="normal" in2="BackgroundImageFix" result="effect1_dropShadow"/>
<feBlend mode="normal" in="SourceGraphic" in2="effect1_dropShadow" result="shape"/>
</filter>
<filter id="filter6_d" x="187.541" y="130.63" width="13.1937" height="13.1937" filterUnits="userSpaceOnUse" color-interpolation-filters="sRGB">
<feFlood flood-opacity="0" result="BackgroundImageFix"/>
<feColorMatrix in="SourceAlpha" type="matrix" values="0 0 0 0 0 0 0 0 0 0 0 0 0 0 0 0 0 0 127 0"/>
<feOffset dy="1.10573"/>
<feGaussianBlur stdDeviation="1.65859"/>
<feColorMatrix type="matrix" values="0 0 0 0 0.956863 0 0 0 0 0.14902 0 0 0 0 0.243137 0 0 0 0.19 0"/>
<feBlend mode="normal" in2="BackgroundImageFix" result="effect1_dropShadow"/>
<feBlend mode="normal" in="SourceGraphic" in2="effect1_dropShadow" result="shape"/>
</filter>
<filter id="filter7_d" x="186.435" y="89.4257" width="63.4538" height="46.688" filterUnits="userSpaceOnUse" color-interpolation-filters="sRGB">
<feFlood flood-opacity="0" result="BackgroundImageFix"/>
<feColorMatrix in="SourceAlpha" type="matrix" values="0 0 0 0 0 0 0 0 0 0 0 0 0 0 0 0 0 0 127 0"/>
<feOffset dy="2.21145"/>
<feGaussianBlur stdDeviation="2.21145"/>
<feColorMatrix type="matrix" values="0 0 0 0 0.956863 0 0 0 0 0.14902 0 0 0 0 0.243137 0 0 0 0.22 0"/>
<feBlend mode="normal" in2="BackgroundImageFix" result="effect1_dropShadow"/>
<feBlend mode="normal" in="SourceGraphic" in2="effect1_dropShadow" result="shape"/>
</filter>
<filter id="filter8_d" x="199.384" y="104.087" width="37.5566" height="24.1853" filterUnits="userSpaceOnUse" color-interpolation-filters="sRGB">
<feFlood flood-opacity="0" result="BackgroundImageFix"/>
<feColorMatrix in="SourceAlpha" type="matrix" values="0 0 0 0 0 0 0 0 0 0 0 0 0 0 0 0 0 0 127 0"/>
<feOffset dy="2.21145"/>
<feGaussianBlur stdDeviation="2.21145"/>
<feColorMatrix type="matrix" values="0 0 0 0 0.0238889 0 0 0 0 0.0348334 0 0 0 0 0.133333 0 0 0 0.08 0"/>
<feBlend mode="normal" in2="BackgroundImageFix" result="effect1_dropShadow"/>
<feBlend mode="normal" in="SourceGraphic" in2="effect1_dropShadow" result="shape"/>
</filter>
<filter id="filter9_d" x="201.256" y="97.2669" width="13.7195" height="13.7195" filterUnits="userSpaceOnUse" color-interpolation-filters="sRGB">
<feFlood flood-opacity="0" result="BackgroundImageFix"/>
<feColorMatrix in="SourceAlpha" type="matrix" values="0 0 0 0 0 0 0 0 0 0 0 0 0 0 0 0 0 0 127 0"/>
<feOffset dy="1.10573"/>
<feGaussianBlur stdDeviation="1.65859"/>
<feColorMatrix type="matrix" values="0 0 0 0 0.0324653 0 0 0 0 0.0433854 0 0 0 0 0.141667 0 0 0 0.32 0"/>
<feBlend mode="normal" in2="BackgroundImageFix" result="effect1_dropShadow"/>
<feBlend mode="normal" in="SourceGraphic" in2="effect1_dropShadow" result="shape"/>
</filter>
<filter id="filter10_d" x="187.541" y="76.0109" width="15.2986" height="15.2986" filterUnits="userSpaceOnUse" color-interpolation-filters="sRGB">
<feFlood flood-opacity="0" result="BackgroundImageFix"/>
<feColorMatrix in="SourceAlpha" type="matrix" values="0 0 0 0 0 0 0 0 0 0 0 0 0 0 0 0 0 0 127 0"/>
<feOffset dy="1.10573"/>
<feGaussianBlur stdDeviation="1.65859"/>
<feColorMatrix type="matrix" values="0 0 0 0 0.956863 0 0 0 0 0.14902 0 0 0 0 0.243137 0 0 0 0.17 0"/>
<feBlend mode="normal" in2="BackgroundImageFix" result="effect1_dropShadow"/>
<feBlend mode="normal" in="SourceGraphic" in2="effect1_dropShadow" result="shape"/>
</filter>
</defs>
</svg>
