<svg width="193" height="34" viewBox="0 0 193 34" fill="none" xmlns="http://www.w3.org/2000/svg">
<path d="M69.367 20.9325C67.8515 20.9325 66.5155 20.6035 65.359 19.9455C64.2024 19.2874 63.2852 18.3702 62.6072 17.1937C61.9491 16.0172 61.6201 14.6712 61.6201 13.1557C61.6201 11.6402 61.9491 10.2943 62.6072 9.11776C63.2852 7.94127 64.2024 7.024 65.359 6.36596C66.5155 5.70793 67.8515 5.37891 69.367 5.37891C71.2614 5.37891 72.8566 5.87742 74.1528 6.87445C75.4489 7.85153 76.2764 9.20749 76.6353 10.9423H72.5974C72.398 10.2245 71.9992 9.66612 71.401 9.26731C70.8227 8.84856 70.1347 8.63919 69.3371 8.63919C68.2803 8.63919 67.3829 9.038 66.6451 9.83562C65.9073 10.6332 65.5384 11.7399 65.5384 13.1557C65.5384 14.5715 65.9073 15.6782 66.6451 16.4758C67.3829 17.2734 68.2803 17.6723 69.3371 17.6723C70.1347 17.6723 70.8227 17.4728 71.401 17.074C71.9992 16.6752 72.398 16.1069 72.5974 15.3691H76.6353C76.2764 17.0441 75.4489 18.3901 74.1528 19.4071C72.8566 20.424 71.2614 20.9325 69.367 20.9325Z" fill="#1F2559"/>
<path d="M86.5541 20.9325C85.1183 20.9325 83.8222 20.6035 82.6656 19.9455C81.529 19.2874 80.6217 18.3801 79.9438 17.2236C79.2857 16.0471 78.9567 14.6911 78.9567 13.1557C78.9567 11.6203 79.2957 10.2743 79.9737 9.11776C80.6517 7.94127 81.5589 7.024 82.6956 6.36596C83.8521 5.70793 85.1482 5.37891 86.584 5.37891C87.9997 5.37891 89.2759 5.70793 90.4126 6.36596C91.5691 7.024 92.4764 7.94127 93.1344 9.11776C93.8124 10.2743 94.1514 11.6203 94.1514 13.1557C94.1514 14.6911 93.8124 16.0471 93.1344 17.2236C92.4764 18.3801 91.5691 19.2874 90.4126 19.9455C89.256 20.6035 87.9698 20.9325 86.5541 20.9325ZM86.5541 17.6124C87.5511 17.6124 88.4185 17.2435 89.1563 16.5057C89.8941 15.748 90.263 14.6313 90.263 13.1557C90.263 11.6801 89.8941 10.5734 89.1563 9.83562C88.4185 9.07788 87.5611 8.69901 86.584 8.69901C85.567 8.69901 84.6896 9.07788 83.9518 9.83562C83.234 10.5734 82.875 11.6801 82.875 13.1557C82.875 14.6313 83.234 15.748 83.9518 16.5057C84.6896 17.2435 85.557 17.6124 86.5541 17.6124Z" fill="#1F2559"/>
<path d="M96.9763 20.5736V5.73784H100.356L100.685 7.74186C101.164 7.024 101.792 6.4557 102.57 6.03694C103.367 5.59825 104.285 5.37891 105.321 5.37891C107.615 5.37891 109.24 6.26626 110.197 8.04097C110.735 7.22341 111.453 6.57534 112.351 6.09676C113.268 5.61819 114.265 5.37891 115.342 5.37891C117.276 5.37891 118.761 5.95718 119.798 7.11373C120.835 8.27028 121.354 9.96523 121.354 12.1986V20.5736H117.525V12.5575C117.525 11.2813 117.276 10.3042 116.777 9.62624C116.299 8.94826 115.551 8.60928 114.534 8.60928C113.497 8.60928 112.66 8.98814 112.021 9.74588C111.403 10.5036 111.094 11.5605 111.094 12.9164V20.5736H107.266V12.5575C107.266 11.2813 107.016 10.3042 106.518 9.62624C106.019 8.94826 105.252 8.60928 104.215 8.60928C103.198 8.60928 102.37 8.98814 101.732 9.74588C101.114 10.5036 100.805 11.5605 100.805 12.9164V20.5736H96.9763Z" fill="#1F2559"/>
<path d="M124.39 27.154V5.73784H127.8L128.219 7.8615C128.697 7.20346 129.326 6.62519 130.103 6.12668C130.901 5.62816 131.928 5.37891 133.184 5.37891C134.58 5.37891 135.826 5.7179 136.923 6.39587C138.02 7.07385 138.887 8.00109 139.525 9.17758C140.163 10.3541 140.482 11.6901 140.482 13.1856C140.482 14.6812 140.163 16.0172 139.525 17.1937C138.887 18.3502 138.02 19.2675 136.923 19.9455C135.826 20.6035 134.58 20.9325 133.184 20.9325C132.067 20.9325 131.09 20.7232 130.253 20.3044C129.415 19.8857 128.737 19.2974 128.219 18.5397V27.154H124.39ZM132.376 17.5825C133.593 17.5825 134.6 17.1737 135.397 16.3562C136.195 15.5386 136.594 14.4818 136.594 13.1856C136.594 11.8895 136.195 10.8227 135.397 9.98517C134.6 9.14767 133.593 8.72892 132.376 8.72892C131.14 8.72892 130.123 9.14767 129.326 9.98517C128.548 10.8027 128.159 11.8596 128.159 13.1557C128.159 14.4519 128.548 15.5187 129.326 16.3562C130.123 17.1737 131.14 17.5825 132.376 17.5825Z" fill="#1F2559"/>
<path d="M148.419 20.9325C147.143 20.9325 146.096 20.7331 145.278 20.3343C144.461 19.9156 143.853 19.3672 143.454 18.6892C143.055 18.0112 142.856 17.2635 142.856 16.4459C142.856 15.07 143.394 13.9533 144.471 13.0959C145.548 12.2385 147.163 11.8097 149.316 11.8097H153.085V11.4508C153.085 10.4338 152.796 9.68606 152.218 9.20749C151.639 8.72892 150.922 8.48963 150.064 8.48963C149.286 8.48963 148.608 8.67907 148.03 9.05794C147.452 9.41687 147.093 9.95526 146.953 10.6731H143.214C143.314 9.59633 143.673 8.65913 144.291 7.8615C144.929 7.06388 145.747 6.4557 146.744 6.03694C147.741 5.59825 148.858 5.37891 150.094 5.37891C152.208 5.37891 153.873 5.90733 155.089 6.96418C156.305 8.02103 156.914 9.51657 156.914 11.4508V20.5736H153.653L153.294 18.1807C152.856 18.9784 152.238 19.6364 151.44 20.1548C150.662 20.6733 149.655 20.9325 148.419 20.9325ZM149.286 17.9415C150.383 17.9415 151.231 17.5825 151.829 16.8647C152.447 16.1468 152.836 15.2594 152.995 14.2026H149.735C148.718 14.2026 147.99 14.392 147.552 14.7709C147.113 15.1298 146.894 15.5785 146.894 16.1169C146.894 16.6952 147.113 17.1438 147.552 17.4629C147.99 17.7819 148.569 17.9415 149.286 17.9415Z" fill="#1F2559"/>
<path d="M159.969 20.5736V5.73784H163.349L163.648 8.25034C164.107 7.37296 164.765 6.67504 165.622 6.15659C166.5 5.63813 167.526 5.37891 168.703 5.37891C170.537 5.37891 171.963 5.95718 172.98 7.11373C173.997 8.27028 174.506 9.96523 174.506 12.1986V20.5736H170.677V12.5575C170.677 11.2813 170.418 10.3042 169.899 9.62624C169.381 8.94826 168.573 8.60928 167.477 8.60928C166.4 8.60928 165.512 8.98814 164.815 9.74588C164.137 10.5036 163.798 11.5605 163.798 12.9164V20.5736H159.969Z" fill="#1F2559"/>
<path d="M178.926 27.154L182.366 19.5865H181.469L175.696 5.73784H179.854L184.011 16.1767L188.348 5.73784H192.416L182.994 27.154H178.926Z" fill="#1F2559"/>
<g filter="url(#filter0_d)">
<path d="M17.989 24.5693C16.9855 25.5729 15.358 25.5715 14.3562 24.5662L4.80864 14.9859C3.80925 13.9831 3.81065 12.3604 4.81175 11.3593L14.3593 1.81175C15.3604 0.810647 16.9831 0.809256 17.9859 1.80864L27.5662 11.3562C28.5715 12.358 28.5729 13.9855 27.5693 14.989L17.989 24.5693Z" fill="#782CE4"/>
</g>
<g filter="url(#filter1_d)">
<path d="M31.2025 24.5662C30.2007 25.5715 28.5732 25.5729 27.5697 24.5693L17.9894 14.989C16.9858 13.9855 16.9872 12.358 17.9925 11.3562L27.5728 1.80864C28.5756 0.809255 30.1983 0.810648 31.1994 1.81175L40.7469 11.3593C41.748 12.3604 41.7494 13.9831 40.75 14.9859L31.2025 24.5662Z" fill="#FFCD1D"/>
</g>
<g filter="url(#filter2_d)">
<path d="M40.9967 24.5682C39.9941 25.5724 38.3668 25.5724 37.3642 24.5682L27.7986 14.9876C26.7969 13.9844 26.7983 12.3591 27.8017 11.3576L37.3673 1.8098C38.3692 0.809733 39.9917 0.80973 40.9936 1.8098L50.5592 11.3576C51.5626 12.3591 51.5639 13.9844 50.5623 14.9876L40.9967 24.5682Z" fill="#F4263E"/>
</g>
<defs>
<filter id="filter0_d" x="0.0600586" y="0.0585938" width="32.2611" height="32.2611" filterUnits="userSpaceOnUse" color-interpolation-filters="sRGB">
<feFlood flood-opacity="0" result="BackgroundImageFix"/>
<feColorMatrix in="SourceAlpha" type="matrix" values="0 0 0 0 0 0 0 0 0 0 0 0 0 0 0 0 0 0 127 0"/>
<feOffset dy="3"/>
<feGaussianBlur stdDeviation="2"/>
<feColorMatrix type="matrix" values="0 0 0 0 0.470588 0 0 0 0 0.172549 0 0 0 0 0.894118 0 0 0 0.21 0"/>
<feBlend mode="normal" in2="BackgroundImageFix" result="effect1_dropShadow"/>
<feBlend mode="normal" in="SourceGraphic" in2="effect1_dropShadow" result="shape"/>
</filter>
<filter id="filter1_d" x="13.2378" y="1.05859" width="32.261" height="32.2611" filterUnits="userSpaceOnUse" color-interpolation-filters="sRGB">
<feFlood flood-opacity="0" result="BackgroundImageFix"/>
<feColorMatrix in="SourceAlpha" type="matrix" values="0 0 0 0 0 0 0 0 0 0 0 0 0 0 0 0 0 0 127 0"/>
<feOffset dy="4"/>
<feGaussianBlur stdDeviation="2"/>
<feColorMatrix type="matrix" values="0 0 0 0 1 0 0 0 0 0.80475 0 0 0 0 0.1125 0 0 0 0.26 0"/>
<feBlend mode="normal" in2="BackgroundImageFix" result="effect1_dropShadow"/>
<feBlend mode="normal" in="SourceGraphic" in2="effect1_dropShadow" result="shape"/>
</filter>
<filter id="filter2_d" x="23.0483" y="0.0585938" width="32.2644" height="32.2616" filterUnits="userSpaceOnUse" color-interpolation-filters="sRGB">
<feFlood flood-opacity="0" result="BackgroundImageFix"/>
<feColorMatrix in="SourceAlpha" type="matrix" values="0 0 0 0 0 0 0 0 0 0 0 0 0 0 0 0 0 0 127 0"/>
<feOffset dy="3"/>
<feGaussianBlur stdDeviation="2"/>
<feColorMatrix type="matrix" values="0 0 0 0 0.956863 0 0 0 0 0.14902 0 0 0 0 0.243137 0 0 0 0.32 0"/>
<feBlend mode="normal" in2="BackgroundImageFix" result="effect1_dropShadow"/>
<feBlend mode="normal" in="SourceGraphic" in2="effect1_dropShadow" result="shape"/>
</filter>
</defs>
</svg>
