<svg width="178" height="34" viewBox="0 0 178 34" fill="none" xmlns="http://www.w3.org/2000/svg">
<path d="M64.1827 16.2881C62.919 18.3381 61.1217 19.5175 58.7909 19.5175C55.4211 19.5175 52.9499 16.7936 52.9499 13.2834C52.9499 9.77312 55.3088 7.07726 58.8471 7.07726C61.0936 7.07726 63.1155 8.34094 64.1265 10.2505L67.384 7.66698C65.7272 4.71838 62.7224 2.94922 58.9033 2.94922C52.7814 2.94922 48.4849 7.49849 48.4849 13.2834C48.4849 19.0682 52.8656 23.6456 58.8471 23.6456C62.6101 23.6456 65.7552 21.6518 67.4682 18.8155L64.1827 16.2881Z" fill="#1F2559"/>
<path d="M76.3886 8.5656C71.8955 8.5656 68.6661 11.8231 68.6661 16.0916C68.6661 20.3319 71.8955 23.6456 76.3886 23.6456C80.8817 23.6456 84.1112 20.3319 84.1112 16.0916C84.1112 11.8231 80.8817 8.5656 76.3886 8.5656ZM76.3886 12.3567C78.3263 12.3567 79.7865 13.845 79.7865 16.0916C79.7865 18.3381 78.3263 19.8545 76.3886 19.8545C74.451 19.8545 72.9907 18.3381 72.9907 16.0916C72.9907 13.845 74.451 12.3567 76.3886 12.3567Z" fill="#1F2559"/>
<path d="M86.9011 8.90258V23.3086H91.1696V15.8107C91.1696 13.9292 92.1525 12.3286 93.9497 12.3286C95.5223 12.3286 96.5332 13.3114 96.5332 15.1929V23.3086H100.802V15.8107C100.802 13.9292 101.785 12.3286 103.582 12.3286C105.154 12.3286 106.137 13.3114 106.137 15.1929V23.3086H110.406V14.547C110.406 10.8122 108.3 8.5656 104.845 8.5656C102.402 8.5656 101.026 9.63271 99.9873 11.093C99.0044 9.4923 97.4319 8.5656 95.2134 8.5656C93.3319 8.5656 91.9278 9.29573 91.0011 10.756V8.90258H86.9011Z" fill="#1F2559"/>
<path d="M121.605 12.3286C123.43 12.3286 124.946 13.8169 124.946 16.1477C124.946 18.3943 123.43 19.8826 121.605 19.8826C119.695 19.8826 118.207 18.4224 118.207 16.1477C118.207 13.7888 119.695 12.3286 121.605 12.3286ZM118.01 8.90258H114.051V28.925H118.319V21.736C119.218 23.0839 120.931 23.6456 122.475 23.6456C126.407 23.6456 129.243 20.3881 129.243 16.0916C129.243 11.6546 126.182 8.5656 122.503 8.5656C121.099 8.5656 119.133 9.15532 118.01 10.8964V8.90258Z" fill="#1F2559"/>
<path d="M139.51 14.3505L135.579 15.1087C132.546 15.7546 130.889 17.2148 130.889 19.3491C130.889 21.8483 132.855 23.6456 135.663 23.6456C137.573 23.6456 138.977 22.8031 139.651 21.5394V23.3086H143.61V14.2381C143.61 10.7279 141.223 8.5656 137.208 8.5656C134.512 8.5656 132.35 9.68888 131.03 11.2895L133.248 13.9854C134.119 13.0025 135.354 12.2443 136.955 12.2443C138.415 12.2443 139.51 12.806 139.51 14.2381V14.3505ZM136.618 20.4723C135.607 20.4723 134.961 19.9107 134.961 19.0963C134.961 18.31 135.523 17.8045 136.674 17.608L139.538 17.0463V17.4676C139.538 19.1806 138.387 20.4723 136.618 20.4723Z" fill="#1F2559"/>
<path d="M147.206 8.90258V23.3086H151.474V15.8107C151.474 13.9292 152.457 12.3286 154.311 12.3286C155.883 12.3286 156.894 13.3114 156.894 15.1929V23.3086H161.163V14.547C161.163 10.8122 159.028 8.5656 155.574 8.5656C153.637 8.5656 152.233 9.29573 151.306 10.756V8.90258H147.206Z" fill="#1F2559"/>
<path d="M168.132 22.775L167.964 23.2524C167.346 25.3024 166.307 25.6675 165.184 25.6675C164.706 25.6675 163.976 25.6113 163.218 25.1901V28.7284C163.864 29.0373 164.79 29.262 165.801 29.262C168.525 29.262 170.266 27.9702 171.699 24.488L177.989 8.90258H173.636L170.266 18.3381L166.925 8.90258H162.46L168.132 22.775Z" fill="#1F2559"/>
<g filter="url(#filter0_d)">
<path d="M22.6819 1H18.5677C17.9983 1 17.5366 1.46164 17.5366 2.0311V25.5242C17.5366 26.0937 17.9983 26.5553 18.5677 26.5553H22.6819C23.2514 26.5553 23.713 26.0937 23.713 25.5242V2.0311C23.713 1.46164 23.2514 1 22.6819 1Z" fill="#F4263E"/>
</g>
<g filter="url(#filter1_d)">
<path d="M32.0002 26.555C34.8997 26.555 37.2503 24.2044 37.2503 21.3048C37.2503 18.4053 34.8997 16.0547 32.0002 16.0547C29.1006 16.0547 26.75 18.4053 26.75 21.3048C26.75 24.2044 29.1006 26.555 32.0002 26.555Z" fill="#1B76FF"/>
</g>
<g filter="url(#filter2_d)">
<path d="M32.0002 11.5003C34.8997 11.5003 37.2503 9.14973 37.2503 6.25015C37.2503 3.35057 34.8997 1 32.0002 1C29.1006 1 26.75 3.35057 26.75 6.25015C26.75 9.14973 29.1006 11.5003 32.0002 11.5003Z" fill="#FFCD1D"/>
</g>
<g filter="url(#filter3_d)">
<path d="M9.25015 26.555C12.1497 26.555 14.5003 24.2044 14.5003 21.3048C14.5003 18.4053 12.1497 16.0547 9.25015 16.0547C6.35057 16.0547 4 18.4053 4 21.3048C4 24.2044 6.35057 26.555 9.25015 26.555Z" fill="#782CE4"/>
</g>
<defs>
<filter id="filter0_d" x="13.5366" y="0" width="14.1764" height="33.5553" filterUnits="userSpaceOnUse" color-interpolation-filters="sRGB">
<feFlood flood-opacity="0" result="BackgroundImageFix"/>
<feColorMatrix in="SourceAlpha" type="matrix" values="0 0 0 0 0 0 0 0 0 0 0 0 0 0 0 0 0 0 127 0"/>
<feOffset dy="3"/>
<feGaussianBlur stdDeviation="2"/>
<feColorMatrix type="matrix" values="0 0 0 0 0.956863 0 0 0 0 0.14902 0 0 0 0 0.243137 0 0 0 0.11 0"/>
<feBlend mode="normal" in2="BackgroundImageFix" result="effect1_dropShadow"/>
<feBlend mode="normal" in="SourceGraphic" in2="effect1_dropShadow" result="shape"/>
</filter>
<filter id="filter1_d" x="22.75" y="15.0547" width="18.5003" height="18.5003" filterUnits="userSpaceOnUse" color-interpolation-filters="sRGB">
<feFlood flood-opacity="0" result="BackgroundImageFix"/>
<feColorMatrix in="SourceAlpha" type="matrix" values="0 0 0 0 0 0 0 0 0 0 0 0 0 0 0 0 0 0 127 0"/>
<feOffset dy="3"/>
<feGaussianBlur stdDeviation="2"/>
<feColorMatrix type="matrix" values="0 0 0 0 0.104167 0 0 0 0 0.4625 0 0 0 0 1 0 0 0 0.14 0"/>
<feBlend mode="normal" in2="BackgroundImageFix" result="effect1_dropShadow"/>
<feBlend mode="normal" in="SourceGraphic" in2="effect1_dropShadow" result="shape"/>
</filter>
<filter id="filter2_d" x="22.75" y="0" width="18.5003" height="18.5003" filterUnits="userSpaceOnUse" color-interpolation-filters="sRGB">
<feFlood flood-opacity="0" result="BackgroundImageFix"/>
<feColorMatrix in="SourceAlpha" type="matrix" values="0 0 0 0 0 0 0 0 0 0 0 0 0 0 0 0 0 0 127 0"/>
<feOffset dy="3"/>
<feGaussianBlur stdDeviation="2"/>
<feColorMatrix type="matrix" values="0 0 0 0 1 0 0 0 0 0.80475 0 0 0 0 0.1125 0 0 0 0.27 0"/>
<feBlend mode="normal" in2="BackgroundImageFix" result="effect1_dropShadow"/>
<feBlend mode="normal" in="SourceGraphic" in2="effect1_dropShadow" result="shape"/>
</filter>
<filter id="filter3_d" x="0" y="15.0547" width="18.5003" height="18.5003" filterUnits="userSpaceOnUse" color-interpolation-filters="sRGB">
<feFlood flood-opacity="0" result="BackgroundImageFix"/>
<feColorMatrix in="SourceAlpha" type="matrix" values="0 0 0 0 0 0 0 0 0 0 0 0 0 0 0 0 0 0 127 0"/>
<feOffset dy="3"/>
<feGaussianBlur stdDeviation="2"/>
<feColorMatrix type="matrix" values="0 0 0 0 0.470588 0 0 0 0 0.172549 0 0 0 0 0.894118 0 0 0 0.12 0"/>
<feBlend mode="normal" in2="BackgroundImageFix" result="effect1_dropShadow"/>
<feBlend mode="normal" in="SourceGraphic" in2="effect1_dropShadow" result="shape"/>
</filter>
</defs>
</svg>
