<svg width="178" height="36" viewBox="0 0 178 36" fill="none" xmlns="http://www.w3.org/2000/svg">
<path d="M42.6177 12.1086C42.6177 10.2619 43.03 8.61249 43.8547 7.16027C44.6974 5.69013 45.8359 4.55167 47.2701 3.74488C48.7224 2.92017 50.3449 2.50781 52.1377 2.50781C54.2354 2.50781 56.0731 3.04567 57.6508 4.12138C59.2285 5.1971 60.3311 6.68517 60.9586 8.5856H56.6288C56.1986 7.68917 55.589 7.01685 54.8001 6.56863C54.0292 6.12042 53.1328 5.89631 52.1108 5.89631C51.0172 5.89631 50.0401 6.15628 49.1795 6.6762C48.3369 7.1782 47.6735 7.89535 47.1895 8.82763C46.7233 9.75992 46.4902 10.8536 46.4902 12.1086C46.4902 13.3456 46.7233 14.4393 47.1895 15.3895C47.6735 16.3218 48.3369 17.0479 49.1795 17.5678C50.0401 18.0698 51.0172 18.3208 52.1108 18.3208C53.1328 18.3208 54.0292 18.0967 54.8001 17.6485C55.589 17.1823 56.1986 16.5011 56.6288 15.6046H60.9586C60.3311 17.523 59.2285 19.02 57.6508 20.0957C56.091 21.1535 54.2533 21.6824 52.1377 21.6824C50.3449 21.6824 48.7224 21.279 47.2701 20.4722C45.8359 19.6475 44.6974 18.5091 43.8547 17.0568C43.03 15.6046 42.6177 13.9552 42.6177 12.1086Z" fill="#1F2559"/>
<path d="M70.79 21.7631C69.3557 21.7631 68.0649 21.4493 66.9175 20.8218C65.77 20.1764 64.8646 19.271 64.2013 18.1057C63.5559 16.9403 63.2331 15.5957 63.2331 14.0717C63.2331 12.5478 63.5648 11.2032 64.2282 10.0378C64.9095 8.87245 65.8328 7.97603 66.9981 7.34853C68.1635 6.7031 69.4633 6.38038 70.8976 6.38038C72.3319 6.38038 73.6317 6.7031 74.7971 7.34853C75.9624 7.97603 76.8768 8.87245 77.5401 10.0378C78.2214 11.2032 78.5621 12.5478 78.5621 14.0717C78.5621 15.5957 78.2125 16.9403 77.5132 18.1057C76.832 19.271 75.8997 20.1764 74.7164 20.8218C73.551 21.4493 72.2422 21.7631 70.79 21.7631ZM70.79 18.4822C71.4713 18.4822 72.1078 18.3208 72.6994 17.9981C73.309 17.6575 73.7931 17.1555 74.1516 16.4921C74.5102 15.8287 74.6895 15.022 74.6895 14.0717C74.6895 12.6554 74.313 11.5707 73.56 10.8177C72.8249 10.0468 71.9195 9.66131 70.8438 9.66131C69.7681 9.66131 68.8627 10.0468 68.1276 10.8177C67.4105 11.5707 67.0519 12.6554 67.0519 14.0717C67.0519 15.4881 67.4015 16.5817 68.1007 17.3527C68.8179 18.1057 69.7143 18.4822 70.79 18.4822Z" fill="#1F2559"/>
<path d="M99.8261 6.40728C101.655 6.40728 103.125 6.97203 104.237 8.10153C105.366 9.2131 105.931 10.7729 105.931 12.7809V21.5211H102.166V13.2918C102.166 12.1265 101.87 11.239 101.278 10.6295C100.687 10.002 99.8799 9.6882 98.858 9.6882C97.836 9.6882 97.0203 10.002 96.4107 10.6295C95.8191 11.239 95.5232 12.1265 95.5232 13.2918V21.5211H91.7582V13.2918C91.7582 12.1265 91.4624 11.239 90.8708 10.6295C90.2791 10.002 89.4724 9.6882 88.4504 9.6882C87.4106 9.6882 86.5859 10.002 85.9763 10.6295C85.3846 11.239 85.0888 12.1265 85.0888 13.2918V21.5211H81.3238V6.62242H85.0888V8.42424C85.5729 7.79674 86.1914 7.3037 86.9444 6.94513C87.7154 6.58656 88.558 6.40728 89.4724 6.40728C90.6377 6.40728 91.6776 6.65827 92.5919 7.16027C93.5063 7.64435 94.2145 8.34356 94.7165 9.25792C95.2005 8.39735 95.8997 7.7071 96.8141 7.18717C97.7464 6.66724 98.7504 6.40728 99.8261 6.40728Z" fill="#1F2559"/>
<path d="M113.269 8.77385C113.753 8.09256 114.416 7.52781 115.259 7.0796C116.119 6.61345 117.096 6.38038 118.19 6.38038C119.463 6.38038 120.61 6.69413 121.632 7.32163C122.672 7.94913 123.488 8.84556 124.079 10.0109C124.689 11.1583 124.994 12.494 124.994 14.018C124.994 15.5419 124.689 16.8955 124.079 18.0788C123.488 19.2441 122.672 20.1495 121.632 20.7949C120.61 21.4404 119.463 21.7631 118.19 21.7631C117.096 21.7631 116.128 21.539 115.285 21.0908C114.461 20.6426 113.788 20.0778 113.269 19.3965V28.6208H109.504V6.62242H113.269V8.77385ZM121.148 14.018C121.148 13.1215 120.96 12.3506 120.583 11.7052C120.225 11.0418 119.741 10.5398 119.131 10.1992C118.54 9.85852 117.894 9.6882 117.195 9.6882C116.514 9.6882 115.868 9.86749 115.259 10.2261C114.667 10.5667 114.183 11.0687 113.806 11.7321C113.448 12.3954 113.269 13.1753 113.269 14.0717C113.269 14.9682 113.448 15.7481 113.806 16.4114C114.183 17.0748 114.667 17.5857 115.259 17.9443C115.868 18.285 116.514 18.4553 117.195 18.4553C117.894 18.4553 118.54 18.276 119.131 17.9174C119.741 17.5588 120.225 17.0479 120.583 16.3845C120.96 15.7212 121.148 14.9323 121.148 14.018Z" fill="#1F2559"/>
<path d="M126.762 14.018C126.762 12.512 127.057 11.1763 127.649 10.0109C128.259 8.84556 129.074 7.94913 130.096 7.32163C131.136 6.69413 132.293 6.38038 133.565 6.38038C134.677 6.38038 135.645 6.60449 136.47 7.0527C137.313 7.50092 137.985 8.06567 138.487 8.74695V6.62242H142.279V21.5211H138.487V19.3427C138.003 20.0419 137.33 20.6246 136.47 21.0908C135.627 21.539 134.65 21.7631 133.539 21.7631C132.284 21.7631 131.136 21.4404 130.096 20.7949C129.074 20.1495 128.259 19.2441 127.649 18.0788C127.057 16.8955 126.762 15.5419 126.762 14.018ZM138.487 14.0717C138.487 13.1574 138.308 12.3775 137.949 11.7321C137.59 11.0687 137.106 10.5667 136.497 10.2261C135.887 9.86749 135.233 9.6882 134.534 9.6882C133.834 9.6882 133.189 9.85852 132.597 10.1992C132.006 10.5398 131.522 11.0418 131.145 11.7052C130.787 12.3506 130.607 13.1215 130.607 14.018C130.607 14.9144 130.787 15.7032 131.145 16.3845C131.522 17.0479 132.006 17.5588 132.597 17.9174C133.207 18.276 133.852 18.4553 134.534 18.4553C135.233 18.4553 135.887 18.285 136.497 17.9443C137.106 17.5857 137.59 17.0837 137.949 16.4383C138.308 15.775 138.487 14.9861 138.487 14.0717Z" fill="#1F2559"/>
<path d="M154.212 6.40728C155.987 6.40728 157.421 6.97203 158.515 8.10153C159.609 9.2131 160.155 10.7729 160.155 12.7809V21.5211H156.39V13.2918C156.39 12.1086 156.095 11.2032 155.503 10.5757C154.911 9.93024 154.104 9.60752 153.083 9.60752C152.043 9.60752 151.218 9.93024 150.608 10.5757C150.017 11.2032 149.721 12.1086 149.721 13.2918V21.5211H145.956V6.62242H149.721V8.47803C150.223 7.8326 150.859 7.3306 151.63 6.97203C152.419 6.59553 153.28 6.40728 154.212 6.40728Z" fill="#1F2559"/>
<path d="M177.989 6.62242L168.765 28.567H164.758L167.985 21.1446L162.015 6.62242H166.237L170.082 17.03L173.982 6.62242H177.989Z" fill="#1F2559"/>
<g filter="url(#filter0_d)">
<path d="M14.39 28.4207C8.6416 28.4207 4 23.7434 4 18.0307C4 12.3179 8.6416 7.64062 14.39 7.64062C20.1028 7.64062 24.7801 12.2822 24.7801 18.0307C24.7444 23.7434 20.1028 28.4207 14.39 28.4207Z" fill="#F4263E"/>
</g>
<g filter="url(#filter1_d)">
<path d="M29.7878 1H16.0226C15.1208 1 14.3896 1.73111 14.3896 2.63297V16.3981C14.3896 17.3 15.1208 18.0311 16.0226 18.0311H29.7878C30.6896 18.0311 31.4207 17.3 31.4207 16.3981V2.63297C31.4207 1.73111 30.6896 1 29.7878 1Z" fill="#1B76FF"/>
</g>
<defs>
<filter id="filter0_d" x="0" y="6.64062" width="28.7801" height="28.7801" filterUnits="userSpaceOnUse" color-interpolation-filters="sRGB">
<feFlood flood-opacity="0" result="BackgroundImageFix"/>
<feColorMatrix in="SourceAlpha" type="matrix" values="0 0 0 0 0 0 0 0 0 0 0 0 0 0 0 0 0 0 127 0"/>
<feOffset dy="3"/>
<feGaussianBlur stdDeviation="2"/>
<feColorMatrix type="matrix" values="0 0 0 0 0.956863 0 0 0 0 0.14902 0 0 0 0 0.243137 0 0 0 0.13 0"/>
<feBlend mode="normal" in2="BackgroundImageFix" result="effect1_dropShadow"/>
<feBlend mode="normal" in="SourceGraphic" in2="effect1_dropShadow" result="shape"/>
</filter>
<filter id="filter1_d" x="10.3896" y="0" width="25.0311" height="25.0311" filterUnits="userSpaceOnUse" color-interpolation-filters="sRGB">
<feFlood flood-opacity="0" result="BackgroundImageFix"/>
<feColorMatrix in="SourceAlpha" type="matrix" values="0 0 0 0 0 0 0 0 0 0 0 0 0 0 0 0 0 0 127 0"/>
<feOffset dy="3"/>
<feGaussianBlur stdDeviation="2"/>
<feColorMatrix type="matrix" values="0 0 0 0 0.104167 0 0 0 0 0.4625 0 0 0 0 1 0 0 0 0.2 0"/>
<feBlend mode="normal" in2="BackgroundImageFix" result="effect1_dropShadow"/>
<feBlend mode="normal" in="SourceGraphic" in2="effect1_dropShadow" result="shape"/>
</filter>
</defs>
</svg>
