<svg width="238" height="39" viewBox="0 0 238 39" fill="none" xmlns="http://www.w3.org/2000/svg">
<path d="M85.1044 25.8971C83.2296 25.8971 81.5767 25.49 80.1459 24.676C78.7151 23.8619 77.5804 22.7271 76.7416 21.2716C75.9275 19.8162 75.5205 18.151 75.5205 16.2762C75.5205 14.4013 75.9275 12.7362 76.7416 11.2807C77.5804 9.82524 78.7151 8.69046 80.1459 7.87639C81.5767 7.06231 83.2296 6.65527 85.1044 6.65527C87.448 6.65527 89.4215 7.272 91.025 8.50545C92.6284 9.71423 93.6522 11.3917 94.0962 13.5379H89.1008C88.8541 12.6498 88.3607 11.9591 87.6206 11.4657C86.9052 10.9477 86.0542 10.6887 85.0674 10.6887C83.7599 10.6887 82.6498 11.182 81.7371 12.1688C80.8243 13.1555 80.368 14.5247 80.368 16.2762C80.368 18.0277 80.8243 19.3968 81.7371 20.3836C82.6498 21.3703 83.7599 21.8637 85.0674 21.8637C86.0542 21.8637 86.9052 21.617 87.6206 21.1236C88.3607 20.6302 88.8541 19.9272 89.1008 19.0144H94.0962C93.6522 21.0866 92.6284 22.7518 91.025 24.0099C89.4215 25.268 87.448 25.8971 85.1044 25.8971Z" fill="#1F2559"/>
<path d="M106.367 25.8971C104.591 25.8971 102.987 25.49 101.556 24.676C100.15 23.8619 99.0279 22.7394 98.1892 21.3086C97.3751 19.8532 96.9681 18.1757 96.9681 16.2762C96.9681 14.3767 97.3874 12.7115 98.2262 11.2807C99.0649 9.82524 100.187 8.69046 101.593 7.87639C103.024 7.06231 104.628 6.65527 106.404 6.65527C108.155 6.65527 109.734 7.06231 111.14 7.87639C112.571 8.69046 113.694 9.82524 114.508 11.2807C115.346 12.7115 115.766 14.3767 115.766 16.2762C115.766 18.1757 115.346 19.8532 114.508 21.3086C113.694 22.7394 112.571 23.8619 111.14 24.676C109.71 25.49 108.118 25.8971 106.367 25.8971ZM106.367 21.7897C107.6 21.7897 108.673 21.3333 109.586 20.4206C110.499 19.4831 110.955 18.1017 110.955 16.2762C110.955 14.4507 110.499 13.0815 109.586 12.1688C108.673 11.2314 107.613 10.7627 106.404 10.7627C105.146 10.7627 104.06 11.2314 103.148 12.1688C102.26 13.0815 101.816 14.4507 101.816 16.2762C101.816 18.1017 102.26 19.4831 103.148 20.4206C104.06 21.3333 105.133 21.7897 106.367 21.7897Z" fill="#1F2559"/>
<path d="M119.261 25.453V7.09931H123.442L123.849 9.57855C124.441 8.69046 125.218 7.9874 126.18 7.46935C127.167 6.92663 128.302 6.65527 129.585 6.65527C132.422 6.65527 134.432 7.75304 135.616 9.94858C136.282 8.93715 137.17 8.13541 138.28 7.54335C139.415 6.9513 140.649 6.65527 141.981 6.65527C144.374 6.65527 146.211 7.37067 147.494 8.80147C148.777 10.2323 149.418 12.3291 149.418 15.0921V25.453H144.682V15.5361C144.682 13.9573 144.374 12.7485 143.757 11.9098C143.165 11.071 142.24 10.6516 140.982 10.6516C139.699 10.6516 138.663 11.1204 137.873 12.0578C137.109 12.9952 136.726 14.3027 136.726 15.9801V25.453H131.99V15.5361C131.99 13.9573 131.681 12.7485 131.065 11.9098C130.448 11.071 129.498 10.6516 128.215 10.6516C126.957 10.6516 125.934 11.1204 125.144 12.0578C124.379 12.9952 123.997 14.3027 123.997 15.9801V25.453H119.261Z" fill="#1F2559"/>
<path d="M153.175 33.5938V7.09931H157.394L157.912 9.72656C158.504 8.91248 159.281 8.19708 160.243 7.58036C161.23 6.96364 162.5 6.65527 164.054 6.65527C165.781 6.65527 167.323 7.07465 168.68 7.91339C170.036 8.75214 171.11 9.89924 171.899 11.3547C172.688 12.8102 173.083 14.463 173.083 16.3132C173.083 18.1634 172.688 19.8162 171.899 21.2716C171.11 22.7024 170.036 23.8372 168.68 24.676C167.323 25.49 165.781 25.8971 164.054 25.8971C162.673 25.8971 161.464 25.638 160.428 25.12C159.392 24.602 158.553 23.8742 157.912 22.9368V33.5938H153.175ZM163.055 21.7527C164.56 21.7527 165.806 21.247 166.792 20.2355C167.779 19.2241 168.273 17.9167 168.273 16.3132C168.273 14.7097 167.779 13.3899 166.792 12.3538C165.806 11.3177 164.56 10.7997 163.055 10.7997C161.526 10.7997 160.267 11.3177 159.281 12.3538C158.319 13.3652 157.838 14.6727 157.838 16.2762C157.838 17.8797 158.319 19.1994 159.281 20.2355C160.267 21.247 161.526 21.7527 163.055 21.7527Z" fill="#1F2559"/>
<path d="M182.902 25.8971C181.323 25.8971 180.028 25.6504 179.016 25.157C178.005 24.639 177.252 23.9606 176.759 23.1218C176.266 22.2831 176.019 21.358 176.019 20.3466C176.019 18.6444 176.685 17.2629 178.017 16.2022C179.349 15.1414 181.348 14.611 184.012 14.611H188.674V14.167C188.674 12.9089 188.317 11.9838 187.601 11.3917C186.886 10.7997 185.998 10.5036 184.937 10.5036C183.975 10.5036 183.136 10.738 182.421 11.2067C181.705 11.6507 181.261 12.3168 181.089 13.2049H176.463C176.586 11.8728 177.03 10.7133 177.795 9.72656C178.585 8.7398 179.596 7.9874 180.829 7.46935C182.063 6.92663 183.444 6.65527 184.974 6.65527C187.589 6.65527 189.649 7.309 191.153 8.61646C192.658 9.92391 193.411 11.7741 193.411 14.167V25.453H189.377L188.933 22.4928C188.391 23.4795 187.626 24.2936 186.639 24.935C185.677 25.5764 184.431 25.8971 182.902 25.8971ZM183.975 22.1967C185.332 22.1967 186.38 21.7527 187.12 20.8646C187.885 19.9765 188.366 18.8787 188.563 17.5713H184.53C183.272 17.5713 182.371 17.8056 181.829 18.2744C181.286 18.7184 181.014 19.2735 181.014 19.9395C181.014 20.6549 181.286 21.21 181.829 21.6047C182.371 21.9994 183.087 22.1967 183.975 22.1967Z" fill="#1F2559"/>
<path d="M197.191 25.453V7.09931H201.372L201.742 10.2076C202.309 9.12217 203.123 8.25876 204.184 7.61736C205.27 6.97597 206.54 6.65527 207.996 6.65527C210.265 6.65527 212.029 7.37067 213.287 8.80147C214.545 10.2323 215.174 12.3291 215.174 15.0921V25.453H210.438V15.5361C210.438 13.9573 210.117 12.7485 209.476 11.9098C208.834 11.071 207.835 10.6516 206.478 10.6516C205.146 10.6516 204.048 11.1204 203.185 12.0578C202.346 12.9952 201.927 14.3027 201.927 15.9801V25.453H197.191Z" fill="#1F2559"/>
<path d="M220.643 33.5938L224.899 24.2319H223.788L216.647 7.09931H221.79L226.934 20.0135L232.299 7.09931H237.332L225.676 33.5938H220.643Z" fill="#1F2559"/>
<g filter="url(#filter0_d)">
<path d="M20.9303 31.0096C20.0272 31.9127 18.5625 31.9115 17.661 31.0068L4.62764 17.9287C3.72827 17.0262 3.72952 15.5659 4.63044 14.665L17.6638 1.63166C18.5647 0.730741 20.025 0.729489 20.9275 1.62886L34.0056 14.6622C34.9102 15.5638 34.9115 17.0284 34.0084 17.9315L20.9303 31.0096Z" fill="#782CE4"/>
</g>
<g filter="url(#filter1_d)">
<path d="M37.2784 31.0056C36.3768 31.9102 34.9122 31.9115 34.0091 31.0084L20.931 17.9303C20.0279 17.0272 20.0291 15.5625 20.9338 14.661L34.0119 1.62764C34.9144 0.728268 36.3747 0.729521 37.2756 1.63044L50.3089 14.6638C51.2098 15.5647 51.2111 17.025 50.3117 17.9275L37.2784 31.0056Z" fill="#FFCD1D"/>
</g>
<g filter="url(#filter2_d)">
<path d="M49.3947 31.0073C48.4924 31.9111 47.0279 31.9111 46.1256 31.0073L33.0677 17.929C32.1663 17.0262 32.1676 15.5635 33.0705 14.6623L46.1284 1.62868C47.0301 0.728694 48.4902 0.728695 49.3919 1.62868L62.4497 14.6623C63.3527 15.5635 63.3539 17.0262 62.4525 17.929L49.3947 31.0073Z" fill="#F4263E"/>
</g>
<defs>
<filter id="filter0_d" x="0.354408" y="0.0551548" width="37.9304" height="37.9304" filterUnits="userSpaceOnUse" color-interpolation-filters="sRGB">
<feFlood flood-opacity="0" result="BackgroundImageFix"/>
<feColorMatrix in="SourceAlpha" type="matrix" values="0 0 0 0 0 0 0 0 0 0 0 0 0 0 0 0 0 0 127 0"/>
<feOffset dy="2.69977"/>
<feGaussianBlur stdDeviation="1.79985"/>
<feColorMatrix type="matrix" values="0 0 0 0 0.470588 0 0 0 0 0.172549 0 0 0 0 0.894118 0 0 0 0.21 0"/>
<feBlend mode="normal" in2="BackgroundImageFix" result="effect1_dropShadow"/>
<feBlend mode="normal" in="SourceGraphic" in2="effect1_dropShadow" result="shape"/>
</filter>
<filter id="filter1_d" x="16.6552" y="0.953857" width="37.9304" height="37.9304" filterUnits="userSpaceOnUse" color-interpolation-filters="sRGB">
<feFlood flood-opacity="0" result="BackgroundImageFix"/>
<feColorMatrix in="SourceAlpha" type="matrix" values="0 0 0 0 0 0 0 0 0 0 0 0 0 0 0 0 0 0 127 0"/>
<feOffset dy="3.59969"/>
<feGaussianBlur stdDeviation="1.79985"/>
<feColorMatrix type="matrix" values="0 0 0 0 1 0 0 0 0 0.80475 0 0 0 0 0.1125 0 0 0 0.26 0"/>
<feBlend mode="normal" in2="BackgroundImageFix" result="effect1_dropShadow"/>
<feBlend mode="normal" in="SourceGraphic" in2="effect1_dropShadow" result="shape"/>
</filter>
<filter id="filter2_d" x="28.7929" y="0.05369" width="37.9346" height="37.9308" filterUnits="userSpaceOnUse" color-interpolation-filters="sRGB">
<feFlood flood-opacity="0" result="BackgroundImageFix"/>
<feColorMatrix in="SourceAlpha" type="matrix" values="0 0 0 0 0 0 0 0 0 0 0 0 0 0 0 0 0 0 127 0"/>
<feOffset dy="2.69977"/>
<feGaussianBlur stdDeviation="1.79985"/>
<feColorMatrix type="matrix" values="0 0 0 0 0.956863 0 0 0 0 0.14902 0 0 0 0 0.243137 0 0 0 0.32 0"/>
<feBlend mode="normal" in2="BackgroundImageFix" result="effect1_dropShadow"/>
<feBlend mode="normal" in="SourceGraphic" in2="effect1_dropShadow" result="shape"/>
</filter>
</defs>
</svg>
