<svg width="175" height="34" viewBox="0 0 175 34" fill="none" xmlns="http://www.w3.org/2000/svg">
<path d="M41.1016 11.9587C41.1016 10.1367 41.5084 8.50936 42.3221 7.07657C43.1535 5.62609 44.2767 4.50285 45.6918 3.70686C47.1246 2.89317 48.7254 2.48633 50.4943 2.48633C52.5639 2.48633 54.377 3.01699 55.9336 4.07832C57.4902 5.13965 58.5781 6.60782 59.1972 8.48283H54.9254C54.5008 7.59839 53.8994 6.93506 53.1211 6.49284C52.3605 6.05062 51.476 5.82951 50.4678 5.82951C49.3888 5.82951 48.4247 6.086 47.5757 6.59897C46.7443 7.09426 46.0898 7.80181 45.6122 8.72163C45.1523 9.64144 44.9223 10.7205 44.9223 11.9587C44.9223 13.1792 45.1523 14.2582 45.6122 15.1957C46.0898 16.1155 46.7443 16.8319 47.5757 17.3449C48.4247 17.8402 49.3888 18.0878 50.4678 18.0878C51.476 18.0878 52.3605 17.8667 53.1211 17.4245C53.8994 16.9646 54.5008 16.2924 54.9254 15.408H59.1972C58.5781 17.3007 57.4902 18.7777 55.9336 19.839C54.3947 20.8827 52.5816 21.4045 50.4943 21.4045C48.7254 21.4045 47.1246 21.0065 45.6918 20.2105C44.2767 19.3968 43.1535 18.2736 42.3221 16.8408C41.5084 15.408 41.1016 13.7806 41.1016 11.9587Z" fill="#1F2559"/>
<path d="M68.8971 21.4841C67.482 21.4841 66.2084 21.1745 65.0764 20.5554C63.9443 19.9186 63.051 19.0253 62.3965 17.8756C61.7597 16.7258 61.4413 15.3991 61.4413 13.8956C61.4413 12.3921 61.7686 11.0654 62.423 9.91562C63.0952 8.76585 64.0062 7.88141 65.156 7.2623C66.3057 6.62551 67.5882 6.30711 69.0033 6.30711C70.4184 6.30711 71.7008 6.62551 72.8506 7.2623C74.0004 7.88141 74.9025 8.76585 75.557 9.91562C76.2291 11.0654 76.5652 12.3921 76.5652 13.8956C76.5652 15.3991 76.2203 16.7258 75.5304 17.8756C74.8583 19.0253 73.9384 19.9186 72.771 20.5554C71.6212 21.1745 70.3299 21.4841 68.8971 21.4841ZM68.8971 18.247C69.5693 18.247 70.1973 18.0878 70.781 17.7694C71.3824 17.4334 71.86 16.9381 72.2138 16.2836C72.5676 15.6291 72.7445 14.8331 72.7445 13.8956C72.7445 12.4982 72.373 11.428 71.6301 10.6851C70.9048 9.92446 70.0115 9.54416 68.9502 9.54416C67.8889 9.54416 66.9956 9.92446 66.2704 10.6851C65.5628 11.428 65.209 12.4982 65.209 13.8956C65.209 15.293 65.554 16.372 66.2438 17.1326C66.9514 17.8756 67.8358 18.247 68.8971 18.247Z" fill="#1F2559"/>
<path d="M97.5449 6.33364C99.3492 6.33364 100.8 6.89084 101.896 8.00523C103.011 9.10194 103.568 10.6409 103.568 12.622V21.2453H99.8533V13.1261C99.8533 11.9764 99.5614 11.1008 98.9777 10.4994C98.394 9.88024 97.598 9.57069 96.5897 9.57069C95.5814 9.57069 94.7766 9.88024 94.1752 10.4994C93.5915 11.1008 93.2996 11.9764 93.2996 13.1261V21.2453H89.5849V13.1261C89.5849 11.9764 89.2931 11.1008 88.7093 10.4994C88.1256 9.88024 87.3296 9.57069 86.3214 9.57069C85.2954 9.57069 84.4817 9.88024 83.8803 10.4994C83.2966 11.1008 83.0047 11.9764 83.0047 13.1261V21.2453H79.2901V6.54591H83.0047V8.32363C83.4823 7.70452 84.0926 7.21808 84.8355 6.8643C85.5961 6.51053 86.4275 6.33364 87.3296 6.33364C88.4794 6.33364 89.5053 6.58128 90.4075 7.07657C91.3096 7.55417 92.0083 8.24403 92.5036 9.14616C92.9812 8.2971 93.6711 7.61608 94.5732 7.1031C95.493 6.59013 96.4836 6.33364 97.5449 6.33364Z" fill="#1F2559"/>
<path d="M110.808 8.66856C111.285 7.99639 111.94 7.43919 112.771 6.99697C113.62 6.53706 114.584 6.30711 115.663 6.30711C116.919 6.30711 118.051 6.61666 119.059 7.23577C120.085 7.85488 120.89 8.73932 121.474 9.88909C122.075 11.0212 122.376 12.339 122.376 13.8425C122.376 15.3461 122.075 16.6816 121.474 17.849C120.89 18.9988 120.085 19.8921 119.059 20.5289C118.051 21.1657 116.919 21.4841 115.663 21.4841C114.584 21.4841 113.629 21.263 112.798 20.8208C111.984 20.3785 111.321 19.8213 110.808 19.1492V28.2501H107.093V6.54591H110.808V8.66856ZM118.582 13.8425C118.582 12.9581 118.396 12.1975 118.025 11.5607C117.671 10.9062 117.193 10.4109 116.592 10.0748C116.008 9.73873 115.371 9.57069 114.681 9.57069C114.009 9.57069 113.372 9.74758 112.771 10.1014C112.187 10.4374 111.71 10.9327 111.338 11.5872C110.984 12.2417 110.808 13.0112 110.808 13.8956C110.808 14.78 110.984 15.5495 111.338 16.204C111.71 16.8585 112.187 17.3626 112.771 17.7164C113.372 18.0525 114.009 18.2205 114.681 18.2205C115.371 18.2205 116.008 18.0436 116.592 17.6898C117.193 17.3361 117.671 16.8319 118.025 16.1775C118.396 15.523 118.582 14.7447 118.582 13.8425Z" fill="#1F2559"/>
<path d="M124.12 13.8425C124.12 12.3567 124.412 11.0389 124.996 9.88909C125.597 8.73932 126.402 7.85488 127.41 7.23577C128.436 6.61666 129.577 6.30711 130.833 6.30711C131.93 6.30711 132.885 6.52822 133.699 6.97044C134.53 7.41266 135.193 7.96985 135.689 8.64203V6.54591H139.43V21.2453H135.689V19.0961C135.211 19.786 134.548 20.3609 133.699 20.8208C132.867 21.263 131.903 21.4841 130.807 21.4841C129.568 21.4841 128.436 21.1657 127.41 20.5289C126.402 19.8921 125.597 18.9988 124.996 17.849C124.412 16.6816 124.12 15.3461 124.12 13.8425ZM135.689 13.8956C135.689 12.9935 135.512 12.224 135.158 11.5872C134.804 10.9327 134.327 10.4374 133.725 10.1014C133.124 9.74758 132.478 9.57069 131.788 9.57069C131.098 9.57069 130.462 9.73873 129.878 10.0748C129.294 10.4109 128.817 10.9062 128.445 11.5607C128.091 12.1975 127.914 12.9581 127.914 13.8425C127.914 14.727 128.091 15.5053 128.445 16.1775C128.817 16.8319 129.294 17.3361 129.878 17.6898C130.479 18.0436 131.116 18.2205 131.788 18.2205C132.478 18.2205 133.124 18.0525 133.725 17.7164C134.327 17.3626 134.804 16.8673 135.158 16.2305C135.512 15.576 135.689 14.7977 135.689 13.8956Z" fill="#1F2559"/>
<path d="M151.203 6.33364C152.955 6.33364 154.37 6.89084 155.449 8.00523C156.528 9.10194 157.067 10.6409 157.067 12.622V21.2453H153.353V13.1261C153.353 11.9587 153.061 11.0654 152.477 10.4463C151.893 9.80949 151.097 9.49109 150.089 9.49109C149.063 9.49109 148.249 9.80949 147.648 10.4463C147.064 11.0654 146.772 11.9587 146.772 13.1261V21.2453H143.058V6.54591H146.772V8.3767C147.268 7.7399 147.896 7.24461 148.656 6.89084C149.435 6.51937 150.284 6.33364 151.203 6.33364Z" fill="#1F2559"/>
<path d="M174.662 6.54591L165.561 28.197H161.608L164.792 20.8738L158.902 6.54591H163.067L166.862 16.8142L170.709 6.54591H174.662Z" fill="#1F2559"/>
<g filter="url(#filter0_d)">
<path d="M13.2511 28.0539C7.57952 28.0539 3 23.4392 3 17.8028C3 12.1665 7.57952 7.55176 13.2511 7.55176C18.8874 7.55176 23.5022 12.1313 23.5022 17.8028C23.4669 23.4392 18.8874 28.0539 13.2511 28.0539Z" fill="#F4263E"/>
</g>
<g filter="url(#filter1_d)">
<path d="M28.8331 1H14.4722C13.7977 1 13.251 1.54677 13.251 2.22124V16.5821C13.251 17.2566 13.7977 17.8033 14.4722 17.8033H28.8331C29.5075 17.8033 30.0543 17.2566 30.0543 16.5821V2.22124C30.0543 1.54677 29.5075 1 28.8331 1Z" fill="#1B76FF"/>
</g>
<defs>
<filter id="filter0_d" x="0.00855446" y="6.8039" width="26.4851" height="26.4851" filterUnits="userSpaceOnUse" color-interpolation-filters="sRGB">
<feFlood flood-opacity="0" result="BackgroundImageFix"/>
<feColorMatrix in="SourceAlpha" type="matrix" values="0 0 0 0 0 0 0 0 0 0 0 0 0 0 0 0 0 0 127 0"/>
<feOffset dy="2.24358"/>
<feGaussianBlur stdDeviation="1.49572"/>
<feColorMatrix type="matrix" values="0 0 0 0 0.956863 0 0 0 0 0.14902 0 0 0 0 0.243137 0 0 0 0.13 0"/>
<feBlend mode="normal" in2="BackgroundImageFix" result="effect1_dropShadow"/>
<feBlend mode="normal" in="SourceGraphic" in2="effect1_dropShadow" result="shape"/>
</filter>
<filter id="filter1_d" x="10.2595" y="0.252139" width="22.7862" height="22.7862" filterUnits="userSpaceOnUse" color-interpolation-filters="sRGB">
<feFlood flood-opacity="0" result="BackgroundImageFix"/>
<feColorMatrix in="SourceAlpha" type="matrix" values="0 0 0 0 0 0 0 0 0 0 0 0 0 0 0 0 0 0 127 0"/>
<feOffset dy="2.24358"/>
<feGaussianBlur stdDeviation="1.49572"/>
<feColorMatrix type="matrix" values="0 0 0 0 0.104167 0 0 0 0 0.4625 0 0 0 0 1 0 0 0 0.2 0"/>
<feBlend mode="normal" in2="BackgroundImageFix" result="effect1_dropShadow"/>
<feBlend mode="normal" in="SourceGraphic" in2="effect1_dropShadow" result="shape"/>
</filter>
</defs>
</svg>
