<svg width="177" height="32" viewBox="0 0 177 32" fill="none" xmlns="http://www.w3.org/2000/svg">
<path d="M63.7236 16.173C62.4695 18.2073 60.686 19.3778 58.373 19.3778C55.0288 19.3778 52.5765 16.6746 52.5765 13.1911C52.5765 9.70765 54.9174 7.03235 58.4287 7.03235C60.6581 7.03235 62.6646 8.2864 63.6678 10.1814L66.9005 7.61757C65.2563 4.69146 62.2745 2.93579 58.4844 2.93579C52.4093 2.93579 48.1455 7.45037 48.1455 13.1911C48.1455 18.9319 52.4929 23.4743 58.4287 23.4743C62.163 23.4743 65.2842 21.4957 66.9841 18.6811L63.7236 16.173Z" fill="#1F2559"/>
<path d="M75.8365 8.50934C71.3776 8.50934 68.1728 11.742 68.1728 15.9779C68.1728 20.1859 71.3776 23.4743 75.8365 23.4743C80.2953 23.4743 83.5001 20.1859 83.5001 15.9779C83.5001 11.742 80.2953 8.50934 75.8365 8.50934ZM75.8365 12.2715C77.7593 12.2715 79.2085 13.7485 79.2085 15.9779C79.2085 18.2073 77.7593 19.7122 75.8365 19.7122C73.9136 19.7122 72.4645 18.2073 72.4645 15.9779C72.4645 13.7485 73.9136 12.2715 75.8365 12.2715Z" fill="#1F2559"/>
<path d="M86.2688 8.84375V23.1399H90.5047V15.6992C90.5047 13.8321 91.4801 12.2436 93.2636 12.2436C94.8242 12.2436 95.8274 13.219 95.8274 15.0861V23.1399H100.063V15.6992C100.063 13.8321 101.039 12.2436 102.822 12.2436C104.383 12.2436 105.358 13.219 105.358 15.0861V23.1399H109.594V14.4452C109.594 10.7388 107.504 8.50934 104.076 8.50934C101.652 8.50934 100.286 9.56831 99.2552 11.0174C98.2798 9.42898 96.7192 8.50934 94.5177 8.50934C92.6505 8.50934 91.2571 9.2339 90.3375 10.683V8.84375H86.2688Z" fill="#1F2559"/>
<path d="M120.708 12.2436C122.519 12.2436 124.024 13.7206 124.024 16.0336C124.024 18.263 122.519 19.74 120.708 19.74C118.813 19.74 117.336 18.2909 117.336 16.0336C117.336 13.6927 118.813 12.2436 120.708 12.2436ZM117.141 8.84375H113.211V28.7135H117.447V21.5793C118.339 22.917 120.039 23.4743 121.572 23.4743C125.473 23.4743 128.288 20.2417 128.288 15.9779C128.288 11.5748 125.25 8.50934 121.599 8.50934C120.206 8.50934 118.255 9.09456 117.141 10.8224V8.84375Z" fill="#1F2559"/>
<path d="M138.477 14.2501L134.575 15.0025C131.566 15.6435 129.921 17.0926 129.921 19.2106C129.921 21.6908 131.872 23.4743 134.659 23.4743C136.554 23.4743 137.947 22.6383 138.616 21.3842V23.1399H142.546V14.1386C142.546 10.6552 140.177 8.50934 136.192 8.50934C133.516 8.50934 131.371 9.62405 130.061 11.2125L132.262 13.8878C133.126 12.9124 134.352 12.16 135.941 12.16C137.39 12.16 138.477 12.7174 138.477 14.1386V14.2501ZM135.606 20.3253C134.603 20.3253 133.962 19.7679 133.962 18.9597C133.962 18.1794 134.52 17.6778 135.662 17.4828L138.505 16.9254V17.3434C138.505 19.0433 137.362 20.3253 135.606 20.3253Z" fill="#1F2559"/>
<path d="M146.114 8.84375V23.1399H150.35V15.6992C150.35 13.8321 151.325 12.2436 153.164 12.2436C154.725 12.2436 155.728 13.219 155.728 15.0861V23.1399H159.964V14.4452C159.964 10.7388 157.846 8.50934 154.418 8.50934C152.495 8.50934 151.102 9.2339 150.182 10.683V8.84375H146.114Z" fill="#1F2559"/>
<path d="M166.88 22.6104L166.713 23.0842C166.1 25.1185 165.069 25.4808 163.954 25.4808C163.481 25.4808 162.756 25.4251 162.004 25.007V28.5184C162.645 28.8249 163.564 29.0479 164.567 29.0479C167.271 29.0479 168.998 27.7659 170.42 24.3103L176.662 8.84375H172.342L168.998 18.2073L165.682 8.84375H161.251L166.88 22.6104Z" fill="#1F2559"/>
<g filter="url(#filter0_d)">
<path d="M22.7596 1H18.2369C17.7933 1 17.4336 1.35966 17.4336 1.80333V25.5571C17.4336 26.0008 17.7933 26.3605 18.2369 26.3605H22.7596C23.2032 26.3605 23.5629 26.0008 23.5629 25.5571V1.80333C23.5629 1.35966 23.2032 1 22.7596 1Z" fill="#F4263E"/>
</g>
<g filter="url(#filter1_d)">
<path d="M31.7863 26.3602C34.6638 26.3602 36.9964 24.0275 36.9964 21.1501C36.9964 18.2726 34.6638 15.9399 31.7863 15.9399C28.9088 15.9399 26.5762 18.2726 26.5762 21.1501C26.5762 24.0275 28.9088 26.3602 31.7863 26.3602Z" fill="#1B76FF"/>
</g>
<g filter="url(#filter2_d)">
<path d="M31.7863 11.4202C34.6638 11.4202 36.9964 9.08758 36.9964 6.21011C36.9964 3.33265 34.6638 1 31.7863 1C28.9088 1 26.5762 3.33265 26.5762 6.21011C26.5762 9.08758 28.9088 11.4202 31.7863 11.4202Z" fill="#FFCD1D"/>
</g>
<g filter="url(#filter3_d)">
<path d="M9.21011 26.3602C12.0876 26.3602 14.4202 24.0275 14.4202 21.1501C14.4202 18.2726 12.0876 15.9399 9.21011 15.9399C6.33265 15.9399 4 18.2726 4 21.1501C4 24.0275 6.33265 26.3602 9.21011 26.3602Z" fill="#782CE4"/>
</g>
<defs>
<filter id="filter0_d" x="14.3172" y="0.220899" width="12.3621" height="31.5933" filterUnits="userSpaceOnUse" color-interpolation-filters="sRGB">
<feFlood flood-opacity="0" result="BackgroundImageFix"/>
<feColorMatrix in="SourceAlpha" type="matrix" values="0 0 0 0 0 0 0 0 0 0 0 0 0 0 0 0 0 0 127 0"/>
<feOffset dy="2.3373"/>
<feGaussianBlur stdDeviation="1.5582"/>
<feColorMatrix type="matrix" values="0 0 0 0 0.956863 0 0 0 0 0.14902 0 0 0 0 0.243137 0 0 0 0.11 0"/>
<feBlend mode="normal" in2="BackgroundImageFix" result="effect1_dropShadow"/>
<feBlend mode="normal" in="SourceGraphic" in2="effect1_dropShadow" result="shape"/>
</filter>
<filter id="filter1_d" x="23.4598" y="15.1608" width="16.653" height="16.653" filterUnits="userSpaceOnUse" color-interpolation-filters="sRGB">
<feFlood flood-opacity="0" result="BackgroundImageFix"/>
<feColorMatrix in="SourceAlpha" type="matrix" values="0 0 0 0 0 0 0 0 0 0 0 0 0 0 0 0 0 0 127 0"/>
<feOffset dy="2.3373"/>
<feGaussianBlur stdDeviation="1.5582"/>
<feColorMatrix type="matrix" values="0 0 0 0 0.104167 0 0 0 0 0.4625 0 0 0 0 1 0 0 0 0.14 0"/>
<feBlend mode="normal" in2="BackgroundImageFix" result="effect1_dropShadow"/>
<feBlend mode="normal" in="SourceGraphic" in2="effect1_dropShadow" result="shape"/>
</filter>
<filter id="filter2_d" x="23.4598" y="0.220899" width="16.653" height="16.653" filterUnits="userSpaceOnUse" color-interpolation-filters="sRGB">
<feFlood flood-opacity="0" result="BackgroundImageFix"/>
<feColorMatrix in="SourceAlpha" type="matrix" values="0 0 0 0 0 0 0 0 0 0 0 0 0 0 0 0 0 0 127 0"/>
<feOffset dy="2.3373"/>
<feGaussianBlur stdDeviation="1.5582"/>
<feColorMatrix type="matrix" values="0 0 0 0 1 0 0 0 0 0.80475 0 0 0 0 0.1125 0 0 0 0.27 0"/>
<feBlend mode="normal" in2="BackgroundImageFix" result="effect1_dropShadow"/>
<feBlend mode="normal" in="SourceGraphic" in2="effect1_dropShadow" result="shape"/>
</filter>
<filter id="filter3_d" x="0.883597" y="15.1608" width="16.653" height="16.653" filterUnits="userSpaceOnUse" color-interpolation-filters="sRGB">
<feFlood flood-opacity="0" result="BackgroundImageFix"/>
<feColorMatrix in="SourceAlpha" type="matrix" values="0 0 0 0 0 0 0 0 0 0 0 0 0 0 0 0 0 0 127 0"/>
<feOffset dy="2.3373"/>
<feGaussianBlur stdDeviation="1.5582"/>
<feColorMatrix type="matrix" values="0 0 0 0 0.470588 0 0 0 0 0.172549 0 0 0 0 0.894118 0 0 0 0.12 0"/>
<feBlend mode="normal" in2="BackgroundImageFix" result="effect1_dropShadow"/>
<feBlend mode="normal" in="SourceGraphic" in2="effect1_dropShadow" result="shape"/>
</filter>
</defs>
</svg>
