<?xml version="1.0" encoding="UTF-8"?>
<svg xmlns="http://www.w3.org/2000/svg" xmlns:xlink="http://www.w3.org/1999/xlink" viewBox="0 0 48 48" width="48px" height="48px">
<g id="surface200873881">
<path style=" stroke:none;fill-rule:nonzero;fill:rgb(12.941177%,58.823532%,95.294118%);fill-opacity:1;" d="M 47.601562 24 C 47.601562 37.03125 37.03125 47.601562 24 47.601562 C 10.96875 47.601562 0.398438 37.03125 0.398438 24 C 0.398438 10.96875 10.96875 0.398438 24 0.398438 C 37.03125 0.398438 47.601562 10.96875 47.601562 24 Z M 47.601562 24 "/>
<path style=" stroke:none;fill-rule:nonzero;fill:rgb(100%,100%,100%);fill-opacity:1;" d="M 21.640625 21.640625 L 26.359375 21.640625 L 26.359375 34.621094 L 21.640625 34.621094 Z M 26.949219 15.148438 C 26.949219 16.777344 25.628906 18.101562 24 18.101562 C 22.371094 18.101562 21.050781 16.777344 21.050781 15.148438 C 21.050781 13.523438 22.371094 12.199219 24 12.199219 C 25.628906 12.199219 26.949219 13.523438 26.949219 15.148438 Z M 26.949219 15.148438 "/>
</g>
</svg>
